<?xml version="1.0" standalone="no"?>
<!DOCTYPE svg PUBLIC "-//W3C//DTD SVG 1.1//EN" "http://www.w3.org/Graphics/SVG/1.1/DTD/svg11.dtd" >
<svg xmlns="http://www.w3.org/2000/svg" xmlns:xlink="http://www.w3.org/1999/xlink" version="1.1">
<metadata>
Created by Christoph Koeberlin (http://christoph.koe.berlin)
Copyright (c) 2017 Swiss Typefaces Sarl. All rights reserved.
</metadata>
<defs>
<font id="Font" horiz-adv-x="631" >
  <font-face 
    font-family="Font"
    font-weight="700"
    font-style="italic"
    font-stretch="normal"
    units-per-em="1000"
    panose-1="2 4 8 4 8 0 0 0 0 4"
    ascent="800"
    descent="-200"
    x-height="502"
    cap-height="758"
    bbox="-242 -262 1493 937"
    underline-thickness="71"
    underline-position="-130"
    slope="-17"
    unicode-range="U+0020-2022"
  />
<missing-glyph horiz-adv-x="636" 
d="M68 758h500v-758h-500v758zM318 396l217 343h-434zM87 30l221 349l-221 349v-698zM549 30v698l-220 -349zM535 19l-217 343l-217 -343h434z" />
    <glyph glyph-name="f_f.liga" unicode="ff" horiz-adv-x="686" 
d="M458 425h-185l-54 -244q-27 -120 -69 -204t-89.5 -137t-96 -77t-87.5 -24q-42 0 -63.5 22t-21.5 52q0 25 19.5 46.5t48.5 23.5q13 -14 26 -28.5t26 -26t25 -19t23 -7.5q9 0 17 4.5t16 19.5t16.5 43t18.5 75l103 481h-83l10 32q29 3 50.5 8.5t39 18t32.5 33.5t32 55
q29 60 59.5 97.5t60 58.5t57 28.5t50.5 7.5q35 0 52.5 -16t17.5 -43q0 -22 -10 -44.5t-28 -33.5q-25 8 -48.5 11.5t-44.5 3.5q-66 0 -99 -26t-33 -63q0 -28 16 -39.5t52 -11.5h122q28 0 45 7.5t27.5 19t17 25.5t13.5 28q29 60 59.5 99t60 62t57 32t50.5 9q35 0 52.5 -16
t17.5 -43q0 -22 -10 -44.5t-28 -33.5q-25 8 -48.5 11.5t-44.5 3.5q-33 0 -58 -8.5t-41.5 -22.5t-24.5 -32t-8 -36q0 -28 16 -44.5t52 -16.5h135l-50 -77h-126l-45 -205q-26 -120 -68 -204t-90 -137t-96.5 -77t-87.5 -24q-42 0 -63.5 22t-21.5 52q0 25 19.5 46.5t48.5 23.5
q13 -14 26 -28.5t26 -26t25 -19t23 -7.5q9 0 17 4.5t16 19.5t16.5 43t18.5 75z" />
    <glyph glyph-name="f_i.liga" unicode="fi" horiz-adv-x="644" 
d="M525 710q0 18 7.5 35t20.5 30t30 20.5t35 7.5q19 0 36 -7.5t30 -20.5t20.5 -30t7.5 -35q0 -19 -7.5 -36t-20.5 -30t-30 -20.5t-36 -7.5q-18 0 -35 7.5t-30 20.5t-20.5 30t-7.5 36zM-123 -261q-42 0 -63.5 22t-21.5 52q0 25 19.5 46.5t48.5 23.5q13 -14 26 -28.5t26 -26
t25 -19t23 -7.5q9 0 17 4.5t16 19.5t16.5 43t18.5 75l103 481h-83l10 32q29 2 50.5 9t39 21.5t32.5 37.5t32 57q29 60 57.5 99t56 62t52.5 32t46 9q35 0 52.5 -16t17.5 -43q0 -22 -10 -44.5t-28 -33.5q-25 8 -48.5 11.5t-44.5 3.5q-31 0 -53 -8.5t-36.5 -22.5t-21 -32
t-6.5 -36q0 -28 16 -44.5t52 -16.5h312l-149 -387q-15 -40 -16.5 -56t14.5 -16q9 0 24.5 8t34 25t38.5 45t40 67l29 -12q-21 -43 -46 -78t-55.5 -59.5t-68 -38t-82.5 -13.5q-32 0 -49.5 9t-24 24.5t-3 37.5t13.5 49l123 318h-176l-54 -244q-27 -120 -69 -204t-89.5 -137
t-96 -77t-87.5 -24z" />
    <glyph glyph-name="f_f_i.liga" unicode="ffi" horiz-adv-x="969" 
d="M850 710q0 18 7.5 35t20.5 30t30 20.5t35 7.5q19 0 36 -7.5t30 -20.5t20.5 -30t7.5 -35q0 -19 -7.5 -36t-20.5 -30t-30 -20.5t-36 -7.5q-18 0 -35 7.5t-30 20.5t-20.5 30t-7.5 36zM-123 -261q-42 0 -63.5 22t-21.5 52q0 25 19.5 46.5t48.5 23.5q13 -14 26 -28.5t26 -26
t25 -19t23 -7.5q9 0 17 4.5t16 19.5t16.5 43t18.5 75l103 481h-83l10 32q29 4 50.5 9.5t39 18t32.5 33t32 54.5q29 60 59.5 97.5t60 58.5t57 28.5t50.5 7.5q35 0 52.5 -16t17.5 -43q0 -22 -10 -44.5t-28 -33.5q-25 8 -48.5 11.5t-44.5 3.5q-66 0 -99 -26t-33 -63
q0 -28 16 -39.5t52 -11.5h120q28 0 45 7.5t27.5 19t17 25.5t13.5 28q29 60 57.5 99t55.5 62t52 32t47 9q35 0 52.5 -16t17.5 -43q0 -22 -10 -44.5t-28 -33.5q-25 8 -48.5 11.5t-44.5 3.5q-31 0 -53 -8.5t-36.5 -22.5t-21 -32t-6.5 -36q0 -28 16 -44.5t52 -16.5h312
l-149 -387q-15 -40 -16.5 -56t14.5 -16q9 0 24.5 8t34 25t38.5 45t40 67l29 -12q-21 -43 -46 -78t-55.5 -59.5t-68 -38t-82.5 -13.5q-32 0 -49.5 9t-24 24.5t-3 37.5t13.5 49l123 318h-176l-45 -205q-26 -120 -68 -204t-90 -137t-96.5 -77t-87.5 -24q-42 0 -63.5 22
t-21.5 52q0 25 19.5 46.5t48.5 23.5q13 -14 26 -28.5t26 -26t25 -19t23 -7.5q9 0 17 4.5t16 19.5t16.5 43t18.5 75l94 442h-183l-54 -244q-27 -120 -69 -204t-89.5 -137t-96 -77t-87.5 -24z" />
    <glyph glyph-name="f_l.liga" unicode="fl" horiz-adv-x="667" 
d="M-123 -261q-42 0 -63.5 22t-21.5 52q0 25 19.5 46.5t48.5 23.5q13 -14 26 -28.5t26 -26t25 -19t23 -7.5q9 0 17 4.5t16 19.5t16.5 43t18.5 75l103 481h-83l10 32q29 2 50.5 9t39 21.5t32.5 37.5t32 57q29 60 59.5 99t60 62t57 32t50.5 9q31 0 48 -12.5t21 -33.5l232 64
l-236 -687q-14 -41 -16 -56.5t14 -15.5q9 0 24.5 8t34 25t38.5 45t40 67l29 -12q-21 -43 -46 -78t-55.5 -59.5t-68 -38t-82.5 -13.5q-32 0 -49.5 8.5t-23.5 24.5t-2.5 38t12.5 49l191 557l-39 33q-5 -16 -13.5 -29t-20.5 -21q-25 8 -48.5 11.5t-44.5 3.5q-33 0 -58 -8.5
t-41.5 -22.5t-24.5 -32t-8 -36q0 -28 16 -44.5t52 -16.5h125l-50 -77h-116l-54 -244q-27 -120 -69 -204t-89.5 -137t-96 -77t-87.5 -24z" />
    <glyph glyph-name="f_f_l.liga" unicode="ffl" horiz-adv-x="1000" 
d="M-123 -261q-42 0 -63.5 22t-21.5 52q0 25 19.5 46.5t48.5 23.5q13 -14 26 -28.5t26 -26t25 -19t23 -7.5q9 0 17 4.5t16 19.5t16.5 43t18.5 75l103 481h-83l10 32q29 4 50.5 9.5t39 18t32.5 33t32 54.5q29 60 59.5 97.5t60 58.5t57 28.5t50.5 7.5q35 0 52.5 -16t17.5 -43
q0 -22 -10 -44.5t-28 -33.5q-25 8 -48.5 11.5t-44.5 3.5q-66 0 -99 -26t-33 -63q0 -28 16 -39.5t52 -11.5h124q28 0 45 7.5t27.5 19t17 25.5t13.5 28q29 60 59.5 99t60 62t57 32t50.5 9q32 0 48.5 -12.5t20.5 -34.5l236 65l-236 -687q-14 -41 -16 -56.5t14 -15.5q9 0 24.5 8
t34 25t38.5 45t40 67l29 -12q-21 -43 -46 -78t-55.5 -59.5t-68 -38t-82.5 -13.5q-32 0 -49.5 8.5t-23.5 24.5t-2.5 38t12.5 49l191 557l-42 36q-5 -17 -13.5 -31t-21.5 -22q-25 8 -48.5 11.5t-44.5 3.5q-33 0 -58 -8.5t-41.5 -22.5t-24.5 -32t-8 -36q0 -28 16 -44.5
t52 -16.5h135l-50 -77h-126l-45 -205q-26 -120 -68 -204t-90 -137t-96.5 -77t-87.5 -24q-42 0 -63.5 22t-21.5 52q0 25 19.5 46.5t48.5 23.5q13 -14 26 -28.5t26 -26t25 -19t23 -7.5q9 0 17 4.5t16 19.5t16.5 43t18.5 75l94 442h-187l-54 -244q-27 -120 -69 -204t-89.5 -137
t-96 -77t-87.5 -24z" />
    <glyph glyph-name=".notdef" horiz-adv-x="636" 
d="M68 758h500v-758h-500v758zM318 396l217 343h-434zM87 30l221 349l-221 349v-698zM549 30v698l-220 -349zM535 19l-217 343l-217 -343h434z" />
    <glyph glyph-name="glyph1" horiz-adv-x="0" 
 />
    <glyph glyph-name="glyph2" horiz-adv-x="220" 
 />
    <glyph glyph-name="space" unicode=" " horiz-adv-x="220" 
 />
    <glyph glyph-name="comma" unicode="," horiz-adv-x="305" 
d="M-46 -156q28 14 52 33t41 40t27 42t10 41q0 62 -84 78q4 27 15 45.5t26.5 30.5t34 17.5t37.5 5.5q41 0 70 -26.5t29 -74.5q0 -32 -16.5 -68t-48 -72t-76.5 -68.5t-103 -56.5z" />
    <glyph glyph-name="hyphen" unicode="-" horiz-adv-x="418" 
d="M80 303h294l-28 -81h-294z" />
    <glyph glyph-name="period" unicode="." horiz-adv-x="286" 
d="M98 -13q-20 0 -37 7.5t-30 21t-20.5 31.5t-7.5 39q0 19 7.5 36.5t20.5 30.5t30 20.5t37 7.5q21 0 39 -7.5t31.5 -20.5t21 -30.5t7.5 -36.5q0 -42 -28.5 -70.5t-70.5 -28.5z" />
    <glyph glyph-name="slash" unicode="/" horiz-adv-x="526" 
d="M560 806h107l-622 -858h-107z" />
    <glyph glyph-name="zero" unicode="0" horiz-adv-x="676" 
d="M278 -13q-59 0 -100.5 21t-68 57t-39 83t-12.5 99q0 62 16.5 125.5t46 123t69 111t86.5 90t99 60.5t105 22q59 0 100.5 -21t68 -57t39 -83t12.5 -99q0 -62 -16.5 -125.5t-46 -123t-69 -111t-86.5 -90t-99 -60.5t-105 -22zM288 30q40 0 75.5 29.5t65.5 77.5t54 109.5
t40.5 125t25 123.5t8.5 106q0 63 -21 99t-66 36q-40 0 -75.5 -29.5t-65.5 -77.5t-54 -109.5t-40.5 -125t-25 -123.5t-8.5 -106q0 -63 21 -99t66 -36z" />
    <glyph glyph-name="A" unicode="A" horiz-adv-x="819" 
d="M-134 36l34 4q27 3 53 12.5t52 32.5l773 703h20l-145 -699q-6 -29 3.5 -37.5t35.5 -11.5l34 -4l-11 -36h-338l11 36l36 4q27 3 44.5 11.5t24.5 37.5l35 158h-271l-177 -162q-23 -21 -26 -32t23 -13l60 -4l-11 -36h-271zM541 306l55 251l-274 -251h219z" />
    <glyph glyph-name="A" unicode="&#x104;" horiz-adv-x="819" 
d="M-134 36l34 4q27 3 53 12.5t52 32.5l773 703h20l-145 -699q-6 -29 3.5 -37.5t35.5 -11.5l34 -4l-11 -36h-338l11 36l36 4q27 3 44.5 11.5t24.5 37.5l35 158h-271l-177 -162q-23 -21 -26 -32t23 -13l60 -4l-11 -36h-271zM541 306l55 251l-274 -251h219z" />
    <glyph glyph-name="A" unicode="&#x102;" horiz-adv-x="819" 
d="M-134 36l34 4q27 3 53 12.5t52 32.5l773 703h20l-145 -699q-6 -29 3.5 -37.5t35.5 -11.5l34 -4l-11 -36h-338l11 36l36 4q27 3 44.5 11.5t24.5 37.5l35 158h-271l-177 -162q-23 -21 -26 -32t23 -13l60 -4l-11 -36h-271zM541 306l55 251l-274 -251h219z" />
    <glyph glyph-name="A" unicode="&#x100;" horiz-adv-x="819" 
d="M-134 36l34 4q27 3 53 12.5t52 32.5l773 703h20l-145 -699q-6 -29 3.5 -37.5t35.5 -11.5l34 -4l-11 -36h-338l11 36l36 4q27 3 44.5 11.5t24.5 37.5l35 158h-271l-177 -162q-23 -21 -26 -32t23 -13l60 -4l-11 -36h-271zM541 306l55 251l-274 -251h219z" />
    <glyph glyph-name="A" unicode="&#xc6;" horiz-adv-x="819" 
d="M-134 36l34 4q27 3 53 12.5t52 32.5l773 703h20l-145 -699q-6 -29 3.5 -37.5t35.5 -11.5l34 -4l-11 -36h-338l11 36l36 4q27 3 44.5 11.5t24.5 37.5l35 158h-271l-177 -162q-23 -21 -26 -32t23 -13l60 -4l-11 -36h-271zM541 306l55 251l-274 -251h219z" />
    <glyph glyph-name="A" unicode="&#xc5;" horiz-adv-x="819" 
d="M-134 36l34 4q27 3 53 12.5t52 32.5l773 703h20l-145 -699q-6 -29 3.5 -37.5t35.5 -11.5l34 -4l-11 -36h-338l11 36l36 4q27 3 44.5 11.5t24.5 37.5l35 158h-271l-177 -162q-23 -21 -26 -32t23 -13l60 -4l-11 -36h-271zM541 306l55 251l-274 -251h219z" />
    <glyph glyph-name="A" unicode="&#xc4;" horiz-adv-x="819" 
d="M-134 36l34 4q27 3 53 12.5t52 32.5l773 703h20l-145 -699q-6 -29 3.5 -37.5t35.5 -11.5l34 -4l-11 -36h-338l11 36l36 4q27 3 44.5 11.5t24.5 37.5l35 158h-271l-177 -162q-23 -21 -26 -32t23 -13l60 -4l-11 -36h-271zM541 306l55 251l-274 -251h219z" />
    <glyph glyph-name="A" unicode="&#xc3;" horiz-adv-x="819" 
d="M-134 36l34 4q27 3 53 12.5t52 32.5l773 703h20l-145 -699q-6 -29 3.5 -37.5t35.5 -11.5l34 -4l-11 -36h-338l11 36l36 4q27 3 44.5 11.5t24.5 37.5l35 158h-271l-177 -162q-23 -21 -26 -32t23 -13l60 -4l-11 -36h-271zM541 306l55 251l-274 -251h219z" />
    <glyph glyph-name="A" unicode="&#xc2;" horiz-adv-x="819" 
d="M-134 36l34 4q27 3 53 12.5t52 32.5l773 703h20l-145 -699q-6 -29 3.5 -37.5t35.5 -11.5l34 -4l-11 -36h-338l11 36l36 4q27 3 44.5 11.5t24.5 37.5l35 158h-271l-177 -162q-23 -21 -26 -32t23 -13l60 -4l-11 -36h-271zM541 306l55 251l-274 -251h219z" />
    <glyph glyph-name="A" unicode="&#xc1;" horiz-adv-x="819" 
d="M-134 36l34 4q27 3 53 12.5t52 32.5l773 703h20l-145 -699q-6 -29 3.5 -37.5t35.5 -11.5l34 -4l-11 -36h-338l11 36l36 4q27 3 44.5 11.5t24.5 37.5l35 158h-271l-177 -162q-23 -21 -26 -32t23 -13l60 -4l-11 -36h-271zM541 306l55 251l-274 -251h219z" />
    <glyph glyph-name="A" unicode="&#xc0;" horiz-adv-x="819" 
d="M-134 36l34 4q27 3 53 12.5t52 32.5l773 703h20l-145 -699q-6 -29 3.5 -37.5t35.5 -11.5l34 -4l-11 -36h-338l11 36l36 4q27 3 44.5 11.5t24.5 37.5l35 158h-271l-177 -162q-23 -21 -26 -32t23 -13l60 -4l-11 -36h-271zM541 306l55 251l-274 -251h219z" />
    <glyph glyph-name="B" unicode="B" horiz-adv-x="766" 
d="M-21 36l36 4q27 3 43.5 11.5t25.5 37.5l178 580q9 29 -2.5 37.5t-36.5 11.5l-34 4l11 36h298q146 0 214.5 -32t66.5 -100q-1 -43 -22 -79t-59 -64t-90 -46.5t-115 -25.5v-2q48 -2 90.5 -12t75 -29.5t51.5 -48t19 -67.5q0 -49 -28.5 -94.5t-81.5 -80.5t-128 -56t-168 -21
h-355zM416 424q49 0 85.5 20t61 50.5t36.5 66t12 67.5q0 43 -24.5 64.5t-81.5 21.5h-70l-88 -290h69zM318 44q63 0 107 21t72.5 54t41.5 73t13 78q0 63 -38 86.5t-106 23.5h-75l-103 -336h88z" />
    <glyph glyph-name="C" unicode="C" horiz-adv-x="811" 
d="M433 -13q-73 0 -138.5 21.5t-114.5 62.5t-78 101t-29 137q0 99 45.5 184.5t120 149t170 100t194.5 36.5q73 0 140.5 -16.5t110.5 -45.5l-29 -235h-22l-62 177q-14 40 -40 57q-15 10 -37.5 13.5t-54.5 3.5q-70 0 -134 -33t-113.5 -93.5t-79 -145t-29.5 -186.5
q0 -54 10.5 -98.5t33.5 -76.5t59.5 -49.5t88.5 -17.5q25 0 45 2.5t40 12.5q9 5 19 12t20 18l199 203h22l-137 -263q-21 -5 -47.5 -10.5t-55 -10t-59 -7.5t-58.5 -3z" />
    <glyph glyph-name="C" unicode="&#x10c;" horiz-adv-x="811" 
d="M433 -13q-73 0 -138.5 21.5t-114.5 62.5t-78 101t-29 137q0 99 45.5 184.5t120 149t170 100t194.5 36.5q73 0 140.5 -16.5t110.5 -45.5l-29 -235h-22l-62 177q-14 40 -40 57q-15 10 -37.5 13.5t-54.5 3.5q-70 0 -134 -33t-113.5 -93.5t-79 -145t-29.5 -186.5
q0 -54 10.5 -98.5t33.5 -76.5t59.5 -49.5t88.5 -17.5q25 0 45 2.5t40 12.5q9 5 19 12t20 18l199 203h22l-137 -263q-21 -5 -47.5 -10.5t-55 -10t-59 -7.5t-58.5 -3z" />
    <glyph glyph-name="C" unicode="&#x10a;" horiz-adv-x="811" 
d="M433 -13q-73 0 -138.5 21.5t-114.5 62.5t-78 101t-29 137q0 99 45.5 184.5t120 149t170 100t194.5 36.5q73 0 140.5 -16.5t110.5 -45.5l-29 -235h-22l-62 177q-14 40 -40 57q-15 10 -37.5 13.5t-54.5 3.5q-70 0 -134 -33t-113.5 -93.5t-79 -145t-29.5 -186.5
q0 -54 10.5 -98.5t33.5 -76.5t59.5 -49.5t88.5 -17.5q25 0 45 2.5t40 12.5q9 5 19 12t20 18l199 203h22l-137 -263q-21 -5 -47.5 -10.5t-55 -10t-59 -7.5t-58.5 -3z" />
    <glyph glyph-name="C" unicode="&#x108;" horiz-adv-x="811" 
d="M433 -13q-73 0 -138.5 21.5t-114.5 62.5t-78 101t-29 137q0 99 45.5 184.5t120 149t170 100t194.5 36.5q73 0 140.5 -16.5t110.5 -45.5l-29 -235h-22l-62 177q-14 40 -40 57q-15 10 -37.5 13.5t-54.5 3.5q-70 0 -134 -33t-113.5 -93.5t-79 -145t-29.5 -186.5
q0 -54 10.5 -98.5t33.5 -76.5t59.5 -49.5t88.5 -17.5q25 0 45 2.5t40 12.5q9 5 19 12t20 18l199 203h22l-137 -263q-21 -5 -47.5 -10.5t-55 -10t-59 -7.5t-58.5 -3z" />
    <glyph glyph-name="C" unicode="&#x106;" horiz-adv-x="811" 
d="M433 -13q-73 0 -138.5 21.5t-114.5 62.5t-78 101t-29 137q0 99 45.5 184.5t120 149t170 100t194.5 36.5q73 0 140.5 -16.5t110.5 -45.5l-29 -235h-22l-62 177q-14 40 -40 57q-15 10 -37.5 13.5t-54.5 3.5q-70 0 -134 -33t-113.5 -93.5t-79 -145t-29.5 -186.5
q0 -54 10.5 -98.5t33.5 -76.5t59.5 -49.5t88.5 -17.5q25 0 45 2.5t40 12.5q9 5 19 12t20 18l199 203h22l-137 -263q-21 -5 -47.5 -10.5t-55 -10t-59 -7.5t-58.5 -3z" />
    <glyph glyph-name="C" unicode="&#xc7;" horiz-adv-x="811" 
d="M433 -13q-73 0 -138.5 21.5t-114.5 62.5t-78 101t-29 137q0 99 45.5 184.5t120 149t170 100t194.5 36.5q73 0 140.5 -16.5t110.5 -45.5l-29 -235h-22l-62 177q-14 40 -40 57q-15 10 -37.5 13.5t-54.5 3.5q-70 0 -134 -33t-113.5 -93.5t-79 -145t-29.5 -186.5
q0 -54 10.5 -98.5t33.5 -76.5t59.5 -49.5t88.5 -17.5q25 0 45 2.5t40 12.5q9 5 19 12t20 18l199 203h22l-137 -263q-21 -5 -47.5 -10.5t-55 -10t-59 -7.5t-58.5 -3z" />
    <glyph glyph-name="D" unicode="D" horiz-adv-x="858" 
d="M-21 36l36 4q27 3 43.5 11.5t25.5 37.5l178 580q9 29 -2.5 37.5t-36.5 11.5l-34 4l11 36h258q205 0 309 -73t104 -209q0 -93 -42.5 -179t-119 -152t-183.5 -105.5t-236 -39.5h-322zM299 44q96 0 170 39.5t124 104t75.5 147t25.5 167.5q0 103 -55.5 157.5t-171.5 54.5h-32
l-205 -670h69z" />
    <glyph glyph-name="D" unicode="&#x110;" horiz-adv-x="858" 
d="M-21 36l36 4q27 3 43.5 11.5t25.5 37.5l178 580q9 29 -2.5 37.5t-36.5 11.5l-34 4l11 36h258q205 0 309 -73t104 -209q0 -93 -42.5 -179t-119 -152t-183.5 -105.5t-236 -39.5h-322zM299 44q96 0 170 39.5t124 104t75.5 147t25.5 167.5q0 103 -55.5 157.5t-171.5 54.5h-32
l-205 -670h69z" />
    <glyph glyph-name="D" unicode="&#x10e;" horiz-adv-x="858" 
d="M-21 36l36 4q27 3 43.5 11.5t25.5 37.5l178 580q9 29 -2.5 37.5t-36.5 11.5l-34 4l11 36h258q205 0 309 -73t104 -209q0 -93 -42.5 -179t-119 -152t-183.5 -105.5t-236 -39.5h-322zM299 44q96 0 170 39.5t124 104t75.5 147t25.5 167.5q0 103 -55.5 157.5t-171.5 54.5h-32
l-205 -670h69z" />
    <glyph glyph-name="D" unicode="&#xd0;" horiz-adv-x="858" 
d="M-21 36l36 4q27 3 43.5 11.5t25.5 37.5l178 580q9 29 -2.5 37.5t-36.5 11.5l-34 4l11 36h258q205 0 309 -73t104 -209q0 -93 -42.5 -179t-119 -152t-183.5 -105.5t-236 -39.5h-322zM299 44q96 0 170 39.5t124 104t75.5 147t25.5 167.5q0 103 -55.5 157.5t-171.5 54.5h-32
l-205 -670h69z" />
    <glyph glyph-name="E" unicode="E" horiz-adv-x="770" 
d="M-21 36l36 4q27 3 43.5 11.5t25.5 37.5l178 580q9 29 -2.5 37.5t-36.5 11.5l-34 4l11 36h576l-46 -271h-22l-70 207q-4 12 -9.5 15t-21.5 3h-172l-90 -293h116q12 0 20 11l89 131h22l-103 -336h-22l-8 131q0 11 -14 11h-116l-98 -321h225q13 0 18.5 3t16.5 11l251 211h22
l-151 -271h-645z" />
    <glyph glyph-name="E" unicode="&#x11a;" horiz-adv-x="770" 
d="M-21 36l36 4q27 3 43.5 11.5t25.5 37.5l178 580q9 29 -2.5 37.5t-36.5 11.5l-34 4l11 36h576l-46 -271h-22l-70 207q-4 12 -9.5 15t-21.5 3h-172l-90 -293h116q12 0 20 11l89 131h22l-103 -336h-22l-8 131q0 11 -14 11h-116l-98 -321h225q13 0 18.5 3t16.5 11l251 211h22
l-151 -271h-645z" />
    <glyph glyph-name="E" unicode="&#x118;" horiz-adv-x="770" 
d="M-21 36l36 4q27 3 43.5 11.5t25.5 37.5l178 580q9 29 -2.5 37.5t-36.5 11.5l-34 4l11 36h576l-46 -271h-22l-70 207q-4 12 -9.5 15t-21.5 3h-172l-90 -293h116q12 0 20 11l89 131h22l-103 -336h-22l-8 131q0 11 -14 11h-116l-98 -321h225q13 0 18.5 3t16.5 11l251 211h22
l-151 -271h-645z" />
    <glyph glyph-name="E" unicode="&#x116;" horiz-adv-x="770" 
d="M-21 36l36 4q27 3 43.5 11.5t25.5 37.5l178 580q9 29 -2.5 37.5t-36.5 11.5l-34 4l11 36h576l-46 -271h-22l-70 207q-4 12 -9.5 15t-21.5 3h-172l-90 -293h116q12 0 20 11l89 131h22l-103 -336h-22l-8 131q0 11 -14 11h-116l-98 -321h225q13 0 18.5 3t16.5 11l251 211h22
l-151 -271h-645z" />
    <glyph glyph-name="E" unicode="&#x114;" horiz-adv-x="770" 
d="M-21 36l36 4q27 3 43.5 11.5t25.5 37.5l178 580q9 29 -2.5 37.5t-36.5 11.5l-34 4l11 36h576l-46 -271h-22l-70 207q-4 12 -9.5 15t-21.5 3h-172l-90 -293h116q12 0 20 11l89 131h22l-103 -336h-22l-8 131q0 11 -14 11h-116l-98 -321h225q13 0 18.5 3t16.5 11l251 211h22
l-151 -271h-645z" />
    <glyph glyph-name="E" unicode="&#x112;" horiz-adv-x="770" 
d="M-21 36l36 4q27 3 43.5 11.5t25.5 37.5l178 580q9 29 -2.5 37.5t-36.5 11.5l-34 4l11 36h576l-46 -271h-22l-70 207q-4 12 -9.5 15t-21.5 3h-172l-90 -293h116q12 0 20 11l89 131h22l-103 -336h-22l-8 131q0 11 -14 11h-116l-98 -321h225q13 0 18.5 3t16.5 11l251 211h22
l-151 -271h-645z" />
    <glyph glyph-name="E" unicode="&#xcb;" horiz-adv-x="770" 
d="M-21 36l36 4q27 3 43.5 11.5t25.5 37.5l178 580q9 29 -2.5 37.5t-36.5 11.5l-34 4l11 36h576l-46 -271h-22l-70 207q-4 12 -9.5 15t-21.5 3h-172l-90 -293h116q12 0 20 11l89 131h22l-103 -336h-22l-8 131q0 11 -14 11h-116l-98 -321h225q13 0 18.5 3t16.5 11l251 211h22
l-151 -271h-645z" />
    <glyph glyph-name="E" unicode="&#xca;" horiz-adv-x="770" 
d="M-21 36l36 4q27 3 43.5 11.5t25.5 37.5l178 580q9 29 -2.5 37.5t-36.5 11.5l-34 4l11 36h576l-46 -271h-22l-70 207q-4 12 -9.5 15t-21.5 3h-172l-90 -293h116q12 0 20 11l89 131h22l-103 -336h-22l-8 131q0 11 -14 11h-116l-98 -321h225q13 0 18.5 3t16.5 11l251 211h22
l-151 -271h-645z" />
    <glyph glyph-name="E" unicode="&#xc9;" horiz-adv-x="770" 
d="M-21 36l36 4q27 3 43.5 11.5t25.5 37.5l178 580q9 29 -2.5 37.5t-36.5 11.5l-34 4l11 36h576l-46 -271h-22l-70 207q-4 12 -9.5 15t-21.5 3h-172l-90 -293h116q12 0 20 11l89 131h22l-103 -336h-22l-8 131q0 11 -14 11h-116l-98 -321h225q13 0 18.5 3t16.5 11l251 211h22
l-151 -271h-645z" />
    <glyph glyph-name="E" unicode="&#xc8;" horiz-adv-x="770" 
d="M-21 36l36 4q27 3 43.5 11.5t25.5 37.5l178 580q9 29 -2.5 37.5t-36.5 11.5l-34 4l11 36h576l-46 -271h-22l-70 207q-4 12 -9.5 15t-21.5 3h-172l-90 -293h116q12 0 20 11l89 131h22l-103 -336h-22l-8 131q0 11 -14 11h-116l-98 -321h225q13 0 18.5 3t16.5 11l251 211h22
l-151 -271h-645z" />
    <glyph glyph-name="F" unicode="F" horiz-adv-x="729" 
d="M-21 36l36 4q27 3 43.5 11.5t25.5 37.5l178 580q9 29 -2.5 37.5t-36.5 11.5l-34 4l11 36h628l-46 -271h-22l-70 207q-4 12 -9.5 15t-21.5 3h-224l-90 -293h130q12 0 20 11l89 131h22l-103 -336h-22l-8 131q0 11 -14 11h-130l-85 -278q-9 -29 2.5 -37.5t37.5 -9.5l69 -4
l-12 -38h-373z" />
    <glyph glyph-name="G" unicode="G" horiz-adv-x="874" 
d="M429 -13q-72 0 -136.5 21.5t-113 62.5t-77.5 101t-29 137q0 99 45.5 184.5t120 149t170 100t194.5 36.5q73 0 140.5 -16.5t110.5 -45.5l-29 -235h-22l-62 177q-14 40 -40 57q-15 10 -40.5 13.5t-54.5 3.5q-69 0 -132.5 -33t-112.5 -93.5t-78.5 -145t-29.5 -186.5
q0 -54 10.5 -98t33.5 -75.5t59 -49t87 -17.5q23 0 48 4.5t52 18.5l76 202q11 29 0.5 37.5t-36.5 10.5l-90 4l15 41h394l-16 -45h-89l-76 -202l-18 -71q-48 -2 -83 -10t-65 -16.5t-59.5 -15t-66.5 -6.5z" />
    <glyph glyph-name="G" unicode="&#x122;" horiz-adv-x="874" 
d="M429 -13q-72 0 -136.5 21.5t-113 62.5t-77.5 101t-29 137q0 99 45.5 184.5t120 149t170 100t194.5 36.5q73 0 140.5 -16.5t110.5 -45.5l-29 -235h-22l-62 177q-14 40 -40 57q-15 10 -40.5 13.5t-54.5 3.5q-69 0 -132.5 -33t-112.5 -93.5t-78.5 -145t-29.5 -186.5
q0 -54 10.5 -98t33.5 -75.5t59 -49t87 -17.5q23 0 48 4.5t52 18.5l76 202q11 29 0.5 37.5t-36.5 10.5l-90 4l15 41h394l-16 -45h-89l-76 -202l-18 -71q-48 -2 -83 -10t-65 -16.5t-59.5 -15t-66.5 -6.5z" />
    <glyph glyph-name="G" unicode="&#x120;" horiz-adv-x="874" 
d="M429 -13q-72 0 -136.5 21.5t-113 62.5t-77.5 101t-29 137q0 99 45.5 184.5t120 149t170 100t194.5 36.5q73 0 140.5 -16.5t110.5 -45.5l-29 -235h-22l-62 177q-14 40 -40 57q-15 10 -40.5 13.5t-54.5 3.5q-69 0 -132.5 -33t-112.5 -93.5t-78.5 -145t-29.5 -186.5
q0 -54 10.5 -98t33.5 -75.5t59 -49t87 -17.5q23 0 48 4.5t52 18.5l76 202q11 29 0.5 37.5t-36.5 10.5l-90 4l15 41h394l-16 -45h-89l-76 -202l-18 -71q-48 -2 -83 -10t-65 -16.5t-59.5 -15t-66.5 -6.5z" />
    <glyph glyph-name="G" unicode="&#x11e;" horiz-adv-x="874" 
d="M429 -13q-72 0 -136.5 21.5t-113 62.5t-77.5 101t-29 137q0 99 45.5 184.5t120 149t170 100t194.5 36.5q73 0 140.5 -16.5t110.5 -45.5l-29 -235h-22l-62 177q-14 40 -40 57q-15 10 -40.5 13.5t-54.5 3.5q-69 0 -132.5 -33t-112.5 -93.5t-78.5 -145t-29.5 -186.5
q0 -54 10.5 -98t33.5 -75.5t59 -49t87 -17.5q23 0 48 4.5t52 18.5l76 202q11 29 0.5 37.5t-36.5 10.5l-90 4l15 41h394l-16 -45h-89l-76 -202l-18 -71q-48 -2 -83 -10t-65 -16.5t-59.5 -15t-66.5 -6.5z" />
    <glyph glyph-name="G" unicode="&#x11c;" horiz-adv-x="874" 
d="M429 -13q-72 0 -136.5 21.5t-113 62.5t-77.5 101t-29 137q0 99 45.5 184.5t120 149t170 100t194.5 36.5q73 0 140.5 -16.5t110.5 -45.5l-29 -235h-22l-62 177q-14 40 -40 57q-15 10 -40.5 13.5t-54.5 3.5q-69 0 -132.5 -33t-112.5 -93.5t-78.5 -145t-29.5 -186.5
q0 -54 10.5 -98t33.5 -75.5t59 -49t87 -17.5q23 0 48 4.5t52 18.5l76 202q11 29 0.5 37.5t-36.5 10.5l-90 4l15 41h394l-16 -45h-89l-76 -202l-18 -71q-48 -2 -83 -10t-65 -16.5t-59.5 -15t-66.5 -6.5z" />
    <glyph glyph-name="H" unicode="H" horiz-adv-x="907" 
d="M-21 36l36 4q27 3 43.5 11.5t25.5 37.5l178 580q9 29 -2.5 37.5t-36.5 11.5l-34 4l11 36h338l-11 -36l-36 -4q-28 -3 -44 -11.5t-25 -37.5l-74 -242h321l74 242q9 29 -2.5 37.5t-36.5 11.5l-34 4l11 36h338l-11 -36l-36 -4q-28 -3 -44 -11.5t-25 -37.5l-178 -580
q-9 -29 2 -37.5t37 -11.5l34 -4l-11 -36h-338l11 36l36 4q27 3 43.5 11.5t25.5 37.5l86 279h-321l-86 -279q-9 -29 2 -37.5t37 -11.5l34 -4l-11 -36h-338z" />
    <glyph glyph-name="H" unicode="&#x126;" horiz-adv-x="907" 
d="M-21 36l36 4q27 3 43.5 11.5t25.5 37.5l178 580q9 29 -2.5 37.5t-36.5 11.5l-34 4l11 36h338l-11 -36l-36 -4q-28 -3 -44 -11.5t-25 -37.5l-74 -242h321l74 242q9 29 -2.5 37.5t-36.5 11.5l-34 4l11 36h338l-11 -36l-36 -4q-28 -3 -44 -11.5t-25 -37.5l-178 -580
q-9 -29 2 -37.5t37 -11.5l34 -4l-11 -36h-338l11 36l36 4q27 3 43.5 11.5t25.5 37.5l86 279h-321l-86 -279q-9 -29 2 -37.5t37 -11.5l34 -4l-11 -36h-338z" />
    <glyph glyph-name="H" unicode="&#x124;" horiz-adv-x="907" 
d="M-21 36l36 4q27 3 43.5 11.5t25.5 37.5l178 580q9 29 -2.5 37.5t-36.5 11.5l-34 4l11 36h338l-11 -36l-36 -4q-28 -3 -44 -11.5t-25 -37.5l-74 -242h321l74 242q9 29 -2.5 37.5t-36.5 11.5l-34 4l11 36h338l-11 -36l-36 -4q-28 -3 -44 -11.5t-25 -37.5l-178 -580
q-9 -29 2 -37.5t37 -11.5l34 -4l-11 -36h-338l11 36l36 4q27 3 43.5 11.5t25.5 37.5l86 279h-321l-86 -279q-9 -29 2 -37.5t37 -11.5l34 -4l-11 -36h-338z" />
    <glyph glyph-name="I" unicode="I" horiz-adv-x="426" 
d="M-21 36l36 4q27 3 43.5 11.5t25.5 37.5l178 580q9 29 -2.5 37.5t-36.5 11.5l-34 4l11 36h338l-11 -36l-36 -4q-28 -3 -44 -11.5t-25 -37.5l-178 -580q-9 -29 2 -37.5t37 -11.5l34 -4l-11 -36h-338z" />
    <glyph glyph-name="I" unicode="&#x1eca;" horiz-adv-x="426" 
d="M-21 36l36 4q27 3 43.5 11.5t25.5 37.5l178 580q9 29 -2.5 37.5t-36.5 11.5l-34 4l11 36h338l-11 -36l-36 -4q-28 -3 -44 -11.5t-25 -37.5l-178 -580q-9 -29 2 -37.5t37 -11.5l34 -4l-11 -36h-338z" />
    <glyph glyph-name="I" unicode="&#x130;" horiz-adv-x="426" 
d="M-21 36l36 4q27 3 43.5 11.5t25.5 37.5l178 580q9 29 -2.5 37.5t-36.5 11.5l-34 4l11 36h338l-11 -36l-36 -4q-28 -3 -44 -11.5t-25 -37.5l-178 -580q-9 -29 2 -37.5t37 -11.5l34 -4l-11 -36h-338z" />
    <glyph glyph-name="I" unicode="&#x12e;" horiz-adv-x="426" 
d="M-21 36l36 4q27 3 43.5 11.5t25.5 37.5l178 580q9 29 -2.5 37.5t-36.5 11.5l-34 4l11 36h338l-11 -36l-36 -4q-28 -3 -44 -11.5t-25 -37.5l-178 -580q-9 -29 2 -37.5t37 -11.5l34 -4l-11 -36h-338z" />
    <glyph glyph-name="I" unicode="&#x12c;" horiz-adv-x="426" 
d="M-21 36l36 4q27 3 43.5 11.5t25.5 37.5l178 580q9 29 -2.5 37.5t-36.5 11.5l-34 4l11 36h338l-11 -36l-36 -4q-28 -3 -44 -11.5t-25 -37.5l-178 -580q-9 -29 2 -37.5t37 -11.5l34 -4l-11 -36h-338z" />
    <glyph glyph-name="I" unicode="&#x12a;" horiz-adv-x="426" 
d="M-21 36l36 4q27 3 43.5 11.5t25.5 37.5l178 580q9 29 -2.5 37.5t-36.5 11.5l-34 4l11 36h338l-11 -36l-36 -4q-28 -3 -44 -11.5t-25 -37.5l-178 -580q-9 -29 2 -37.5t37 -11.5l34 -4l-11 -36h-338z" />
    <glyph glyph-name="I" unicode="&#x128;" horiz-adv-x="426" 
d="M-21 36l36 4q27 3 43.5 11.5t25.5 37.5l178 580q9 29 -2.5 37.5t-36.5 11.5l-34 4l11 36h338l-11 -36l-36 -4q-28 -3 -44 -11.5t-25 -37.5l-178 -580q-9 -29 2 -37.5t37 -11.5l34 -4l-11 -36h-338z" />
    <glyph glyph-name="I" unicode="&#xcf;" horiz-adv-x="426" 
d="M-21 36l36 4q27 3 43.5 11.5t25.5 37.5l178 580q9 29 -2.5 37.5t-36.5 11.5l-34 4l11 36h338l-11 -36l-36 -4q-28 -3 -44 -11.5t-25 -37.5l-178 -580q-9 -29 2 -37.5t37 -11.5l34 -4l-11 -36h-338z" />
    <glyph glyph-name="I" unicode="&#xce;" horiz-adv-x="426" 
d="M-21 36l36 4q27 3 43.5 11.5t25.5 37.5l178 580q9 29 -2.5 37.5t-36.5 11.5l-34 4l11 36h338l-11 -36l-36 -4q-28 -3 -44 -11.5t-25 -37.5l-178 -580q-9 -29 2 -37.5t37 -11.5l34 -4l-11 -36h-338z" />
    <glyph glyph-name="I" unicode="&#xcd;" horiz-adv-x="426" 
d="M-21 36l36 4q27 3 43.5 11.5t25.5 37.5l178 580q9 29 -2.5 37.5t-36.5 11.5l-34 4l11 36h338l-11 -36l-36 -4q-28 -3 -44 -11.5t-25 -37.5l-178 -580q-9 -29 2 -37.5t37 -11.5l34 -4l-11 -36h-338z" />
    <glyph glyph-name="I" unicode="&#xcc;" horiz-adv-x="426" 
d="M-21 36l36 4q27 3 43.5 11.5t25.5 37.5l178 580q9 29 -2.5 37.5t-36.5 11.5l-34 4l11 36h338l-11 -36l-36 -4q-28 -3 -44 -11.5t-25 -37.5l-178 -580q-9 -29 2 -37.5t37 -11.5l34 -4l-11 -36h-338z" />
    <glyph glyph-name="J" unicode="J" horiz-adv-x="424" 
d="M-107 -68q59 36 96.5 60.5t61.5 49.5t39 55.5t30 78.5l152 497q8 28 -2.5 34t-36.5 8l-43 2l13 41h350l-13 -41l-43 -2q-27 -2 -42 -8t-23 -34l-141 -459q-12 -41 -25.5 -70t-31.5 -52t-43.5 -42.5t-61.5 -40.5q-17 -10 -44 -23.5l-58 -29t-61.5 -30.5t-54.5 -28z" />
    <glyph glyph-name="J" unicode="&#x134;" horiz-adv-x="424" 
d="M-107 -68q59 36 96.5 60.5t61.5 49.5t39 55.5t30 78.5l152 497q8 28 -2.5 34t-36.5 8l-43 2l13 41h350l-13 -41l-43 -2q-27 -2 -42 -8t-23 -34l-141 -459q-12 -41 -25.5 -70t-31.5 -52t-43.5 -42.5t-61.5 -40.5q-17 -10 -44 -23.5l-58 -29t-61.5 -30.5t-54.5 -28z" />
    <glyph glyph-name="K" unicode="K" horiz-adv-x="855" 
d="M-21 36l36 4q27 3 43.5 11.5t25.5 37.5l178 580q9 29 -2.5 37.5t-36.5 11.5l-34 4l11 36h338l-11 -36l-36 -4q-28 -3 -44 -11.5t-25 -37.5l-91 -295l433 314q14 11 13 19.5t-23 10.5l-72 4l11 36h306l-11 -36l-52 -3q-33 -2 -55 -10.5t-45 -25.5l-354 -256l321 -427h-195
l-279 366l-85 -277q-9 -29 2 -37.5t37 -11.5l34 -4l-11 -36h-338z" />
    <glyph glyph-name="K" unicode="&#x136;" horiz-adv-x="855" 
d="M-21 36l36 4q27 3 43.5 11.5t25.5 37.5l178 580q9 29 -2.5 37.5t-36.5 11.5l-34 4l11 36h338l-11 -36l-36 -4q-28 -3 -44 -11.5t-25 -37.5l-91 -295l433 314q14 11 13 19.5t-23 10.5l-72 4l11 36h306l-11 -36l-52 -3q-33 -2 -55 -10.5t-45 -25.5l-354 -256l321 -427h-195
l-279 366l-85 -277q-9 -29 2 -37.5t37 -11.5l34 -4l-11 -36h-338z" />
    <glyph glyph-name="L" unicode="L" horiz-adv-x="724" 
d="M-21 36l36 4q27 3 43.5 11.5t25.5 37.5l178 580q9 29 -2.5 37.5t-36.5 11.5l-34 4l11 36h338l-11 -36l-36 -4q-28 -3 -44 -11.5t-25 -37.5l-191 -623h185q14 0 19 3t16 11l251 211h22l-151 -271h-605z" />
    <glyph glyph-name="L" unicode="&#x141;" horiz-adv-x="724" 
d="M-21 36l36 4q27 3 43.5 11.5t25.5 37.5l178 580q9 29 -2.5 37.5t-36.5 11.5l-34 4l11 36h338l-11 -36l-36 -4q-28 -3 -44 -11.5t-25 -37.5l-191 -623h185q14 0 19 3t16 11l251 211h22l-151 -271h-605z" />
    <glyph glyph-name="L" unicode="&#x13f;" horiz-adv-x="724" 
d="M-21 36l36 4q27 3 43.5 11.5t25.5 37.5l178 580q9 29 -2.5 37.5t-36.5 11.5l-34 4l11 36h338l-11 -36l-36 -4q-28 -3 -44 -11.5t-25 -37.5l-191 -623h185q14 0 19 3t16 11l251 211h22l-151 -271h-605z" />
    <glyph glyph-name="L" unicode="&#x13d;" horiz-adv-x="724" 
d="M-21 36l36 4q27 3 43.5 11.5t25.5 37.5l178 580q9 29 -2.5 37.5t-36.5 11.5l-34 4l11 36h338l-11 -36l-36 -4q-28 -3 -44 -11.5t-25 -37.5l-191 -623h185q14 0 19 3t16 11l251 211h22l-151 -271h-605z" />
    <glyph glyph-name="L" unicode="&#x13b;" horiz-adv-x="724" 
d="M-21 36l36 4q27 3 43.5 11.5t25.5 37.5l178 580q9 29 -2.5 37.5t-36.5 11.5l-34 4l11 36h338l-11 -36l-36 -4q-28 -3 -44 -11.5t-25 -37.5l-191 -623h185q14 0 19 3t16 11l251 211h22l-151 -271h-605z" />
    <glyph glyph-name="L" unicode="&#x139;" horiz-adv-x="724" 
d="M-21 36l36 4q27 3 43.5 11.5t25.5 37.5l178 580q9 29 -2.5 37.5t-36.5 11.5l-34 4l11 36h338l-11 -36l-36 -4q-28 -3 -44 -11.5t-25 -37.5l-191 -623h185q14 0 19 3t16 11l251 211h22l-151 -271h-605z" />
    <glyph glyph-name="M" unicode="M" horiz-adv-x="1039" 
d="M-21 36l36 4q27 3 43.5 11.5t25.5 37.5l178 580q9 29 -2.5 37.5t-36.5 11.5l-34 4l11 36h274l71 -416l319 416h287l-11 -36l-36 -4q-28 -3 -44 -11.5t-25 -37.5l-178 -580q-9 -29 2 -37.5t37 -11.5l34 -4l-11 -36h-338l11 36l36 4q27 3 43.5 11.5t25.5 37.5l186 609
l-452 -589h-6l-100 586l-185 -606q-9 -29 2 -37.5t37 -11.5l34 -4l-11 -36h-234z" />
    <glyph glyph-name="N" unicode="N" horiz-adv-x="877" 
d="M312 651l-173 -562q-9 -29 2 -37.5t37 -11.5l34 -4l-11 -36h-234l11 36l36 4q27 3 43.5 11.5t25.5 37.5l179 580q9 29 -2.5 37.5t-36.5 11.5l-34 4l11 36h235l265 -497l127 408q9 29 -2.5 37.5t-36.5 11.5l-34 4l11 36h234l-11 -36l-36 -4q-28 -3 -44 -11.5t-25 -37.5
l-210 -686h-4z" />
    <glyph glyph-name="N" unicode="&#x14a;" horiz-adv-x="877" 
d="M312 651l-173 -562q-9 -29 2 -37.5t37 -11.5l34 -4l-11 -36h-234l11 36l36 4q27 3 43.5 11.5t25.5 37.5l179 580q9 29 -2.5 37.5t-36.5 11.5l-34 4l11 36h235l265 -497l127 408q9 29 -2.5 37.5t-36.5 11.5l-34 4l11 36h234l-11 -36l-36 -4q-28 -3 -44 -11.5t-25 -37.5
l-210 -686h-4z" />
    <glyph glyph-name="N" unicode="&#x147;" horiz-adv-x="877" 
d="M312 651l-173 -562q-9 -29 2 -37.5t37 -11.5l34 -4l-11 -36h-234l11 36l36 4q27 3 43.5 11.5t25.5 37.5l179 580q9 29 -2.5 37.5t-36.5 11.5l-34 4l11 36h235l265 -497l127 408q9 29 -2.5 37.5t-36.5 11.5l-34 4l11 36h234l-11 -36l-36 -4q-28 -3 -44 -11.5t-25 -37.5
l-210 -686h-4z" />
    <glyph glyph-name="N" unicode="&#x145;" horiz-adv-x="877" 
d="M312 651l-173 -562q-9 -29 2 -37.5t37 -11.5l34 -4l-11 -36h-234l11 36l36 4q27 3 43.5 11.5t25.5 37.5l179 580q9 29 -2.5 37.5t-36.5 11.5l-34 4l11 36h235l265 -497l127 408q9 29 -2.5 37.5t-36.5 11.5l-34 4l11 36h234l-11 -36l-36 -4q-28 -3 -44 -11.5t-25 -37.5
l-210 -686h-4z" />
    <glyph glyph-name="N" unicode="&#x143;" horiz-adv-x="877" 
d="M312 651l-173 -562q-9 -29 2 -37.5t37 -11.5l34 -4l-11 -36h-234l11 36l36 4q27 3 43.5 11.5t25.5 37.5l179 580q9 29 -2.5 37.5t-36.5 11.5l-34 4l11 36h235l265 -497l127 408q9 29 -2.5 37.5t-36.5 11.5l-34 4l11 36h234l-11 -36l-36 -4q-28 -3 -44 -11.5t-25 -37.5
l-210 -686h-4z" />
    <glyph glyph-name="N" unicode="&#xd1;" horiz-adv-x="877" 
d="M312 651l-173 -562q-9 -29 2 -37.5t37 -11.5l34 -4l-11 -36h-234l11 36l36 4q27 3 43.5 11.5t25.5 37.5l179 580q9 29 -2.5 37.5t-36.5 11.5l-34 4l11 36h235l265 -497l127 408q9 29 -2.5 37.5t-36.5 11.5l-34 4l11 36h234l-11 -36l-36 -4q-28 -3 -44 -11.5t-25 -37.5
l-210 -686h-4z" />
    <glyph glyph-name="O" unicode="O" horiz-adv-x="878" 
d="M368 -13q-64 0 -119.5 18t-97 53.5t-65.5 87.5t-24 120q0 56 17.5 115.5t50.5 116.5t80 108t106.5 89.5t129 61t148.5 22.5q64 0 119.5 -18t96.5 -53.5t65 -87.5t24 -120q0 -56 -17.5 -115.5t-50.5 -116.5t-80 -108t-106 -89.5t-129 -61t-148 -22.5zM398 29
q60 0 117 35.5t101.5 97.5t71 147.5t26.5 184.5q0 52 -7.5 96.5t-24.5 77t-46 51t-72 18.5q-60 0 -117 -35.5t-101.5 -97.5t-71 -147.5t-26.5 -184.5q0 -52 7.5 -96.5t24.5 -77t46 -51t72 -18.5z" />
    <glyph glyph-name="O" unicode="&#x1ecc;" horiz-adv-x="878" 
d="M368 -13q-64 0 -119.5 18t-97 53.5t-65.5 87.5t-24 120q0 56 17.5 115.5t50.5 116.5t80 108t106.5 89.5t129 61t148.5 22.5q64 0 119.5 -18t96.5 -53.5t65 -87.5t24 -120q0 -56 -17.5 -115.5t-50.5 -116.5t-80 -108t-106 -89.5t-129 -61t-148 -22.5zM398 29
q60 0 117 35.5t101.5 97.5t71 147.5t26.5 184.5q0 52 -7.5 96.5t-24.5 77t-46 51t-72 18.5q-60 0 -117 -35.5t-101.5 -97.5t-71 -147.5t-26.5 -184.5q0 -52 7.5 -96.5t24.5 -77t46 -51t72 -18.5z" />
    <glyph glyph-name="O" unicode="&#x152;" horiz-adv-x="878" 
d="M368 -13q-64 0 -119.5 18t-97 53.5t-65.5 87.5t-24 120q0 56 17.5 115.5t50.5 116.5t80 108t106.5 89.5t129 61t148.5 22.5q64 0 119.5 -18t96.5 -53.5t65 -87.5t24 -120q0 -56 -17.5 -115.5t-50.5 -116.5t-80 -108t-106 -89.5t-129 -61t-148 -22.5zM398 29
q60 0 117 35.5t101.5 97.5t71 147.5t26.5 184.5q0 52 -7.5 96.5t-24.5 77t-46 51t-72 18.5q-60 0 -117 -35.5t-101.5 -97.5t-71 -147.5t-26.5 -184.5q0 -52 7.5 -96.5t24.5 -77t46 -51t72 -18.5z" />
    <glyph glyph-name="O" unicode="&#x150;" horiz-adv-x="878" 
d="M368 -13q-64 0 -119.5 18t-97 53.5t-65.5 87.5t-24 120q0 56 17.5 115.5t50.5 116.5t80 108t106.5 89.5t129 61t148.5 22.5q64 0 119.5 -18t96.5 -53.5t65 -87.5t24 -120q0 -56 -17.5 -115.5t-50.5 -116.5t-80 -108t-106 -89.5t-129 -61t-148 -22.5zM398 29
q60 0 117 35.5t101.5 97.5t71 147.5t26.5 184.5q0 52 -7.5 96.5t-24.5 77t-46 51t-72 18.5q-60 0 -117 -35.5t-101.5 -97.5t-71 -147.5t-26.5 -184.5q0 -52 7.5 -96.5t24.5 -77t46 -51t72 -18.5z" />
    <glyph glyph-name="O" unicode="&#x14e;" horiz-adv-x="878" 
d="M368 -13q-64 0 -119.5 18t-97 53.5t-65.5 87.5t-24 120q0 56 17.5 115.5t50.5 116.5t80 108t106.5 89.5t129 61t148.5 22.5q64 0 119.5 -18t96.5 -53.5t65 -87.5t24 -120q0 -56 -17.5 -115.5t-50.5 -116.5t-80 -108t-106 -89.5t-129 -61t-148 -22.5zM398 29
q60 0 117 35.5t101.5 97.5t71 147.5t26.5 184.5q0 52 -7.5 96.5t-24.5 77t-46 51t-72 18.5q-60 0 -117 -35.5t-101.5 -97.5t-71 -147.5t-26.5 -184.5q0 -52 7.5 -96.5t24.5 -77t46 -51t72 -18.5z" />
    <glyph glyph-name="O" unicode="&#x14c;" horiz-adv-x="878" 
d="M368 -13q-64 0 -119.5 18t-97 53.5t-65.5 87.5t-24 120q0 56 17.5 115.5t50.5 116.5t80 108t106.5 89.5t129 61t148.5 22.5q64 0 119.5 -18t96.5 -53.5t65 -87.5t24 -120q0 -56 -17.5 -115.5t-50.5 -116.5t-80 -108t-106 -89.5t-129 -61t-148 -22.5zM398 29
q60 0 117 35.5t101.5 97.5t71 147.5t26.5 184.5q0 52 -7.5 96.5t-24.5 77t-46 51t-72 18.5q-60 0 -117 -35.5t-101.5 -97.5t-71 -147.5t-26.5 -184.5q0 -52 7.5 -96.5t24.5 -77t46 -51t72 -18.5z" />
    <glyph glyph-name="O" unicode="&#xd8;" horiz-adv-x="878" 
d="M368 -13q-64 0 -119.5 18t-97 53.5t-65.5 87.5t-24 120q0 56 17.5 115.5t50.5 116.5t80 108t106.5 89.5t129 61t148.5 22.5q64 0 119.5 -18t96.5 -53.5t65 -87.5t24 -120q0 -56 -17.5 -115.5t-50.5 -116.5t-80 -108t-106 -89.5t-129 -61t-148 -22.5zM398 29
q60 0 117 35.5t101.5 97.5t71 147.5t26.5 184.5q0 52 -7.5 96.5t-24.5 77t-46 51t-72 18.5q-60 0 -117 -35.5t-101.5 -97.5t-71 -147.5t-26.5 -184.5q0 -52 7.5 -96.5t24.5 -77t46 -51t72 -18.5z" />
    <glyph glyph-name="O" unicode="&#xd6;" horiz-adv-x="878" 
d="M368 -13q-64 0 -119.5 18t-97 53.5t-65.5 87.5t-24 120q0 56 17.5 115.5t50.5 116.5t80 108t106.5 89.5t129 61t148.5 22.5q64 0 119.5 -18t96.5 -53.5t65 -87.5t24 -120q0 -56 -17.5 -115.5t-50.5 -116.5t-80 -108t-106 -89.5t-129 -61t-148 -22.5zM398 29
q60 0 117 35.5t101.5 97.5t71 147.5t26.5 184.5q0 52 -7.5 96.5t-24.5 77t-46 51t-72 18.5q-60 0 -117 -35.5t-101.5 -97.5t-71 -147.5t-26.5 -184.5q0 -52 7.5 -96.5t24.5 -77t46 -51t72 -18.5z" />
    <glyph glyph-name="O" unicode="&#xd5;" horiz-adv-x="878" 
d="M368 -13q-64 0 -119.5 18t-97 53.5t-65.5 87.5t-24 120q0 56 17.5 115.5t50.5 116.5t80 108t106.5 89.5t129 61t148.5 22.5q64 0 119.5 -18t96.5 -53.5t65 -87.5t24 -120q0 -56 -17.5 -115.5t-50.5 -116.5t-80 -108t-106 -89.5t-129 -61t-148 -22.5zM398 29
q60 0 117 35.5t101.5 97.5t71 147.5t26.5 184.5q0 52 -7.5 96.5t-24.5 77t-46 51t-72 18.5q-60 0 -117 -35.5t-101.5 -97.5t-71 -147.5t-26.5 -184.5q0 -52 7.5 -96.5t24.5 -77t46 -51t72 -18.5z" />
    <glyph glyph-name="O" unicode="&#xd4;" horiz-adv-x="878" 
d="M368 -13q-64 0 -119.5 18t-97 53.5t-65.5 87.5t-24 120q0 56 17.5 115.5t50.5 116.5t80 108t106.5 89.5t129 61t148.5 22.5q64 0 119.5 -18t96.5 -53.5t65 -87.5t24 -120q0 -56 -17.5 -115.5t-50.5 -116.5t-80 -108t-106 -89.5t-129 -61t-148 -22.5zM398 29
q60 0 117 35.5t101.5 97.5t71 147.5t26.5 184.5q0 52 -7.5 96.5t-24.5 77t-46 51t-72 18.5q-60 0 -117 -35.5t-101.5 -97.5t-71 -147.5t-26.5 -184.5q0 -52 7.5 -96.5t24.5 -77t46 -51t72 -18.5z" />
    <glyph glyph-name="O" unicode="&#xd3;" horiz-adv-x="878" 
d="M368 -13q-64 0 -119.5 18t-97 53.5t-65.5 87.5t-24 120q0 56 17.5 115.5t50.5 116.5t80 108t106.5 89.5t129 61t148.5 22.5q64 0 119.5 -18t96.5 -53.5t65 -87.5t24 -120q0 -56 -17.5 -115.5t-50.5 -116.5t-80 -108t-106 -89.5t-129 -61t-148 -22.5zM398 29
q60 0 117 35.5t101.5 97.5t71 147.5t26.5 184.5q0 52 -7.5 96.5t-24.5 77t-46 51t-72 18.5q-60 0 -117 -35.5t-101.5 -97.5t-71 -147.5t-26.5 -184.5q0 -52 7.5 -96.5t24.5 -77t46 -51t72 -18.5z" />
    <glyph glyph-name="O" unicode="&#xd2;" horiz-adv-x="878" 
d="M368 -13q-64 0 -119.5 18t-97 53.5t-65.5 87.5t-24 120q0 56 17.5 115.5t50.5 116.5t80 108t106.5 89.5t129 61t148.5 22.5q64 0 119.5 -18t96.5 -53.5t65 -87.5t24 -120q0 -56 -17.5 -115.5t-50.5 -116.5t-80 -108t-106 -89.5t-129 -61t-148 -22.5zM398 29
q60 0 117 35.5t101.5 97.5t71 147.5t26.5 184.5q0 52 -7.5 96.5t-24.5 77t-46 51t-72 18.5q-60 0 -117 -35.5t-101.5 -97.5t-71 -147.5t-26.5 -184.5q0 -52 7.5 -96.5t24.5 -77t46 -51t72 -18.5z" />
    <glyph glyph-name="P" unicode="P" horiz-adv-x="736" 
d="M-21 36l36 4q27 3 43.5 11.5t25.5 37.5l178 580q9 29 -2.5 37.5t-36.5 11.5l-34 4l11 36h318q65 0 119.5 -7t94 -25t61.5 -48t22 -76q0 -53 -25.5 -100.5t-77 -83.5t-129 -57t-181.5 -21h-56l14 45h49q63 0 106.5 20.5t71 52.5t39.5 71.5t12 77.5q0 55 -31 81t-98 26h-74
l-191 -625q-9 -29 2.5 -37.5t37.5 -9.5l69 -4l-12 -38h-373z" />
    <glyph glyph-name="P" unicode="&#xde;" horiz-adv-x="736" 
d="M-21 36l36 4q27 3 43.5 11.5t25.5 37.5l178 580q9 29 -2.5 37.5t-36.5 11.5l-34 4l11 36h318q65 0 119.5 -7t94 -25t61.5 -48t22 -76q0 -53 -25.5 -100.5t-77 -83.5t-129 -57t-181.5 -21h-56l14 45h49q63 0 106.5 20.5t71 52.5t39.5 71.5t12 77.5q0 55 -31 81t-98 26h-74
l-191 -625q-9 -29 2.5 -37.5t37.5 -9.5l69 -4l-12 -38h-373z" />
    <glyph glyph-name="Q" unicode="Q" horiz-adv-x="878" 
d="M353 -13l-195 -68q28 8 57.5 10.5t49.5 2.5q58 0 102.5 -10t82.5 -22t71.5 -22t68.5 -10q44 0 83.5 22.5t79.5 73.5l31 -19q-29 -45 -60 -83t-63 -65.5t-63.5 -43t-60.5 -15.5q-50 0 -92.5 25.5t-82.5 56t-79 56t-82 25.5q-28 0 -52 -10q-9 -41 -26.5 -55.5t-36.5 -14.5
q-13 0 -21 8t-8 21t7.5 27.5t25 29t46.5 29.5t72 30l80 29q-49 10 -90.5 32t-71.5 56t-47 80t-17 103q0 56 17.5 115.5t50.5 116.5t80 108t106.5 89.5t129 61t148.5 22.5q64 0 119.5 -18t96.5 -53.5t65 -87.5t24 -120q0 -56 -17.5 -115.5t-50.5 -116.5t-80 -108t-106 -89.5
t-129 -61t-148 -22.5h-15zM398 29q60 0 117 35.5t101.5 97.5t71 147.5t26.5 184.5q0 52 -7.5 96.5t-24.5 77t-46 51t-72 18.5q-60 0 -117 -35.5t-101.5 -97.5t-71 -147.5t-26.5 -184.5q0 -52 7.5 -96.5t24.5 -77t46 -51t72 -18.5z" />
    <glyph glyph-name="R" unicode="R" horiz-adv-x="810" 
d="M-21 36l36 4q27 3 43.5 11.5t25.5 37.5l178 580q9 29 -2.5 37.5t-36.5 11.5l-34 4l11 36h305q140 0 215 -37.5t75 -115.5q0 -43 -20.5 -78t-55 -62t-81.5 -45.5t-99 -28.5l246 -391h-180l-229 369h-46l-86 -280q-9 -29 2 -37.5t37 -11.5l34 -4l-11 -36h-338zM404 414
q52 0 92 18t67 47t41 65t14 71q0 49 -29.5 74t-93.5 25h-60l-91 -300h60z" />
    <glyph glyph-name="R" unicode="&#x158;" horiz-adv-x="810" 
d="M-21 36l36 4q27 3 43.5 11.5t25.5 37.5l178 580q9 29 -2.5 37.5t-36.5 11.5l-34 4l11 36h305q140 0 215 -37.5t75 -115.5q0 -43 -20.5 -78t-55 -62t-81.5 -45.5t-99 -28.5l246 -391h-180l-229 369h-46l-86 -280q-9 -29 2 -37.5t37 -11.5l34 -4l-11 -36h-338zM404 414
q52 0 92 18t67 47t41 65t14 71q0 49 -29.5 74t-93.5 25h-60l-91 -300h60z" />
    <glyph glyph-name="R" unicode="&#x156;" horiz-adv-x="810" 
d="M-21 36l36 4q27 3 43.5 11.5t25.5 37.5l178 580q9 29 -2.5 37.5t-36.5 11.5l-34 4l11 36h305q140 0 215 -37.5t75 -115.5q0 -43 -20.5 -78t-55 -62t-81.5 -45.5t-99 -28.5l246 -391h-180l-229 369h-46l-86 -280q-9 -29 2 -37.5t37 -11.5l34 -4l-11 -36h-338zM404 414
q52 0 92 18t67 47t41 65t14 71q0 49 -29.5 74t-93.5 25h-60l-91 -300h60z" />
    <glyph glyph-name="R" unicode="&#x154;" horiz-adv-x="810" 
d="M-21 36l36 4q27 3 43.5 11.5t25.5 37.5l178 580q9 29 -2.5 37.5t-36.5 11.5l-34 4l11 36h305q140 0 215 -37.5t75 -115.5q0 -43 -20.5 -78t-55 -62t-81.5 -45.5t-99 -28.5l246 -391h-180l-229 369h-46l-86 -280q-9 -29 2 -37.5t37 -11.5l34 -4l-11 -36h-338zM404 414
q52 0 92 18t67 47t41 65t14 71q0 49 -29.5 74t-93.5 25h-60l-91 -300h60z" />
    <glyph glyph-name="S" unicode="S" horiz-adv-x="622" 
d="M215 -13q-25 0 -53.5 3t-57 9t-56.5 15.5t-52 23.5l60 241h22l31 -179q3 -18 7 -28.5t14 -18.5q11 -10 36.5 -15.5t59.5 -5.5q37 0 71.5 8.5t61.5 24.5t43 40t16 54q0 35 -23 74.5t-77 95.5l-52 54q-31 32 -53 73t-22 90q0 45 24 87.5t66 74.5t99.5 51.5t124.5 19.5
q46 0 92.5 -10.5t81.5 -33.5l-41 -225h-22l-52 163q-5 17 -9.5 27.5t-11.5 17.5q-8 8 -23.5 11.5t-29.5 3.5q-35 0 -64.5 -8t-52 -22.5t-35 -35.5t-12.5 -46q0 -32 18.5 -63t48.5 -63l55 -57q31 -33 52 -59t33 -49t17 -44.5t5 -45.5q0 -57 -28 -103.5t-74.5 -79.5
t-108.5 -51.5t-129 -18.5z" />
    <glyph glyph-name="S" unicode="&#x218;" horiz-adv-x="622" 
d="M215 -13q-25 0 -53.5 3t-57 9t-56.5 15.5t-52 23.5l60 241h22l31 -179q3 -18 7 -28.5t14 -18.5q11 -10 36.5 -15.5t59.5 -5.5q37 0 71.5 8.5t61.5 24.5t43 40t16 54q0 35 -23 74.5t-77 95.5l-52 54q-31 32 -53 73t-22 90q0 45 24 87.5t66 74.5t99.5 51.5t124.5 19.5
q46 0 92.5 -10.5t81.5 -33.5l-41 -225h-22l-52 163q-5 17 -9.5 27.5t-11.5 17.5q-8 8 -23.5 11.5t-29.5 3.5q-35 0 -64.5 -8t-52 -22.5t-35 -35.5t-12.5 -46q0 -32 18.5 -63t48.5 -63l55 -57q31 -33 52 -59t33 -49t17 -44.5t5 -45.5q0 -57 -28 -103.5t-74.5 -79.5
t-108.5 -51.5t-129 -18.5z" />
    <glyph glyph-name="S" unicode="&#x160;" horiz-adv-x="622" 
d="M215 -13q-25 0 -53.5 3t-57 9t-56.5 15.5t-52 23.5l60 241h22l31 -179q3 -18 7 -28.5t14 -18.5q11 -10 36.5 -15.5t59.5 -5.5q37 0 71.5 8.5t61.5 24.5t43 40t16 54q0 35 -23 74.5t-77 95.5l-52 54q-31 32 -53 73t-22 90q0 45 24 87.5t66 74.5t99.5 51.5t124.5 19.5
q46 0 92.5 -10.5t81.5 -33.5l-41 -225h-22l-52 163q-5 17 -9.5 27.5t-11.5 17.5q-8 8 -23.5 11.5t-29.5 3.5q-35 0 -64.5 -8t-52 -22.5t-35 -35.5t-12.5 -46q0 -32 18.5 -63t48.5 -63l55 -57q31 -33 52 -59t33 -49t17 -44.5t5 -45.5q0 -57 -28 -103.5t-74.5 -79.5
t-108.5 -51.5t-129 -18.5z" />
    <glyph glyph-name="S" unicode="&#x15e;" horiz-adv-x="622" 
d="M215 -13q-25 0 -53.5 3t-57 9t-56.5 15.5t-52 23.5l60 241h22l31 -179q3 -18 7 -28.5t14 -18.5q11 -10 36.5 -15.5t59.5 -5.5q37 0 71.5 8.5t61.5 24.5t43 40t16 54q0 35 -23 74.5t-77 95.5l-52 54q-31 32 -53 73t-22 90q0 45 24 87.5t66 74.5t99.5 51.5t124.5 19.5
q46 0 92.5 -10.5t81.5 -33.5l-41 -225h-22l-52 163q-5 17 -9.5 27.5t-11.5 17.5q-8 8 -23.5 11.5t-29.5 3.5q-35 0 -64.5 -8t-52 -22.5t-35 -35.5t-12.5 -46q0 -32 18.5 -63t48.5 -63l55 -57q31 -33 52 -59t33 -49t17 -44.5t5 -45.5q0 -57 -28 -103.5t-74.5 -79.5
t-108.5 -51.5t-129 -18.5z" />
    <glyph glyph-name="S" unicode="&#x15c;" horiz-adv-x="622" 
d="M215 -13q-25 0 -53.5 3t-57 9t-56.5 15.5t-52 23.5l60 241h22l31 -179q3 -18 7 -28.5t14 -18.5q11 -10 36.5 -15.5t59.5 -5.5q37 0 71.5 8.5t61.5 24.5t43 40t16 54q0 35 -23 74.5t-77 95.5l-52 54q-31 32 -53 73t-22 90q0 45 24 87.5t66 74.5t99.5 51.5t124.5 19.5
q46 0 92.5 -10.5t81.5 -33.5l-41 -225h-22l-52 163q-5 17 -9.5 27.5t-11.5 17.5q-8 8 -23.5 11.5t-29.5 3.5q-35 0 -64.5 -8t-52 -22.5t-35 -35.5t-12.5 -46q0 -32 18.5 -63t48.5 -63l55 -57q31 -33 52 -59t33 -49t17 -44.5t5 -45.5q0 -57 -28 -103.5t-74.5 -79.5
t-108.5 -51.5t-129 -18.5z" />
    <glyph glyph-name="S" unicode="&#x15a;" horiz-adv-x="622" 
d="M215 -13q-25 0 -53.5 3t-57 9t-56.5 15.5t-52 23.5l60 241h22l31 -179q3 -18 7 -28.5t14 -18.5q11 -10 36.5 -15.5t59.5 -5.5q37 0 71.5 8.5t61.5 24.5t43 40t16 54q0 35 -23 74.5t-77 95.5l-52 54q-31 32 -53 73t-22 90q0 45 24 87.5t66 74.5t99.5 51.5t124.5 19.5
q46 0 92.5 -10.5t81.5 -33.5l-41 -225h-22l-52 163q-5 17 -9.5 27.5t-11.5 17.5q-8 8 -23.5 11.5t-29.5 3.5q-35 0 -64.5 -8t-52 -22.5t-35 -35.5t-12.5 -46q0 -32 18.5 -63t48.5 -63l55 -57q31 -33 52 -59t33 -49t17 -44.5t5 -45.5q0 -57 -28 -103.5t-74.5 -79.5
t-108.5 -51.5t-129 -18.5z" />
    <glyph glyph-name="T" unicode="T" horiz-adv-x="782" 
d="M133 38l61 4q26 2 42.5 10t25.5 37l192 628h-100q-16 0 -23 -3t-19 -15l-200 -212h-22l105 271h704l-61 -271h-22l-56 212q-3 12 -9.5 15t-22.5 3h-114l-192 -628q-9 -29 2.5 -37.5t37.5 -9.5l59 -4l-12 -38h-388z" />
    <glyph glyph-name="T" unicode="&#x21a;" horiz-adv-x="782" 
d="M133 38l61 4q26 2 42.5 10t25.5 37l192 628h-100q-16 0 -23 -3t-19 -15l-200 -212h-22l105 271h704l-61 -271h-22l-56 212q-3 12 -9.5 15t-22.5 3h-114l-192 -628q-9 -29 2.5 -37.5t37.5 -9.5l59 -4l-12 -38h-388z" />
    <glyph glyph-name="T" unicode="&#x166;" horiz-adv-x="782" 
d="M133 38l61 4q26 2 42.5 10t25.5 37l192 628h-100q-16 0 -23 -3t-19 -15l-200 -212h-22l105 271h704l-61 -271h-22l-56 212q-3 12 -9.5 15t-22.5 3h-114l-192 -628q-9 -29 2.5 -37.5t37.5 -9.5l59 -4l-12 -38h-388z" />
    <glyph glyph-name="T" unicode="&#x164;" horiz-adv-x="782" 
d="M133 38l61 4q26 2 42.5 10t25.5 37l192 628h-100q-16 0 -23 -3t-19 -15l-200 -212h-22l105 271h704l-61 -271h-22l-56 212q-3 12 -9.5 15t-22.5 3h-114l-192 -628q-9 -29 2.5 -37.5t37.5 -9.5l59 -4l-12 -38h-388z" />
    <glyph glyph-name="T" unicode="&#x162;" horiz-adv-x="782" 
d="M133 38l61 4q26 2 42.5 10t25.5 37l192 628h-100q-16 0 -23 -3t-19 -15l-200 -212h-22l105 271h704l-61 -271h-22l-56 212q-3 12 -9.5 15t-22.5 3h-114l-192 -628q-9 -29 2.5 -37.5t37.5 -9.5l59 -4l-12 -38h-388z" />
    <glyph glyph-name="U" unicode="U" horiz-adv-x="861" 
d="M391 -13q-77 0 -137 18t-96 57t-44.5 100.5t18.5 147.5l110 359q9 29 -2.5 37.5t-36.5 11.5l-34 4l11 36h338l-11 -36l-36 -4q-28 -3 -44 -11.5t-25 -37.5l-116 -377q-20 -66 -18.5 -110.5t21 -71.5t56 -38.5t85.5 -11.5q103 0 172 58t109 188l111 363q9 29 -2.5 38
t-36.5 11l-44 4l11 36h244l-11 -36l-36 -4q-28 -3 -44 -11.5t-25 -37.5l-115 -373q-23 -75 -56 -133t-78.5 -97t-104 -59t-133.5 -20z" />
    <glyph glyph-name="U" unicode="&#x1ee4;" horiz-adv-x="861" 
d="M391 -13q-77 0 -137 18t-96 57t-44.5 100.5t18.5 147.5l110 359q9 29 -2.5 37.5t-36.5 11.5l-34 4l11 36h338l-11 -36l-36 -4q-28 -3 -44 -11.5t-25 -37.5l-116 -377q-20 -66 -18.5 -110.5t21 -71.5t56 -38.5t85.5 -11.5q103 0 172 58t109 188l111 363q9 29 -2.5 38
t-36.5 11l-44 4l11 36h244l-11 -36l-36 -4q-28 -3 -44 -11.5t-25 -37.5l-115 -373q-23 -75 -56 -133t-78.5 -97t-104 -59t-133.5 -20z" />
    <glyph glyph-name="U" unicode="&#x172;" horiz-adv-x="861" 
d="M391 -13q-77 0 -137 18t-96 57t-44.5 100.5t18.5 147.5l110 359q9 29 -2.5 37.5t-36.5 11.5l-34 4l11 36h338l-11 -36l-36 -4q-28 -3 -44 -11.5t-25 -37.5l-116 -377q-20 -66 -18.5 -110.5t21 -71.5t56 -38.5t85.5 -11.5q103 0 172 58t109 188l111 363q9 29 -2.5 38
t-36.5 11l-44 4l11 36h244l-11 -36l-36 -4q-28 -3 -44 -11.5t-25 -37.5l-115 -373q-23 -75 -56 -133t-78.5 -97t-104 -59t-133.5 -20z" />
    <glyph glyph-name="U" unicode="&#x170;" horiz-adv-x="861" 
d="M391 -13q-77 0 -137 18t-96 57t-44.5 100.5t18.5 147.5l110 359q9 29 -2.5 37.5t-36.5 11.5l-34 4l11 36h338l-11 -36l-36 -4q-28 -3 -44 -11.5t-25 -37.5l-116 -377q-20 -66 -18.5 -110.5t21 -71.5t56 -38.5t85.5 -11.5q103 0 172 58t109 188l111 363q9 29 -2.5 38
t-36.5 11l-44 4l11 36h244l-11 -36l-36 -4q-28 -3 -44 -11.5t-25 -37.5l-115 -373q-23 -75 -56 -133t-78.5 -97t-104 -59t-133.5 -20z" />
    <glyph glyph-name="U" unicode="&#x16e;" horiz-adv-x="861" 
d="M391 -13q-77 0 -137 18t-96 57t-44.5 100.5t18.5 147.5l110 359q9 29 -2.5 37.5t-36.5 11.5l-34 4l11 36h338l-11 -36l-36 -4q-28 -3 -44 -11.5t-25 -37.5l-116 -377q-20 -66 -18.5 -110.5t21 -71.5t56 -38.5t85.5 -11.5q103 0 172 58t109 188l111 363q9 29 -2.5 38
t-36.5 11l-44 4l11 36h244l-11 -36l-36 -4q-28 -3 -44 -11.5t-25 -37.5l-115 -373q-23 -75 -56 -133t-78.5 -97t-104 -59t-133.5 -20z" />
    <glyph glyph-name="U" unicode="&#x16c;" horiz-adv-x="861" 
d="M391 -13q-77 0 -137 18t-96 57t-44.5 100.5t18.5 147.5l110 359q9 29 -2.5 37.5t-36.5 11.5l-34 4l11 36h338l-11 -36l-36 -4q-28 -3 -44 -11.5t-25 -37.5l-116 -377q-20 -66 -18.5 -110.5t21 -71.5t56 -38.5t85.5 -11.5q103 0 172 58t109 188l111 363q9 29 -2.5 38
t-36.5 11l-44 4l11 36h244l-11 -36l-36 -4q-28 -3 -44 -11.5t-25 -37.5l-115 -373q-23 -75 -56 -133t-78.5 -97t-104 -59t-133.5 -20z" />
    <glyph glyph-name="U" unicode="&#x16a;" horiz-adv-x="861" 
d="M391 -13q-77 0 -137 18t-96 57t-44.5 100.5t18.5 147.5l110 359q9 29 -2.5 37.5t-36.5 11.5l-34 4l11 36h338l-11 -36l-36 -4q-28 -3 -44 -11.5t-25 -37.5l-116 -377q-20 -66 -18.5 -110.5t21 -71.5t56 -38.5t85.5 -11.5q103 0 172 58t109 188l111 363q9 29 -2.5 38
t-36.5 11l-44 4l11 36h244l-11 -36l-36 -4q-28 -3 -44 -11.5t-25 -37.5l-115 -373q-23 -75 -56 -133t-78.5 -97t-104 -59t-133.5 -20z" />
    <glyph glyph-name="U" unicode="&#x168;" horiz-adv-x="861" 
d="M391 -13q-77 0 -137 18t-96 57t-44.5 100.5t18.5 147.5l110 359q9 29 -2.5 37.5t-36.5 11.5l-34 4l11 36h338l-11 -36l-36 -4q-28 -3 -44 -11.5t-25 -37.5l-116 -377q-20 -66 -18.5 -110.5t21 -71.5t56 -38.5t85.5 -11.5q103 0 172 58t109 188l111 363q9 29 -2.5 38
t-36.5 11l-44 4l11 36h244l-11 -36l-36 -4q-28 -3 -44 -11.5t-25 -37.5l-115 -373q-23 -75 -56 -133t-78.5 -97t-104 -59t-133.5 -20z" />
    <glyph glyph-name="U" unicode="&#xdc;" horiz-adv-x="861" 
d="M391 -13q-77 0 -137 18t-96 57t-44.5 100.5t18.5 147.5l110 359q9 29 -2.5 37.5t-36.5 11.5l-34 4l11 36h338l-11 -36l-36 -4q-28 -3 -44 -11.5t-25 -37.5l-116 -377q-20 -66 -18.5 -110.5t21 -71.5t56 -38.5t85.5 -11.5q103 0 172 58t109 188l111 363q9 29 -2.5 38
t-36.5 11l-44 4l11 36h244l-11 -36l-36 -4q-28 -3 -44 -11.5t-25 -37.5l-115 -373q-23 -75 -56 -133t-78.5 -97t-104 -59t-133.5 -20z" />
    <glyph glyph-name="U" unicode="&#xdb;" horiz-adv-x="861" 
d="M391 -13q-77 0 -137 18t-96 57t-44.5 100.5t18.5 147.5l110 359q9 29 -2.5 37.5t-36.5 11.5l-34 4l11 36h338l-11 -36l-36 -4q-28 -3 -44 -11.5t-25 -37.5l-116 -377q-20 -66 -18.5 -110.5t21 -71.5t56 -38.5t85.5 -11.5q103 0 172 58t109 188l111 363q9 29 -2.5 38
t-36.5 11l-44 4l11 36h244l-11 -36l-36 -4q-28 -3 -44 -11.5t-25 -37.5l-115 -373q-23 -75 -56 -133t-78.5 -97t-104 -59t-133.5 -20z" />
    <glyph glyph-name="U" unicode="&#xda;" horiz-adv-x="861" 
d="M391 -13q-77 0 -137 18t-96 57t-44.5 100.5t18.5 147.5l110 359q9 29 -2.5 37.5t-36.5 11.5l-34 4l11 36h338l-11 -36l-36 -4q-28 -3 -44 -11.5t-25 -37.5l-116 -377q-20 -66 -18.5 -110.5t21 -71.5t56 -38.5t85.5 -11.5q103 0 172 58t109 188l111 363q9 29 -2.5 38
t-36.5 11l-44 4l11 36h244l-11 -36l-36 -4q-28 -3 -44 -11.5t-25 -37.5l-115 -373q-23 -75 -56 -133t-78.5 -97t-104 -59t-133.5 -20z" />
    <glyph glyph-name="U" unicode="&#xd9;" horiz-adv-x="861" 
d="M391 -13q-77 0 -137 18t-96 57t-44.5 100.5t18.5 147.5l110 359q9 29 -2.5 37.5t-36.5 11.5l-34 4l11 36h338l-11 -36l-36 -4q-28 -3 -44 -11.5t-25 -37.5l-116 -377q-20 -66 -18.5 -110.5t21 -71.5t56 -38.5t85.5 -11.5q103 0 172 58t109 188l111 363q9 29 -2.5 38
t-36.5 11l-44 4l11 36h244l-11 -36l-36 -4q-28 -3 -44 -11.5t-25 -37.5l-115 -373q-23 -75 -56 -133t-78.5 -97t-104 -59t-133.5 -20z" />
    <glyph glyph-name="V" unicode="V" horiz-adv-x="817" 
d="M245 669q6 29 -3.5 37.5t-35.5 11.5l-34 4l11 36h338l-11 -36l-36 -4q-27 -3 -44.5 -11.5t-24.5 -37.5l-103 -466l515 470q23 21 26.5 32t-22.5 13l-62 4l11 36h273l-11 -36l-34 -4q-27 -3 -53 -12.5t-52 -32.5l-773 -703h-20z" />
    <glyph glyph-name="W" unicode="W" horiz-adv-x="1267" 
d="M245 669q6 29 -3.5 37.5t-35.5 11.5l-34 4l11 36h338l-11 -36l-36 -4q-27 -3 -44.5 -11.5t-24.5 -37.5l-103 -466l366 334l46 221h277l-11 -36l-56 -4q-27 -2 -44.5 -11t-24.5 -38l-103 -466l515 470q23 21 26.5 32t-22.5 13l-62 4l11 36h273l-11 -36l-34 -4
q-27 -3 -53 -12.5t-52 -32.5l-773 -703h-20l100 482l-530 -482h-20z" />
    <glyph glyph-name="W" unicode="&#x1e84;" horiz-adv-x="1267" 
d="M245 669q6 29 -3.5 37.5t-35.5 11.5l-34 4l11 36h338l-11 -36l-36 -4q-27 -3 -44.5 -11.5t-24.5 -37.5l-103 -466l366 334l46 221h277l-11 -36l-56 -4q-27 -2 -44.5 -11t-24.5 -38l-103 -466l515 470q23 21 26.5 32t-22.5 13l-62 4l11 36h273l-11 -36l-34 -4
q-27 -3 -53 -12.5t-52 -32.5l-773 -703h-20l100 482l-530 -482h-20z" />
    <glyph glyph-name="W" unicode="&#x1e82;" horiz-adv-x="1267" 
d="M245 669q6 29 -3.5 37.5t-35.5 11.5l-34 4l11 36h338l-11 -36l-36 -4q-27 -3 -44.5 -11.5t-24.5 -37.5l-103 -466l366 334l46 221h277l-11 -36l-56 -4q-27 -2 -44.5 -11t-24.5 -38l-103 -466l515 470q23 21 26.5 32t-22.5 13l-62 4l11 36h273l-11 -36l-34 -4
q-27 -3 -53 -12.5t-52 -32.5l-773 -703h-20l100 482l-530 -482h-20z" />
    <glyph glyph-name="W" unicode="&#x1e80;" horiz-adv-x="1267" 
d="M245 669q6 29 -3.5 37.5t-35.5 11.5l-34 4l11 36h338l-11 -36l-36 -4q-27 -3 -44.5 -11.5t-24.5 -37.5l-103 -466l366 334l46 221h277l-11 -36l-56 -4q-27 -2 -44.5 -11t-24.5 -38l-103 -466l515 470q23 21 26.5 32t-22.5 13l-62 4l11 36h273l-11 -36l-34 -4
q-27 -3 -53 -12.5t-52 -32.5l-773 -703h-20l100 482l-530 -482h-20z" />
    <glyph glyph-name="W" unicode="&#x174;" horiz-adv-x="1267" 
d="M245 669q6 29 -3.5 37.5t-35.5 11.5l-34 4l11 36h338l-11 -36l-36 -4q-27 -3 -44.5 -11.5t-24.5 -37.5l-103 -466l366 334l46 221h277l-11 -36l-56 -4q-27 -2 -44.5 -11t-24.5 -38l-103 -466l515 470q23 21 26.5 32t-22.5 13l-62 4l11 36h273l-11 -36l-34 -4
q-27 -3 -53 -12.5t-52 -32.5l-773 -703h-20l100 482l-530 -482h-20z" />
    <glyph glyph-name="X" unicode="X" horiz-adv-x="842" 
d="M-95 36l34 4q28 3 53.5 13t53.5 32l354 283l-79 305q-5 23 -17 32.5t-36 12.5l-32 4l16 36h337l-16 -36l-44 -4q-28 -2 -39.5 -12t-5.5 -33l51 -198l248 198q29 23 31.5 33t-22.5 12l-42 4l16 36h257l-16 -36l-34 -4q-29 -3 -54 -13t-53 -32l-316 -252l87 -336
q6 -23 17 -32.5t36 -12.5l32 -4l-16 -36h-337l16 36l44 4q28 2 39 12t6 33l-59 228l-286 -228q-29 -23 -31.5 -33t22.5 -12l42 -4l-16 -36h-257z" />
    <glyph glyph-name="Y" unicode="Y" horiz-adv-x="780" 
d="M132 38l61 4q26 2 42.5 10t25.5 37l78 253l-119 331q-9 25 -17 33.5t-33 11.5l-32 4l11 36h339l-11 -36l-44 -4q-27 -2 -41.5 -11.5t-6.5 -33.5l94 -272l265 272q24 25 21.5 34t-28.5 11l-62 4l11 36h270l-11 -36l-34 -4q-28 -3 -47.5 -11.5t-43.5 -33.5l-322 -332
l-77 -252q-9 -29 2.5 -37.5t37.5 -9.5l59 -4l-12 -38h-388z" />
    <glyph glyph-name="Y" unicode="&#x1ef2;" horiz-adv-x="780" 
d="M132 38l61 4q26 2 42.5 10t25.5 37l78 253l-119 331q-9 25 -17 33.5t-33 11.5l-32 4l11 36h339l-11 -36l-44 -4q-27 -2 -41.5 -11.5t-6.5 -33.5l94 -272l265 272q24 25 21.5 34t-28.5 11l-62 4l11 36h270l-11 -36l-34 -4q-28 -3 -47.5 -11.5t-43.5 -33.5l-322 -332
l-77 -252q-9 -29 2.5 -37.5t37.5 -9.5l59 -4l-12 -38h-388z" />
    <glyph glyph-name="Y" unicode="&#x232;" horiz-adv-x="780" 
d="M132 38l61 4q26 2 42.5 10t25.5 37l78 253l-119 331q-9 25 -17 33.5t-33 11.5l-32 4l11 36h339l-11 -36l-44 -4q-27 -2 -41.5 -11.5t-6.5 -33.5l94 -272l265 272q24 25 21.5 34t-28.5 11l-62 4l11 36h270l-11 -36l-34 -4q-28 -3 -47.5 -11.5t-43.5 -33.5l-322 -332
l-77 -252q-9 -29 2.5 -37.5t37.5 -9.5l59 -4l-12 -38h-388z" />
    <glyph glyph-name="Y" unicode="&#x178;" horiz-adv-x="780" 
d="M132 38l61 4q26 2 42.5 10t25.5 37l78 253l-119 331q-9 25 -17 33.5t-33 11.5l-32 4l11 36h339l-11 -36l-44 -4q-27 -2 -41.5 -11.5t-6.5 -33.5l94 -272l265 272q24 25 21.5 34t-28.5 11l-62 4l11 36h270l-11 -36l-34 -4q-28 -3 -47.5 -11.5t-43.5 -33.5l-322 -332
l-77 -252q-9 -29 2.5 -37.5t37.5 -9.5l59 -4l-12 -38h-388z" />
    <glyph glyph-name="Y" unicode="&#x176;" horiz-adv-x="780" 
d="M132 38l61 4q26 2 42.5 10t25.5 37l78 253l-119 331q-9 25 -17 33.5t-33 11.5l-32 4l11 36h339l-11 -36l-44 -4q-27 -2 -41.5 -11.5t-6.5 -33.5l94 -272l265 272q24 25 21.5 34t-28.5 11l-62 4l11 36h270l-11 -36l-34 -4q-28 -3 -47.5 -11.5t-43.5 -33.5l-322 -332
l-77 -252q-9 -29 2.5 -37.5t37.5 -9.5l59 -4l-12 -38h-388z" />
    <glyph glyph-name="Y" unicode="&#xdd;" horiz-adv-x="780" 
d="M132 38l61 4q26 2 42.5 10t25.5 37l78 253l-119 331q-9 25 -17 33.5t-33 11.5l-32 4l11 36h339l-11 -36l-44 -4q-27 -2 -41.5 -11.5t-6.5 -33.5l94 -272l265 272q24 25 21.5 34t-28.5 11l-62 4l11 36h270l-11 -36l-34 -4q-28 -3 -47.5 -11.5t-43.5 -33.5l-322 -332
l-77 -252q-9 -29 2.5 -37.5t37.5 -9.5l59 -4l-12 -38h-388z" />
    <glyph glyph-name="Z" unicode="Z" horiz-adv-x="748" 
d="M-53 12l686 702h-198q-16 0 -22.5 -3.5t-19.5 -14.5l-247 -209h-22l160 271h577l-4 -12l-685 -702h246q16 0 22.5 3.5t20.5 14.5l247 209h22l-160 -271h-627z" />
    <glyph glyph-name="Z" unicode="&#x17d;" horiz-adv-x="748" 
d="M-53 12l686 702h-198q-16 0 -22.5 -3.5t-19.5 -14.5l-247 -209h-22l160 271h577l-4 -12l-685 -702h246q16 0 22.5 3.5t20.5 14.5l247 209h22l-160 -271h-627z" />
    <glyph glyph-name="Z" unicode="&#x17b;" horiz-adv-x="748" 
d="M-53 12l686 702h-198q-16 0 -22.5 -3.5t-19.5 -14.5l-247 -209h-22l160 271h577l-4 -12l-685 -702h246q16 0 22.5 3.5t20.5 14.5l247 209h22l-160 -271h-627z" />
    <glyph glyph-name="Z" unicode="&#x179;" horiz-adv-x="748" 
d="M-53 12l686 702h-198q-16 0 -22.5 -3.5t-19.5 -14.5l-247 -209h-22l160 271h577l-4 -12l-685 -702h246q16 0 22.5 3.5t20.5 14.5l247 209h22l-160 -271h-627z" />
    <glyph glyph-name="a" unicode="a" horiz-adv-x="582" 
d="M89 -13q-44 0 -67 30.5t-23 75.5t16 94t43 96.5t63 90.5t75 75.5t79 52t76 19.5q26 0 41.5 -15t18.5 -32h1l17 46h140l-149 -405q-15 -40 -16 -56t15 -16q9 0 24.5 8t34 25t38.5 45t40 67l29 -12q-21 -43 -46 -78t-55.5 -59.5t-68 -38t-82.5 -13.5q-32 0 -47.5 9.5
t-19.5 26t1.5 39.5t16.5 50l25 65h-2q-30 -50 -55 -86t-49.5 -59t-52 -34t-61.5 -11zM179 65q14 0 38 25.5t49.5 64.5t49.5 84.5t39 84.5q34 91 30.5 128.5t-33.5 37.5q-24 0 -47.5 -19.5t-45 -51t-40 -72t-32 -82.5t-21 -82t-7.5 -71q0 -47 20 -47z" />
    <glyph glyph-name="a" unicode="&#x105;" horiz-adv-x="582" 
d="M89 -13q-44 0 -67 30.5t-23 75.5t16 94t43 96.5t63 90.5t75 75.5t79 52t76 19.5q26 0 41.5 -15t18.5 -32h1l17 46h140l-149 -405q-15 -40 -16 -56t15 -16q9 0 24.5 8t34 25t38.5 45t40 67l29 -12q-21 -43 -46 -78t-55.5 -59.5t-68 -38t-82.5 -13.5q-32 0 -47.5 9.5
t-19.5 26t1.5 39.5t16.5 50l25 65h-2q-30 -50 -55 -86t-49.5 -59t-52 -34t-61.5 -11zM179 65q14 0 38 25.5t49.5 64.5t49.5 84.5t39 84.5q34 91 30.5 128.5t-33.5 37.5q-24 0 -47.5 -19.5t-45 -51t-40 -72t-32 -82.5t-21 -82t-7.5 -71q0 -47 20 -47z" />
    <glyph glyph-name="a" unicode="&#x103;" horiz-adv-x="582" 
d="M89 -13q-44 0 -67 30.5t-23 75.5t16 94t43 96.5t63 90.5t75 75.5t79 52t76 19.5q26 0 41.5 -15t18.5 -32h1l17 46h140l-149 -405q-15 -40 -16 -56t15 -16q9 0 24.5 8t34 25t38.5 45t40 67l29 -12q-21 -43 -46 -78t-55.5 -59.5t-68 -38t-82.5 -13.5q-32 0 -47.5 9.5
t-19.5 26t1.5 39.5t16.5 50l25 65h-2q-30 -50 -55 -86t-49.5 -59t-52 -34t-61.5 -11zM179 65q14 0 38 25.5t49.5 64.5t49.5 84.5t39 84.5q34 91 30.5 128.5t-33.5 37.5q-24 0 -47.5 -19.5t-45 -51t-40 -72t-32 -82.5t-21 -82t-7.5 -71q0 -47 20 -47z" />
    <glyph glyph-name="a" unicode="&#x101;" horiz-adv-x="582" 
d="M89 -13q-44 0 -67 30.5t-23 75.5t16 94t43 96.5t63 90.5t75 75.5t79 52t76 19.5q26 0 41.5 -15t18.5 -32h1l17 46h140l-149 -405q-15 -40 -16 -56t15 -16q9 0 24.5 8t34 25t38.5 45t40 67l29 -12q-21 -43 -46 -78t-55.5 -59.5t-68 -38t-82.5 -13.5q-32 0 -47.5 9.5
t-19.5 26t1.5 39.5t16.5 50l25 65h-2q-30 -50 -55 -86t-49.5 -59t-52 -34t-61.5 -11zM179 65q14 0 38 25.5t49.5 64.5t49.5 84.5t39 84.5q34 91 30.5 128.5t-33.5 37.5q-24 0 -47.5 -19.5t-45 -51t-40 -72t-32 -82.5t-21 -82t-7.5 -71q0 -47 20 -47z" />
    <glyph glyph-name="a" unicode="&#xe6;" horiz-adv-x="582" 
d="M89 -13q-44 0 -67 30.5t-23 75.5t16 94t43 96.5t63 90.5t75 75.5t79 52t76 19.5q26 0 41.5 -15t18.5 -32h1l17 46h140l-149 -405q-15 -40 -16 -56t15 -16q9 0 24.5 8t34 25t38.5 45t40 67l29 -12q-21 -43 -46 -78t-55.5 -59.5t-68 -38t-82.5 -13.5q-32 0 -47.5 9.5
t-19.5 26t1.5 39.5t16.5 50l25 65h-2q-30 -50 -55 -86t-49.5 -59t-52 -34t-61.5 -11zM179 65q14 0 38 25.5t49.5 64.5t49.5 84.5t39 84.5q34 91 30.5 128.5t-33.5 37.5q-24 0 -47.5 -19.5t-45 -51t-40 -72t-32 -82.5t-21 -82t-7.5 -71q0 -47 20 -47z" />
    <glyph glyph-name="a" unicode="&#xe5;" horiz-adv-x="582" 
d="M89 -13q-44 0 -67 30.5t-23 75.5t16 94t43 96.5t63 90.5t75 75.5t79 52t76 19.5q26 0 41.5 -15t18.5 -32h1l17 46h140l-149 -405q-15 -40 -16 -56t15 -16q9 0 24.5 8t34 25t38.5 45t40 67l29 -12q-21 -43 -46 -78t-55.5 -59.5t-68 -38t-82.5 -13.5q-32 0 -47.5 9.5
t-19.5 26t1.5 39.5t16.5 50l25 65h-2q-30 -50 -55 -86t-49.5 -59t-52 -34t-61.5 -11zM179 65q14 0 38 25.5t49.5 64.5t49.5 84.5t39 84.5q34 91 30.5 128.5t-33.5 37.5q-24 0 -47.5 -19.5t-45 -51t-40 -72t-32 -82.5t-21 -82t-7.5 -71q0 -47 20 -47z" />
    <glyph glyph-name="a" unicode="&#xe4;" horiz-adv-x="582" 
d="M89 -13q-44 0 -67 30.5t-23 75.5t16 94t43 96.5t63 90.5t75 75.5t79 52t76 19.5q26 0 41.5 -15t18.5 -32h1l17 46h140l-149 -405q-15 -40 -16 -56t15 -16q9 0 24.5 8t34 25t38.5 45t40 67l29 -12q-21 -43 -46 -78t-55.5 -59.5t-68 -38t-82.5 -13.5q-32 0 -47.5 9.5
t-19.5 26t1.5 39.5t16.5 50l25 65h-2q-30 -50 -55 -86t-49.5 -59t-52 -34t-61.5 -11zM179 65q14 0 38 25.5t49.5 64.5t49.5 84.5t39 84.5q34 91 30.5 128.5t-33.5 37.5q-24 0 -47.5 -19.5t-45 -51t-40 -72t-32 -82.5t-21 -82t-7.5 -71q0 -47 20 -47z" />
    <glyph glyph-name="a" unicode="&#xe3;" horiz-adv-x="582" 
d="M89 -13q-44 0 -67 30.5t-23 75.5t16 94t43 96.5t63 90.5t75 75.5t79 52t76 19.5q26 0 41.5 -15t18.5 -32h1l17 46h140l-149 -405q-15 -40 -16 -56t15 -16q9 0 24.5 8t34 25t38.5 45t40 67l29 -12q-21 -43 -46 -78t-55.5 -59.5t-68 -38t-82.5 -13.5q-32 0 -47.5 9.5
t-19.5 26t1.5 39.5t16.5 50l25 65h-2q-30 -50 -55 -86t-49.5 -59t-52 -34t-61.5 -11zM179 65q14 0 38 25.5t49.5 64.5t49.5 84.5t39 84.5q34 91 30.5 128.5t-33.5 37.5q-24 0 -47.5 -19.5t-45 -51t-40 -72t-32 -82.5t-21 -82t-7.5 -71q0 -47 20 -47z" />
    <glyph glyph-name="a" unicode="&#xe2;" horiz-adv-x="582" 
d="M89 -13q-44 0 -67 30.5t-23 75.5t16 94t43 96.5t63 90.5t75 75.5t79 52t76 19.5q26 0 41.5 -15t18.5 -32h1l17 46h140l-149 -405q-15 -40 -16 -56t15 -16q9 0 24.5 8t34 25t38.5 45t40 67l29 -12q-21 -43 -46 -78t-55.5 -59.5t-68 -38t-82.5 -13.5q-32 0 -47.5 9.5
t-19.5 26t1.5 39.5t16.5 50l25 65h-2q-30 -50 -55 -86t-49.5 -59t-52 -34t-61.5 -11zM179 65q14 0 38 25.5t49.5 64.5t49.5 84.5t39 84.5q34 91 30.5 128.5t-33.5 37.5q-24 0 -47.5 -19.5t-45 -51t-40 -72t-32 -82.5t-21 -82t-7.5 -71q0 -47 20 -47z" />
    <glyph glyph-name="a" unicode="&#xe1;" horiz-adv-x="582" 
d="M89 -13q-44 0 -67 30.5t-23 75.5t16 94t43 96.5t63 90.5t75 75.5t79 52t76 19.5q26 0 41.5 -15t18.5 -32h1l17 46h140l-149 -405q-15 -40 -16 -56t15 -16q9 0 24.5 8t34 25t38.5 45t40 67l29 -12q-21 -43 -46 -78t-55.5 -59.5t-68 -38t-82.5 -13.5q-32 0 -47.5 9.5
t-19.5 26t1.5 39.5t16.5 50l25 65h-2q-30 -50 -55 -86t-49.5 -59t-52 -34t-61.5 -11zM179 65q14 0 38 25.5t49.5 64.5t49.5 84.5t39 84.5q34 91 30.5 128.5t-33.5 37.5q-24 0 -47.5 -19.5t-45 -51t-40 -72t-32 -82.5t-21 -82t-7.5 -71q0 -47 20 -47z" />
    <glyph glyph-name="a" unicode="&#xe0;" horiz-adv-x="582" 
d="M89 -13q-44 0 -67 30.5t-23 75.5t16 94t43 96.5t63 90.5t75 75.5t79 52t76 19.5q26 0 41.5 -15t18.5 -32h1l17 46h140l-149 -405q-15 -40 -16 -56t15 -16q9 0 24.5 8t34 25t38.5 45t40 67l29 -12q-21 -43 -46 -78t-55.5 -59.5t-68 -38t-82.5 -13.5q-32 0 -47.5 9.5
t-19.5 26t1.5 39.5t16.5 50l25 65h-2q-30 -50 -55 -86t-49.5 -59t-52 -34t-61.5 -11zM179 65q14 0 38 25.5t49.5 64.5t49.5 84.5t39 84.5q34 91 30.5 128.5t-33.5 37.5q-24 0 -47.5 -19.5t-45 -51t-40 -72t-32 -82.5t-21 -82t-7.5 -71q0 -47 20 -47z" />
    <glyph glyph-name="b" unicode="b" horiz-adv-x="556" 
d="M152 -13q-33 0 -62.5 5.5t-48.5 21t-24 44t11 75.5l183 531l-70 59l2 6l264 73l-124 -358l-63 -139h2q35 59 65 100.5t59 67t57.5 37t60.5 11.5q27 0 46 -9t31 -24t17 -35t5 -42q0 -46 -18.5 -95.5t-49.5 -97t-72 -89.5t-87 -73.5t-93.5 -50t-90.5 -18.5zM178 18
q24 0 50 18.5t50.5 49.5t46.5 70.5t38.5 81.5t26 83.5t9.5 75.5q0 46 -21 46q-18 0 -44.5 -26.5t-54 -66.5t-52.5 -86.5t-39 -85.5q-17 -45 -27 -76t-12 -49.5t5 -26.5t24 -8z" />
    <glyph glyph-name="c" unicode="c" horiz-adv-x="461" 
d="M162 -13q-72 0 -110 39t-38 112q0 45 14 91t38.5 88.5t57.5 79.5t71.5 64.5t80 43.5t83.5 16q49 0 82.5 -21.5t33.5 -66.5q0 -40 -37.5 -64.5t-103.5 -16.5q20 77 20 107t-22 30q-23 0 -50.5 -27.5t-51 -72t-39 -101.5t-15.5 -116q0 -63 17 -89.5t52 -26.5
q33 0 69.5 30.5t70.5 107.5l29 -11q-44 -108 -108.5 -152t-143.5 -44z" />
    <glyph glyph-name="c" unicode="&#x10d;" horiz-adv-x="461" 
d="M162 -13q-72 0 -110 39t-38 112q0 45 14 91t38.5 88.5t57.5 79.5t71.5 64.5t80 43.5t83.5 16q49 0 82.5 -21.5t33.5 -66.5q0 -40 -37.5 -64.5t-103.5 -16.5q20 77 20 107t-22 30q-23 0 -50.5 -27.5t-51 -72t-39 -101.5t-15.5 -116q0 -63 17 -89.5t52 -26.5
q33 0 69.5 30.5t70.5 107.5l29 -11q-44 -108 -108.5 -152t-143.5 -44z" />
    <glyph glyph-name="c" unicode="&#x10b;" horiz-adv-x="461" 
d="M162 -13q-72 0 -110 39t-38 112q0 45 14 91t38.5 88.5t57.5 79.5t71.5 64.5t80 43.5t83.5 16q49 0 82.5 -21.5t33.5 -66.5q0 -40 -37.5 -64.5t-103.5 -16.5q20 77 20 107t-22 30q-23 0 -50.5 -27.5t-51 -72t-39 -101.5t-15.5 -116q0 -63 17 -89.5t52 -26.5
q33 0 69.5 30.5t70.5 107.5l29 -11q-44 -108 -108.5 -152t-143.5 -44z" />
    <glyph glyph-name="c" unicode="&#x109;" horiz-adv-x="461" 
d="M162 -13q-72 0 -110 39t-38 112q0 45 14 91t38.5 88.5t57.5 79.5t71.5 64.5t80 43.5t83.5 16q49 0 82.5 -21.5t33.5 -66.5q0 -40 -37.5 -64.5t-103.5 -16.5q20 77 20 107t-22 30q-23 0 -50.5 -27.5t-51 -72t-39 -101.5t-15.5 -116q0 -63 17 -89.5t52 -26.5
q33 0 69.5 30.5t70.5 107.5l29 -11q-44 -108 -108.5 -152t-143.5 -44z" />
    <glyph glyph-name="c" unicode="&#x107;" horiz-adv-x="461" 
d="M162 -13q-72 0 -110 39t-38 112q0 45 14 91t38.5 88.5t57.5 79.5t71.5 64.5t80 43.5t83.5 16q49 0 82.5 -21.5t33.5 -66.5q0 -40 -37.5 -64.5t-103.5 -16.5q20 77 20 107t-22 30q-23 0 -50.5 -27.5t-51 -72t-39 -101.5t-15.5 -116q0 -63 17 -89.5t52 -26.5
q33 0 69.5 30.5t70.5 107.5l29 -11q-44 -108 -108.5 -152t-143.5 -44z" />
    <glyph glyph-name="c" unicode="&#xe7;" horiz-adv-x="461" 
d="M162 -13q-72 0 -110 39t-38 112q0 45 14 91t38.5 88.5t57.5 79.5t71.5 64.5t80 43.5t83.5 16q49 0 82.5 -21.5t33.5 -66.5q0 -40 -37.5 -64.5t-103.5 -16.5q20 77 20 107t-22 30q-23 0 -50.5 -27.5t-51 -72t-39 -101.5t-15.5 -116q0 -63 17 -89.5t52 -26.5
q33 0 69.5 30.5t70.5 107.5l29 -11q-44 -108 -108.5 -152t-143.5 -44z" />
    <glyph glyph-name="d" unicode="d" horiz-adv-x="598" 
d="M94 -13q-42 0 -67.5 30.5t-25.5 81.5q0 45 16 93.5t42.5 95.5t61.5 89t73.5 74t78 51t74.5 19q51 0 63 -47h1l63 190l-70 59l2 6l261 73l-229 -687q-14 -41 -16 -56.5t14 -15.5q9 0 24.5 8t34 25t38.5 45t40 67l29 -12q-21 -43 -46 -78t-55.5 -59.5t-68 -38t-82.5 -13.5
q-32 0 -47 9.5t-19 26t1.5 39.5t15.5 50l27 74h-2q-30 -53 -57 -90.5t-54.5 -61.5t-57 -35.5t-63.5 -11.5zM189 65q16 0 39.5 25.5t48 63t47 80.5t36.5 79q34 88 28.5 132.5t-38.5 44.5q-25 0 -48 -18.5t-43.5 -48.5t-37.5 -68.5t-29.5 -79.5t-19.5 -81t-7 -72
q0 -31 5.5 -44t18.5 -13z" />
    <glyph glyph-name="d" unicode="&#x111;" horiz-adv-x="598" 
d="M94 -13q-42 0 -67.5 30.5t-25.5 81.5q0 45 16 93.5t42.5 95.5t61.5 89t73.5 74t78 51t74.5 19q51 0 63 -47h1l63 190l-70 59l2 6l261 73l-229 -687q-14 -41 -16 -56.5t14 -15.5q9 0 24.5 8t34 25t38.5 45t40 67l29 -12q-21 -43 -46 -78t-55.5 -59.5t-68 -38t-82.5 -13.5
q-32 0 -47 9.5t-19 26t1.5 39.5t15.5 50l27 74h-2q-30 -53 -57 -90.5t-54.5 -61.5t-57 -35.5t-63.5 -11.5zM189 65q16 0 39.5 25.5t48 63t47 80.5t36.5 79q34 88 28.5 132.5t-38.5 44.5q-25 0 -48 -18.5t-43.5 -48.5t-37.5 -68.5t-29.5 -79.5t-19.5 -81t-7 -72
q0 -31 5.5 -44t18.5 -13z" />
    <glyph glyph-name="d" unicode="&#x10f;" horiz-adv-x="598" 
d="M94 -13q-42 0 -67.5 30.5t-25.5 81.5q0 45 16 93.5t42.5 95.5t61.5 89t73.5 74t78 51t74.5 19q51 0 63 -47h1l63 190l-70 59l2 6l261 73l-229 -687q-14 -41 -16 -56.5t14 -15.5q9 0 24.5 8t34 25t38.5 45t40 67l29 -12q-21 -43 -46 -78t-55.5 -59.5t-68 -38t-82.5 -13.5
q-32 0 -47 9.5t-19 26t1.5 39.5t15.5 50l27 74h-2q-30 -53 -57 -90.5t-54.5 -61.5t-57 -35.5t-63.5 -11.5zM189 65q16 0 39.5 25.5t48 63t47 80.5t36.5 79q34 88 28.5 132.5t-38.5 44.5q-25 0 -48 -18.5t-43.5 -48.5t-37.5 -68.5t-29.5 -79.5t-19.5 -81t-7 -72
q0 -31 5.5 -44t18.5 -13z" />
    <glyph glyph-name="d" unicode="&#xf0;" horiz-adv-x="598" 
d="M94 -13q-42 0 -67.5 30.5t-25.5 81.5q0 45 16 93.5t42.5 95.5t61.5 89t73.5 74t78 51t74.5 19q51 0 63 -47h1l63 190l-70 59l2 6l261 73l-229 -687q-14 -41 -16 -56.5t14 -15.5q9 0 24.5 8t34 25t38.5 45t40 67l29 -12q-21 -43 -46 -78t-55.5 -59.5t-68 -38t-82.5 -13.5
q-32 0 -47 9.5t-19 26t1.5 39.5t15.5 50l27 74h-2q-30 -53 -57 -90.5t-54.5 -61.5t-57 -35.5t-63.5 -11.5zM189 65q16 0 39.5 25.5t48 63t47 80.5t36.5 79q34 88 28.5 132.5t-38.5 44.5q-25 0 -48 -18.5t-43.5 -48.5t-37.5 -68.5t-29.5 -79.5t-19.5 -81t-7 -72
q0 -31 5.5 -44t18.5 -13z" />
    <glyph glyph-name="e" unicode="e" horiz-adv-x="477" 
d="M170 -13q-72 0 -114.5 39t-42.5 112t34.5 142t87 122.5t114.5 86t118 32.5q60 0 89.5 -29t29.5 -70q0 -28 -13.5 -57t-37.5 -53l-236 -2q-11 -32 -17.5 -66.5t-6.5 -71.5q0 -63 18.5 -89.5t53.5 -26.5q78 0 151 143l30 -10q-48 -102 -109 -152t-149 -50zM372 490
q-22 0 -44.5 -11.5t-44.5 -32t-41 -49.5t-34 -63h25q40 0 72.5 12.5t55.5 31t35.5 39.5t12.5 39q0 34 -37 34z" />
    <glyph glyph-name="e" unicode="&#x11b;" horiz-adv-x="477" 
d="M170 -13q-72 0 -114.5 39t-42.5 112t34.5 142t87 122.5t114.5 86t118 32.5q60 0 89.5 -29t29.5 -70q0 -28 -13.5 -57t-37.5 -53l-236 -2q-11 -32 -17.5 -66.5t-6.5 -71.5q0 -63 18.5 -89.5t53.5 -26.5q78 0 151 143l30 -10q-48 -102 -109 -152t-149 -50zM372 490
q-22 0 -44.5 -11.5t-44.5 -32t-41 -49.5t-34 -63h25q40 0 72.5 12.5t55.5 31t35.5 39.5t12.5 39q0 34 -37 34z" />
    <glyph glyph-name="e" unicode="&#x119;" horiz-adv-x="477" 
d="M170 -13q-72 0 -114.5 39t-42.5 112t34.5 142t87 122.5t114.5 86t118 32.5q60 0 89.5 -29t29.5 -70q0 -28 -13.5 -57t-37.5 -53l-236 -2q-11 -32 -17.5 -66.5t-6.5 -71.5q0 -63 18.5 -89.5t53.5 -26.5q78 0 151 143l30 -10q-48 -102 -109 -152t-149 -50zM372 490
q-22 0 -44.5 -11.5t-44.5 -32t-41 -49.5t-34 -63h25q40 0 72.5 12.5t55.5 31t35.5 39.5t12.5 39q0 34 -37 34z" />
    <glyph glyph-name="e" unicode="&#x117;" horiz-adv-x="477" 
d="M170 -13q-72 0 -114.5 39t-42.5 112t34.5 142t87 122.5t114.5 86t118 32.5q60 0 89.5 -29t29.5 -70q0 -28 -13.5 -57t-37.5 -53l-236 -2q-11 -32 -17.5 -66.5t-6.5 -71.5q0 -63 18.5 -89.5t53.5 -26.5q78 0 151 143l30 -10q-48 -102 -109 -152t-149 -50zM372 490
q-22 0 -44.5 -11.5t-44.5 -32t-41 -49.5t-34 -63h25q40 0 72.5 12.5t55.5 31t35.5 39.5t12.5 39q0 34 -37 34z" />
    <glyph glyph-name="e" unicode="&#x115;" horiz-adv-x="477" 
d="M170 -13q-72 0 -114.5 39t-42.5 112t34.5 142t87 122.5t114.5 86t118 32.5q60 0 89.5 -29t29.5 -70q0 -28 -13.5 -57t-37.5 -53l-236 -2q-11 -32 -17.5 -66.5t-6.5 -71.5q0 -63 18.5 -89.5t53.5 -26.5q78 0 151 143l30 -10q-48 -102 -109 -152t-149 -50zM372 490
q-22 0 -44.5 -11.5t-44.5 -32t-41 -49.5t-34 -63h25q40 0 72.5 12.5t55.5 31t35.5 39.5t12.5 39q0 34 -37 34z" />
    <glyph glyph-name="e" unicode="&#x113;" horiz-adv-x="477" 
d="M170 -13q-72 0 -114.5 39t-42.5 112t34.5 142t87 122.5t114.5 86t118 32.5q60 0 89.5 -29t29.5 -70q0 -28 -13.5 -57t-37.5 -53l-236 -2q-11 -32 -17.5 -66.5t-6.5 -71.5q0 -63 18.5 -89.5t53.5 -26.5q78 0 151 143l30 -10q-48 -102 -109 -152t-149 -50zM372 490
q-22 0 -44.5 -11.5t-44.5 -32t-41 -49.5t-34 -63h25q40 0 72.5 12.5t55.5 31t35.5 39.5t12.5 39q0 34 -37 34z" />
    <glyph glyph-name="e" unicode="&#xeb;" horiz-adv-x="477" 
d="M170 -13q-72 0 -114.5 39t-42.5 112t34.5 142t87 122.5t114.5 86t118 32.5q60 0 89.5 -29t29.5 -70q0 -28 -13.5 -57t-37.5 -53l-236 -2q-11 -32 -17.5 -66.5t-6.5 -71.5q0 -63 18.5 -89.5t53.5 -26.5q78 0 151 143l30 -10q-48 -102 -109 -152t-149 -50zM372 490
q-22 0 -44.5 -11.5t-44.5 -32t-41 -49.5t-34 -63h25q40 0 72.5 12.5t55.5 31t35.5 39.5t12.5 39q0 34 -37 34z" />
    <glyph glyph-name="e" unicode="&#xea;" horiz-adv-x="477" 
d="M170 -13q-72 0 -114.5 39t-42.5 112t34.5 142t87 122.5t114.5 86t118 32.5q60 0 89.5 -29t29.5 -70q0 -28 -13.5 -57t-37.5 -53l-236 -2q-11 -32 -17.5 -66.5t-6.5 -71.5q0 -63 18.5 -89.5t53.5 -26.5q78 0 151 143l30 -10q-48 -102 -109 -152t-149 -50zM372 490
q-22 0 -44.5 -11.5t-44.5 -32t-41 -49.5t-34 -63h25q40 0 72.5 12.5t55.5 31t35.5 39.5t12.5 39q0 34 -37 34z" />
    <glyph glyph-name="e" unicode="&#xe9;" horiz-adv-x="477" 
d="M170 -13q-72 0 -114.5 39t-42.5 112t34.5 142t87 122.5t114.5 86t118 32.5q60 0 89.5 -29t29.5 -70q0 -28 -13.5 -57t-37.5 -53l-236 -2q-11 -32 -17.5 -66.5t-6.5 -71.5q0 -63 18.5 -89.5t53.5 -26.5q78 0 151 143l30 -10q-48 -102 -109 -152t-149 -50zM372 490
q-22 0 -44.5 -11.5t-44.5 -32t-41 -49.5t-34 -63h25q40 0 72.5 12.5t55.5 31t35.5 39.5t12.5 39q0 34 -37 34z" />
    <glyph glyph-name="e" unicode="&#xe8;" horiz-adv-x="477" 
d="M170 -13q-72 0 -114.5 39t-42.5 112t34.5 142t87 122.5t114.5 86t118 32.5q60 0 89.5 -29t29.5 -70q0 -28 -13.5 -57t-37.5 -53l-236 -2q-11 -32 -17.5 -66.5t-6.5 -71.5q0 -63 18.5 -89.5t53.5 -26.5q78 0 151 143l30 -10q-48 -102 -109 -152t-149 -50zM372 490
q-22 0 -44.5 -11.5t-44.5 -32t-41 -49.5t-34 -63h25q40 0 72.5 12.5t55.5 31t35.5 39.5t12.5 39q0 34 -37 34z" />
    <glyph glyph-name="f" unicode="f" horiz-adv-x="359" 
d="M-123 -261q-42 0 -63.5 22t-21.5 52q0 25 19.5 46.5t48.5 23.5q13 -14 26 -28.5t26 -26t25 -19t23 -7.5q9 0 17 4.5t16 19.5t16.5 43t18.5 75l103 481h-83l10 32q29 2 50.5 9t39 21.5t32.5 37.5t32 57q29 60 59.5 99t60 62t57 32t50.5 9q35 0 52.5 -16t17.5 -43
q0 -22 -10 -44.5t-28 -33.5q-25 8 -48.5 11.5t-44.5 3.5q-33 0 -58 -8.5t-41.5 -22.5t-24.5 -32t-8 -36q0 -28 16 -44.5t52 -16.5h135l-50 -77h-126l-54 -244q-27 -120 -69 -204t-89.5 -137t-96 -77t-87.5 -24z" />
    <glyph glyph-name="g" unicode="g" horiz-adv-x="534" 
d="M221 169q-8 0 -15.5 0.5t-14.5 1.5l-66 -52l146 -85q68 -40 104 -73.5t36 -71.5q0 -39 -25.5 -67t-65 -47t-88 -28t-94.5 -9q-62 0 -113 8.5t-87 23.5t-56 36.5t-20 48.5q0 22 16 42.5t44 38t66 32.5t82 28l-33 92l116 90q-45 13 -70.5 42.5t-25.5 71.5q0 45 22 86t59 73
t86 51t103 19q48 0 84 -15t57 -41l48 91h123l-54 -99h-112q17 -26 17 -59q0 -45 -22 -86t-59 -73t-85.5 -51t-102.5 -19zM254 202q42 0 68.5 48.5t26.5 133.5q0 51 -13.5 77.5t-42.5 26.5q-42 0 -68.5 -48.5t-26.5 -133.5q0 -51 13.5 -77.5t42.5 -26.5zM-36 -117
q0 -26 16.5 -47t44 -36t65 -23t79.5 -8q54 0 90.5 13.5t36.5 39.5q0 9 -3.5 17.5t-14 19t-30 24t-51.5 31.5l-111 63q-59 -22 -90.5 -42t-31.5 -52z" />
    <glyph glyph-name="g" unicode="&#x123;" horiz-adv-x="534" 
d="M221 169q-8 0 -15.5 0.5t-14.5 1.5l-66 -52l146 -85q68 -40 104 -73.5t36 -71.5q0 -39 -25.5 -67t-65 -47t-88 -28t-94.5 -9q-62 0 -113 8.5t-87 23.5t-56 36.5t-20 48.5q0 22 16 42.5t44 38t66 32.5t82 28l-33 92l116 90q-45 13 -70.5 42.5t-25.5 71.5q0 45 22 86t59 73
t86 51t103 19q48 0 84 -15t57 -41l48 91h123l-54 -99h-112q17 -26 17 -59q0 -45 -22 -86t-59 -73t-85.5 -51t-102.5 -19zM254 202q42 0 68.5 48.5t26.5 133.5q0 51 -13.5 77.5t-42.5 26.5q-42 0 -68.5 -48.5t-26.5 -133.5q0 -51 13.5 -77.5t42.5 -26.5zM-36 -117
q0 -26 16.5 -47t44 -36t65 -23t79.5 -8q54 0 90.5 13.5t36.5 39.5q0 9 -3.5 17.5t-14 19t-30 24t-51.5 31.5l-111 63q-59 -22 -90.5 -42t-31.5 -52z" />
    <glyph glyph-name="g" unicode="&#x121;" horiz-adv-x="534" 
d="M221 169q-8 0 -15.5 0.5t-14.5 1.5l-66 -52l146 -85q68 -40 104 -73.5t36 -71.5q0 -39 -25.5 -67t-65 -47t-88 -28t-94.5 -9q-62 0 -113 8.5t-87 23.5t-56 36.5t-20 48.5q0 22 16 42.5t44 38t66 32.5t82 28l-33 92l116 90q-45 13 -70.5 42.5t-25.5 71.5q0 45 22 86t59 73
t86 51t103 19q48 0 84 -15t57 -41l48 91h123l-54 -99h-112q17 -26 17 -59q0 -45 -22 -86t-59 -73t-85.5 -51t-102.5 -19zM254 202q42 0 68.5 48.5t26.5 133.5q0 51 -13.5 77.5t-42.5 26.5q-42 0 -68.5 -48.5t-26.5 -133.5q0 -51 13.5 -77.5t42.5 -26.5zM-36 -117
q0 -26 16.5 -47t44 -36t65 -23t79.5 -8q54 0 90.5 13.5t36.5 39.5q0 9 -3.5 17.5t-14 19t-30 24t-51.5 31.5l-111 63q-59 -22 -90.5 -42t-31.5 -52z" />
    <glyph glyph-name="g" unicode="&#x11f;" horiz-adv-x="534" 
d="M221 169q-8 0 -15.5 0.5t-14.5 1.5l-66 -52l146 -85q68 -40 104 -73.5t36 -71.5q0 -39 -25.5 -67t-65 -47t-88 -28t-94.5 -9q-62 0 -113 8.5t-87 23.5t-56 36.5t-20 48.5q0 22 16 42.5t44 38t66 32.5t82 28l-33 92l116 90q-45 13 -70.5 42.5t-25.5 71.5q0 45 22 86t59 73
t86 51t103 19q48 0 84 -15t57 -41l48 91h123l-54 -99h-112q17 -26 17 -59q0 -45 -22 -86t-59 -73t-85.5 -51t-102.5 -19zM254 202q42 0 68.5 48.5t26.5 133.5q0 51 -13.5 77.5t-42.5 26.5q-42 0 -68.5 -48.5t-26.5 -133.5q0 -51 13.5 -77.5t42.5 -26.5zM-36 -117
q0 -26 16.5 -47t44 -36t65 -23t79.5 -8q54 0 90.5 13.5t36.5 39.5q0 9 -3.5 17.5t-14 19t-30 24t-51.5 31.5l-111 63q-59 -22 -90.5 -42t-31.5 -52z" />
    <glyph glyph-name="g" unicode="&#x11d;" horiz-adv-x="534" 
d="M221 169q-8 0 -15.5 0.5t-14.5 1.5l-66 -52l146 -85q68 -40 104 -73.5t36 -71.5q0 -39 -25.5 -67t-65 -47t-88 -28t-94.5 -9q-62 0 -113 8.5t-87 23.5t-56 36.5t-20 48.5q0 22 16 42.5t44 38t66 32.5t82 28l-33 92l116 90q-45 13 -70.5 42.5t-25.5 71.5q0 45 22 86t59 73
t86 51t103 19q48 0 84 -15t57 -41l48 91h123l-54 -99h-112q17 -26 17 -59q0 -45 -22 -86t-59 -73t-85.5 -51t-102.5 -19zM254 202q42 0 68.5 48.5t26.5 133.5q0 51 -13.5 77.5t-42.5 26.5q-42 0 -68.5 -48.5t-26.5 -133.5q0 -51 13.5 -77.5t42.5 -26.5zM-36 -117
q0 -26 16.5 -47t44 -36t65 -23t79.5 -8q54 0 90.5 13.5t36.5 39.5q0 9 -3.5 17.5t-14 19t-30 24t-51.5 31.5l-111 63q-59 -22 -90.5 -42t-31.5 -52z" />
    <glyph glyph-name="h" unicode="h" horiz-adv-x="588" 
d="M282 -13q-35 0 -62.5 17.5t-27.5 54.5q0 16 7 29.5t18.5 22.5t26 14t28.5 4q12 -38 21 -59t16 -31t11.5 -12t7.5 -2q14 0 30.5 31t31 80.5t24 110t9.5 120.5q0 76 -35 76q-18 0 -44 -27t-54 -67.5t-53 -87t-41 -85.5q-7 -18 -16.5 -41t-19 -46.5t-18 -44t-12.5 -33.5
l-147 -21l233 674l-70 59l2 6l263 73l-123 -358l-58 -139h2q35 59 65 100.5t59 67t57.5 37t60.5 11.5q59 0 84 -35t25 -89q0 -46 -14.5 -94.5t-38 -94t-54.5 -85.5t-64.5 -70.5t-67 -48t-62.5 -17.5z" />
    <glyph glyph-name="h" unicode="&#x127;" horiz-adv-x="588" 
d="M282 -13q-35 0 -62.5 17.5t-27.5 54.5q0 16 7 29.5t18.5 22.5t26 14t28.5 4q12 -38 21 -59t16 -31t11.5 -12t7.5 -2q14 0 30.5 31t31 80.5t24 110t9.5 120.5q0 76 -35 76q-18 0 -44 -27t-54 -67.5t-53 -87t-41 -85.5q-7 -18 -16.5 -41t-19 -46.5t-18 -44t-12.5 -33.5
l-147 -21l233 674l-70 59l2 6l263 73l-123 -358l-58 -139h2q35 59 65 100.5t59 67t57.5 37t60.5 11.5q59 0 84 -35t25 -89q0 -46 -14.5 -94.5t-38 -94t-54.5 -85.5t-64.5 -70.5t-67 -48t-62.5 -17.5z" />
    <glyph glyph-name="h" unicode="&#x125;" horiz-adv-x="588" 
d="M282 -13q-35 0 -62.5 17.5t-27.5 54.5q0 16 7 29.5t18.5 22.5t26 14t28.5 4q12 -38 21 -59t16 -31t11.5 -12t7.5 -2q14 0 30.5 31t31 80.5t24 110t9.5 120.5q0 76 -35 76q-18 0 -44 -27t-54 -67.5t-53 -87t-41 -85.5q-7 -18 -16.5 -41t-19 -46.5t-18 -44t-12.5 -33.5
l-147 -21l233 674l-70 59l2 6l263 73l-123 -358l-58 -139h2q35 59 65 100.5t59 67t57.5 37t60.5 11.5q59 0 84 -35t25 -89q0 -46 -14.5 -94.5t-38 -94t-54.5 -85.5t-64.5 -70.5t-67 -48t-62.5 -17.5z" />
    <glyph glyph-name="i" unicode="i" horiz-adv-x="357" 
d="M102 -13q-32 0 -49.5 9t-24 24.5t-3 37.5t13.5 49l130 337h-93l11 32l262 53l-159 -414q-15 -40 -16.5 -56t14.5 -16q9 0 24.5 8t34 25t38.5 45t40 67l29 -12q-21 -43 -46 -78t-55.5 -59.5t-68 -38t-82.5 -13.5zM238 710q0 18 7.5 35t20.5 30t30 20.5t35 7.5
q19 0 36 -7.5t30 -20.5t20.5 -30t7.5 -35q0 -19 -7.5 -36t-20.5 -30t-30 -20.5t-36 -7.5q-18 0 -35 7.5t-30 20.5t-20.5 30t-7.5 36z" />
    <glyph glyph-name="i" unicode="&#x1ecb;" horiz-adv-x="357" 
d="M102 -13q-32 0 -49.5 9t-24 24.5t-3 37.5t13.5 49l130 337h-93l11 32l262 53l-159 -414q-15 -40 -16.5 -56t14.5 -16q9 0 24.5 8t34 25t38.5 45t40 67l29 -12q-21 -43 -46 -78t-55.5 -59.5t-68 -38t-82.5 -13.5zM238 710q0 18 7.5 35t20.5 30t30 20.5t35 7.5
q19 0 36 -7.5t30 -20.5t20.5 -30t7.5 -35q0 -19 -7.5 -36t-20.5 -30t-30 -20.5t-36 -7.5q-18 0 -35 7.5t-30 20.5t-20.5 30t-7.5 36z" />
    <glyph glyph-name="i" unicode="&#x131;" horiz-adv-x="357" 
d="M102 -13q-32 0 -49.5 9t-24 24.5t-3 37.5t13.5 49l130 337h-93l11 32l262 53l-159 -414q-15 -40 -16.5 -56t14.5 -16q9 0 24.5 8t34 25t38.5 45t40 67l29 -12q-21 -43 -46 -78t-55.5 -59.5t-68 -38t-82.5 -13.5zM238 710q0 18 7.5 35t20.5 30t30 20.5t35 7.5
q19 0 36 -7.5t30 -20.5t20.5 -30t7.5 -35q0 -19 -7.5 -36t-20.5 -30t-30 -20.5t-36 -7.5q-18 0 -35 7.5t-30 20.5t-20.5 30t-7.5 36z" />
    <glyph glyph-name="i" unicode="&#x12f;" horiz-adv-x="357" 
d="M102 -13q-32 0 -49.5 9t-24 24.5t-3 37.5t13.5 49l130 337h-93l11 32l262 53l-159 -414q-15 -40 -16.5 -56t14.5 -16q9 0 24.5 8t34 25t38.5 45t40 67l29 -12q-21 -43 -46 -78t-55.5 -59.5t-68 -38t-82.5 -13.5zM238 710q0 18 7.5 35t20.5 30t30 20.5t35 7.5
q19 0 36 -7.5t30 -20.5t20.5 -30t7.5 -35q0 -19 -7.5 -36t-20.5 -30t-30 -20.5t-36 -7.5q-18 0 -35 7.5t-30 20.5t-20.5 30t-7.5 36z" />
    <glyph glyph-name="i" unicode="&#x12d;" horiz-adv-x="357" 
d="M102 -13q-32 0 -49.5 9t-24 24.5t-3 37.5t13.5 49l130 337h-93l11 32l262 53l-159 -414q-15 -40 -16.5 -56t14.5 -16q9 0 24.5 8t34 25t38.5 45t40 67l29 -12q-21 -43 -46 -78t-55.5 -59.5t-68 -38t-82.5 -13.5zM238 710q0 18 7.5 35t20.5 30t30 20.5t35 7.5
q19 0 36 -7.5t30 -20.5t20.5 -30t7.5 -35q0 -19 -7.5 -36t-20.5 -30t-30 -20.5t-36 -7.5q-18 0 -35 7.5t-30 20.5t-20.5 30t-7.5 36z" />
    <glyph glyph-name="i" unicode="&#x12b;" horiz-adv-x="357" 
d="M102 -13q-32 0 -49.5 9t-24 24.5t-3 37.5t13.5 49l130 337h-93l11 32l262 53l-159 -414q-15 -40 -16.5 -56t14.5 -16q9 0 24.5 8t34 25t38.5 45t40 67l29 -12q-21 -43 -46 -78t-55.5 -59.5t-68 -38t-82.5 -13.5zM238 710q0 18 7.5 35t20.5 30t30 20.5t35 7.5
q19 0 36 -7.5t30 -20.5t20.5 -30t7.5 -35q0 -19 -7.5 -36t-20.5 -30t-30 -20.5t-36 -7.5q-18 0 -35 7.5t-30 20.5t-20.5 30t-7.5 36z" />
    <glyph glyph-name="i" unicode="&#x129;" horiz-adv-x="357" 
d="M102 -13q-32 0 -49.5 9t-24 24.5t-3 37.5t13.5 49l130 337h-93l11 32l262 53l-159 -414q-15 -40 -16.5 -56t14.5 -16q9 0 24.5 8t34 25t38.5 45t40 67l29 -12q-21 -43 -46 -78t-55.5 -59.5t-68 -38t-82.5 -13.5zM238 710q0 18 7.5 35t20.5 30t30 20.5t35 7.5
q19 0 36 -7.5t30 -20.5t20.5 -30t7.5 -35q0 -19 -7.5 -36t-20.5 -30t-30 -20.5t-36 -7.5q-18 0 -35 7.5t-30 20.5t-20.5 30t-7.5 36z" />
    <glyph glyph-name="i" unicode="&#xef;" horiz-adv-x="357" 
d="M102 -13q-32 0 -49.5 9t-24 24.5t-3 37.5t13.5 49l130 337h-93l11 32l262 53l-159 -414q-15 -40 -16.5 -56t14.5 -16q9 0 24.5 8t34 25t38.5 45t40 67l29 -12q-21 -43 -46 -78t-55.5 -59.5t-68 -38t-82.5 -13.5zM238 710q0 18 7.5 35t20.5 30t30 20.5t35 7.5
q19 0 36 -7.5t30 -20.5t20.5 -30t7.5 -35q0 -19 -7.5 -36t-20.5 -30t-30 -20.5t-36 -7.5q-18 0 -35 7.5t-30 20.5t-20.5 30t-7.5 36z" />
    <glyph glyph-name="i" unicode="&#xee;" horiz-adv-x="357" 
d="M102 -13q-32 0 -49.5 9t-24 24.5t-3 37.5t13.5 49l130 337h-93l11 32l262 53l-159 -414q-15 -40 -16.5 -56t14.5 -16q9 0 24.5 8t34 25t38.5 45t40 67l29 -12q-21 -43 -46 -78t-55.5 -59.5t-68 -38t-82.5 -13.5zM238 710q0 18 7.5 35t20.5 30t30 20.5t35 7.5
q19 0 36 -7.5t30 -20.5t20.5 -30t7.5 -35q0 -19 -7.5 -36t-20.5 -30t-30 -20.5t-36 -7.5q-18 0 -35 7.5t-30 20.5t-20.5 30t-7.5 36z" />
    <glyph glyph-name="i" unicode="&#xed;" horiz-adv-x="357" 
d="M102 -13q-32 0 -49.5 9t-24 24.5t-3 37.5t13.5 49l130 337h-93l11 32l262 53l-159 -414q-15 -40 -16.5 -56t14.5 -16q9 0 24.5 8t34 25t38.5 45t40 67l29 -12q-21 -43 -46 -78t-55.5 -59.5t-68 -38t-82.5 -13.5zM238 710q0 18 7.5 35t20.5 30t30 20.5t35 7.5
q19 0 36 -7.5t30 -20.5t20.5 -30t7.5 -35q0 -19 -7.5 -36t-20.5 -30t-30 -20.5t-36 -7.5q-18 0 -35 7.5t-30 20.5t-20.5 30t-7.5 36z" />
    <glyph glyph-name="i" unicode="&#xec;" horiz-adv-x="357" 
d="M102 -13q-32 0 -49.5 9t-24 24.5t-3 37.5t13.5 49l130 337h-93l11 32l262 53l-159 -414q-15 -40 -16.5 -56t14.5 -16q9 0 24.5 8t34 25t38.5 45t40 67l29 -12q-21 -43 -46 -78t-55.5 -59.5t-68 -38t-82.5 -13.5zM238 710q0 18 7.5 35t20.5 30t30 20.5t35 7.5
q19 0 36 -7.5t30 -20.5t20.5 -30t7.5 -35q0 -19 -7.5 -36t-20.5 -30t-30 -20.5t-36 -7.5q-18 0 -35 7.5t-30 20.5t-20.5 30t-7.5 36z" />
    <glyph glyph-name="j" unicode="j" horiz-adv-x="316" 
d="M-242 -235q47 30 83.5 55.5t66.5 55.5t55 69.5t48 96.5l163 402h-93l11 32l264 53l-207 -511q-13 -32 -24 -54.5t-26.5 -41.5t-38.5 -35t-59 -34l-230 -115zM251 710q0 18 7.5 35t20.5 30t30 20.5t35 7.5q19 0 36 -7.5t30 -20.5t20.5 -30t7.5 -35q0 -19 -7.5 -36
t-20.5 -30t-30 -20.5t-36 -7.5q-18 0 -35 7.5t-30 20.5t-20.5 30t-7.5 36z" />
    <glyph glyph-name="j" unicode="&#x237;" horiz-adv-x="316" 
d="M-242 -235q47 30 83.5 55.5t66.5 55.5t55 69.5t48 96.5l163 402h-93l11 32l264 53l-207 -511q-13 -32 -24 -54.5t-26.5 -41.5t-38.5 -35t-59 -34l-230 -115zM251 710q0 18 7.5 35t20.5 30t30 20.5t35 7.5q19 0 36 -7.5t30 -20.5t20.5 -30t7.5 -35q0 -19 -7.5 -36
t-20.5 -30t-30 -20.5t-36 -7.5q-18 0 -35 7.5t-30 20.5t-20.5 30t-7.5 36z" />
    <glyph glyph-name="j" unicode="&#x135;" horiz-adv-x="316" 
d="M-242 -235q47 30 83.5 55.5t66.5 55.5t55 69.5t48 96.5l163 402h-93l11 32l264 53l-207 -511q-13 -32 -24 -54.5t-26.5 -41.5t-38.5 -35t-59 -34l-230 -115zM251 710q0 18 7.5 35t20.5 30t30 20.5t35 7.5q19 0 36 -7.5t30 -20.5t20.5 -30t7.5 -35q0 -19 -7.5 -36
t-20.5 -30t-30 -20.5t-36 -7.5q-18 0 -35 7.5t-30 20.5t-20.5 30t-7.5 36z" />
    <glyph glyph-name="k" unicode="k" horiz-adv-x="602" 
d="M418 -28q-55 0 -93.5 37t-63.5 119l-39 127q-3 -8 -6 -15t-5 -15l-31 -94l-38 -118l-159 -23l232 674l-70 59l2 6l264 73l-102 -295l-53 -132h3q46 70 96.5 108t113.5 38q51 0 72 -21.5t21 -53.5q0 -54 -50 -98.5t-136 -69.5l54 -193q6 -23 12.5 -36t12.5 -19.5t11.5 -8
t10.5 -1.5q6 0 15 3.5t19.5 15.5t21.5 33.5t23 57.5l29 -9q-15 -45 -31.5 -74t-36.5 -45.5t-44.5 -23t-54.5 -6.5zM423 476q-25 0 -53.5 -19t-55.5 -50.5t-51.5 -71t-40.5 -79.5q54 0 97 14.5t73 39t46.5 56.5t16.5 66q0 20 -6.5 32t-25.5 12z" />
    <glyph glyph-name="k" unicode="&#x137;" horiz-adv-x="602" 
d="M418 -28q-55 0 -93.5 37t-63.5 119l-39 127q-3 -8 -6 -15t-5 -15l-31 -94l-38 -118l-159 -23l232 674l-70 59l2 6l264 73l-102 -295l-53 -132h3q46 70 96.5 108t113.5 38q51 0 72 -21.5t21 -53.5q0 -54 -50 -98.5t-136 -69.5l54 -193q6 -23 12.5 -36t12.5 -19.5t11.5 -8
t10.5 -1.5q6 0 15 3.5t19.5 15.5t21.5 33.5t23 57.5l29 -9q-15 -45 -31.5 -74t-36.5 -45.5t-44.5 -23t-54.5 -6.5zM423 476q-25 0 -53.5 -19t-55.5 -50.5t-51.5 -71t-40.5 -79.5q54 0 97 14.5t73 39t46.5 56.5t16.5 66q0 20 -6.5 32t-25.5 12z" />
    <glyph glyph-name="l" unicode="l" horiz-adv-x="339" 
d="M88 -13q-32 0 -49.5 8.5t-23.5 24.5t-2.5 38t12.5 49l191 557l-70 59l2 6l264 73l-236 -687q-14 -41 -16 -56.5t14 -15.5q9 0 24.5 8t34 25t38.5 45t40 67l29 -12q-21 -43 -46 -78t-55.5 -59.5t-68 -38t-82.5 -13.5z" />
    <glyph glyph-name="l" unicode="&#x142;" horiz-adv-x="339" 
d="M88 -13q-32 0 -49.5 8.5t-23.5 24.5t-2.5 38t12.5 49l191 557l-70 59l2 6l264 73l-236 -687q-14 -41 -16 -56.5t14 -15.5q9 0 24.5 8t34 25t38.5 45t40 67l29 -12q-21 -43 -46 -78t-55.5 -59.5t-68 -38t-82.5 -13.5z" />
    <glyph glyph-name="l" unicode="&#x140;" horiz-adv-x="339" 
d="M88 -13q-32 0 -49.5 8.5t-23.5 24.5t-2.5 38t12.5 49l191 557l-70 59l2 6l264 73l-236 -687q-14 -41 -16 -56.5t14 -15.5q9 0 24.5 8t34 25t38.5 45t40 67l29 -12q-21 -43 -46 -78t-55.5 -59.5t-68 -38t-82.5 -13.5z" />
    <glyph glyph-name="l" unicode="&#x13e;" horiz-adv-x="339" 
d="M88 -13q-32 0 -49.5 8.5t-23.5 24.5t-2.5 38t12.5 49l191 557l-70 59l2 6l264 73l-236 -687q-14 -41 -16 -56.5t14 -15.5q9 0 24.5 8t34 25t38.5 45t40 67l29 -12q-21 -43 -46 -78t-55.5 -59.5t-68 -38t-82.5 -13.5z" />
    <glyph glyph-name="l" unicode="&#x13c;" horiz-adv-x="339" 
d="M88 -13q-32 0 -49.5 8.5t-23.5 24.5t-2.5 38t12.5 49l191 557l-70 59l2 6l264 73l-236 -687q-14 -41 -16 -56.5t14 -15.5q9 0 24.5 8t34 25t38.5 45t40 67l29 -12q-21 -43 -46 -78t-55.5 -59.5t-68 -38t-82.5 -13.5z" />
    <glyph glyph-name="l" unicode="&#x13a;" horiz-adv-x="339" 
d="M88 -13q-32 0 -49.5 8.5t-23.5 24.5t-2.5 38t12.5 49l191 557l-70 59l2 6l264 73l-236 -687q-14 -41 -16 -56.5t14 -15.5q9 0 24.5 8t34 25t38.5 45t40 67l29 -12q-21 -43 -46 -78t-55.5 -59.5t-68 -38t-82.5 -13.5z" />
    <glyph glyph-name="m" unicode="m" horiz-adv-x="906" 
d="M642 -13q-32 0 -51 9t-26.5 25t-4 38t15.5 48l108 224q17 35 26 57.5t12 36t0 18.5t-10 5q-19 0 -50 -38t-69 -97q-23 -35 -47 -73.5t-46 -78t-41 -77.5t-31 -71l-153 -23l134 341q14 36 22.5 58.5t12.5 35.5t2 18t-9 5q-19 0 -50 -38t-69 -97q-23 -35 -47 -73.5t-46 -78
t-41 -77.5t-31 -71l-157 -23l175 454h-93l11 32l261 53l-136 -336h1q29 54 54.5 96.5t47.5 76.5q28 43 52.5 72.5t48.5 48t48 26.5t50 8q59 0 66 -51t-31 -137l-62 -140h1q29 54 54.5 96.5t47.5 76.5q28 43 52.5 72.5t48.5 48t48 26.5t50 8q29 0 47.5 -13.5t24.5 -38
t-0.5 -59t-27.5 -77.5l-105 -218q-18 -38 -18 -55t16 -17q9 0 24.5 8t34 25t38.5 45t40 67l29 -12q-21 -43 -46 -78t-55.5 -59.5t-68 -38t-82.5 -13.5z" />
    <glyph glyph-name="n" unicode="n" 
d="M367 -13q-32 0 -51 9t-26.5 25t-4 38t15.5 48l108 224q17 35 26 57.5t12 36t0 18.5t-10 5q-19 0 -50 -38t-69 -97q-23 -35 -47 -73.5t-46 -78t-41 -77.5t-31 -71l-157 -23l175 454h-93l11 32l261 53l-136 -336h1q29 54 54.5 96.5t47.5 76.5q28 43 52.5 72.5t48.5 48
t48 26.5t50 8q29 0 47.5 -13.5t24.5 -38t-0.5 -59t-27.5 -77.5l-105 -218q-18 -38 -18 -55t16 -17q9 0 24.5 8t34 25t38.5 45t40 67l29 -12q-21 -43 -46 -78t-55.5 -59.5t-68 -38t-82.5 -13.5z" />
    <glyph glyph-name="n" unicode="&#x14b;" 
d="M367 -13q-32 0 -51 9t-26.5 25t-4 38t15.5 48l108 224q17 35 26 57.5t12 36t0 18.5t-10 5q-19 0 -50 -38t-69 -97q-23 -35 -47 -73.5t-46 -78t-41 -77.5t-31 -71l-157 -23l175 454h-93l11 32l261 53l-136 -336h1q29 54 54.5 96.5t47.5 76.5q28 43 52.5 72.5t48.5 48
t48 26.5t50 8q29 0 47.5 -13.5t24.5 -38t-0.5 -59t-27.5 -77.5l-105 -218q-18 -38 -18 -55t16 -17q9 0 24.5 8t34 25t38.5 45t40 67l29 -12q-21 -43 -46 -78t-55.5 -59.5t-68 -38t-82.5 -13.5z" />
    <glyph glyph-name="n" unicode="&#x148;" 
d="M367 -13q-32 0 -51 9t-26.5 25t-4 38t15.5 48l108 224q17 35 26 57.5t12 36t0 18.5t-10 5q-19 0 -50 -38t-69 -97q-23 -35 -47 -73.5t-46 -78t-41 -77.5t-31 -71l-157 -23l175 454h-93l11 32l261 53l-136 -336h1q29 54 54.5 96.5t47.5 76.5q28 43 52.5 72.5t48.5 48
t48 26.5t50 8q29 0 47.5 -13.5t24.5 -38t-0.5 -59t-27.5 -77.5l-105 -218q-18 -38 -18 -55t16 -17q9 0 24.5 8t34 25t38.5 45t40 67l29 -12q-21 -43 -46 -78t-55.5 -59.5t-68 -38t-82.5 -13.5z" />
    <glyph glyph-name="n" unicode="&#x146;" 
d="M367 -13q-32 0 -51 9t-26.5 25t-4 38t15.5 48l108 224q17 35 26 57.5t12 36t0 18.5t-10 5q-19 0 -50 -38t-69 -97q-23 -35 -47 -73.5t-46 -78t-41 -77.5t-31 -71l-157 -23l175 454h-93l11 32l261 53l-136 -336h1q29 54 54.5 96.5t47.5 76.5q28 43 52.5 72.5t48.5 48
t48 26.5t50 8q29 0 47.5 -13.5t24.5 -38t-0.5 -59t-27.5 -77.5l-105 -218q-18 -38 -18 -55t16 -17q9 0 24.5 8t34 25t38.5 45t40 67l29 -12q-21 -43 -46 -78t-55.5 -59.5t-68 -38t-82.5 -13.5z" />
    <glyph glyph-name="n" unicode="&#x144;" 
d="M367 -13q-32 0 -51 9t-26.5 25t-4 38t15.5 48l108 224q17 35 26 57.5t12 36t0 18.5t-10 5q-19 0 -50 -38t-69 -97q-23 -35 -47 -73.5t-46 -78t-41 -77.5t-31 -71l-157 -23l175 454h-93l11 32l261 53l-136 -336h1q29 54 54.5 96.5t47.5 76.5q28 43 52.5 72.5t48.5 48
t48 26.5t50 8q29 0 47.5 -13.5t24.5 -38t-0.5 -59t-27.5 -77.5l-105 -218q-18 -38 -18 -55t16 -17q9 0 24.5 8t34 25t38.5 45t40 67l29 -12q-21 -43 -46 -78t-55.5 -59.5t-68 -38t-82.5 -13.5z" />
    <glyph glyph-name="n" unicode="&#xf1;" 
d="M367 -13q-32 0 -51 9t-26.5 25t-4 38t15.5 48l108 224q17 35 26 57.5t12 36t0 18.5t-10 5q-19 0 -50 -38t-69 -97q-23 -35 -47 -73.5t-46 -78t-41 -77.5t-31 -71l-157 -23l175 454h-93l11 32l261 53l-136 -336h1q29 54 54.5 96.5t47.5 76.5q28 43 52.5 72.5t48.5 48
t48 26.5t50 8q29 0 47.5 -13.5t24.5 -38t-0.5 -59t-27.5 -77.5l-105 -218q-18 -38 -18 -55t16 -17q9 0 24.5 8t34 25t38.5 45t40 67l29 -12q-21 -43 -46 -78t-55.5 -59.5t-68 -38t-82.5 -13.5z" />
    <glyph glyph-name="o" unicode="o" horiz-adv-x="520" 
d="M160 -13q-36 0 -63 11.5t-45.5 31.5t-28 46t-9.5 56q0 68 29 137.5t77.5 125.5t111.5 91t131 35q36 0 63 -11.5t45.5 -31.5t28 -46t9.5 -56q0 -69 -29 -138.5t-77.5 -125t-111.5 -90.5t-131 -35zM217 29q19 0 42 25t42 72t31.5 114.5t12.5 152.5q0 86 -37 86
q-21 0 -43.5 -25t-42 -72t-32 -114.5t-12.5 -152.5q0 -42 9 -64t30 -22z" />
    <glyph glyph-name="o" unicode="&#x1ecd;" horiz-adv-x="520" 
d="M160 -13q-36 0 -63 11.5t-45.5 31.5t-28 46t-9.5 56q0 68 29 137.5t77.5 125.5t111.5 91t131 35q36 0 63 -11.5t45.5 -31.5t28 -46t9.5 -56q0 -69 -29 -138.5t-77.5 -125t-111.5 -90.5t-131 -35zM217 29q19 0 42 25t42 72t31.5 114.5t12.5 152.5q0 86 -37 86
q-21 0 -43.5 -25t-42 -72t-32 -114.5t-12.5 -152.5q0 -42 9 -64t30 -22z" />
    <glyph glyph-name="o" unicode="&#x153;" horiz-adv-x="520" 
d="M160 -13q-36 0 -63 11.5t-45.5 31.5t-28 46t-9.5 56q0 68 29 137.5t77.5 125.5t111.5 91t131 35q36 0 63 -11.5t45.5 -31.5t28 -46t9.5 -56q0 -69 -29 -138.5t-77.5 -125t-111.5 -90.5t-131 -35zM217 29q19 0 42 25t42 72t31.5 114.5t12.5 152.5q0 86 -37 86
q-21 0 -43.5 -25t-42 -72t-32 -114.5t-12.5 -152.5q0 -42 9 -64t30 -22z" />
    <glyph glyph-name="o" unicode="&#x151;" horiz-adv-x="520" 
d="M160 -13q-36 0 -63 11.5t-45.5 31.5t-28 46t-9.5 56q0 68 29 137.5t77.5 125.5t111.5 91t131 35q36 0 63 -11.5t45.5 -31.5t28 -46t9.5 -56q0 -69 -29 -138.5t-77.5 -125t-111.5 -90.5t-131 -35zM217 29q19 0 42 25t42 72t31.5 114.5t12.5 152.5q0 86 -37 86
q-21 0 -43.5 -25t-42 -72t-32 -114.5t-12.5 -152.5q0 -42 9 -64t30 -22z" />
    <glyph glyph-name="o" unicode="&#x14f;" horiz-adv-x="520" 
d="M160 -13q-36 0 -63 11.5t-45.5 31.5t-28 46t-9.5 56q0 68 29 137.5t77.5 125.5t111.5 91t131 35q36 0 63 -11.5t45.5 -31.5t28 -46t9.5 -56q0 -69 -29 -138.5t-77.5 -125t-111.5 -90.5t-131 -35zM217 29q19 0 42 25t42 72t31.5 114.5t12.5 152.5q0 86 -37 86
q-21 0 -43.5 -25t-42 -72t-32 -114.5t-12.5 -152.5q0 -42 9 -64t30 -22z" />
    <glyph glyph-name="o" unicode="&#x14d;" horiz-adv-x="520" 
d="M160 -13q-36 0 -63 11.5t-45.5 31.5t-28 46t-9.5 56q0 68 29 137.5t77.5 125.5t111.5 91t131 35q36 0 63 -11.5t45.5 -31.5t28 -46t9.5 -56q0 -69 -29 -138.5t-77.5 -125t-111.5 -90.5t-131 -35zM217 29q19 0 42 25t42 72t31.5 114.5t12.5 152.5q0 86 -37 86
q-21 0 -43.5 -25t-42 -72t-32 -114.5t-12.5 -152.5q0 -42 9 -64t30 -22z" />
    <glyph glyph-name="o" unicode="&#xf8;" horiz-adv-x="520" 
d="M160 -13q-36 0 -63 11.5t-45.5 31.5t-28 46t-9.5 56q0 68 29 137.5t77.5 125.5t111.5 91t131 35q36 0 63 -11.5t45.5 -31.5t28 -46t9.5 -56q0 -69 -29 -138.5t-77.5 -125t-111.5 -90.5t-131 -35zM217 29q19 0 42 25t42 72t31.5 114.5t12.5 152.5q0 86 -37 86
q-21 0 -43.5 -25t-42 -72t-32 -114.5t-12.5 -152.5q0 -42 9 -64t30 -22z" />
    <glyph glyph-name="o" unicode="&#xf6;" horiz-adv-x="520" 
d="M160 -13q-36 0 -63 11.5t-45.5 31.5t-28 46t-9.5 56q0 68 29 137.5t77.5 125.5t111.5 91t131 35q36 0 63 -11.5t45.5 -31.5t28 -46t9.5 -56q0 -69 -29 -138.5t-77.5 -125t-111.5 -90.5t-131 -35zM217 29q19 0 42 25t42 72t31.5 114.5t12.5 152.5q0 86 -37 86
q-21 0 -43.5 -25t-42 -72t-32 -114.5t-12.5 -152.5q0 -42 9 -64t30 -22z" />
    <glyph glyph-name="o" unicode="&#xf5;" horiz-adv-x="520" 
d="M160 -13q-36 0 -63 11.5t-45.5 31.5t-28 46t-9.5 56q0 68 29 137.5t77.5 125.5t111.5 91t131 35q36 0 63 -11.5t45.5 -31.5t28 -46t9.5 -56q0 -69 -29 -138.5t-77.5 -125t-111.5 -90.5t-131 -35zM217 29q19 0 42 25t42 72t31.5 114.5t12.5 152.5q0 86 -37 86
q-21 0 -43.5 -25t-42 -72t-32 -114.5t-12.5 -152.5q0 -42 9 -64t30 -22z" />
    <glyph glyph-name="o" unicode="&#xf4;" horiz-adv-x="520" 
d="M160 -13q-36 0 -63 11.5t-45.5 31.5t-28 46t-9.5 56q0 68 29 137.5t77.5 125.5t111.5 91t131 35q36 0 63 -11.5t45.5 -31.5t28 -46t9.5 -56q0 -69 -29 -138.5t-77.5 -125t-111.5 -90.5t-131 -35zM217 29q19 0 42 25t42 72t31.5 114.5t12.5 152.5q0 86 -37 86
q-21 0 -43.5 -25t-42 -72t-32 -114.5t-12.5 -152.5q0 -42 9 -64t30 -22z" />
    <glyph glyph-name="o" unicode="&#xf3;" horiz-adv-x="520" 
d="M160 -13q-36 0 -63 11.5t-45.5 31.5t-28 46t-9.5 56q0 68 29 137.5t77.5 125.5t111.5 91t131 35q36 0 63 -11.5t45.5 -31.5t28 -46t9.5 -56q0 -69 -29 -138.5t-77.5 -125t-111.5 -90.5t-131 -35zM217 29q19 0 42 25t42 72t31.5 114.5t12.5 152.5q0 86 -37 86
q-21 0 -43.5 -25t-42 -72t-32 -114.5t-12.5 -152.5q0 -42 9 -64t30 -22z" />
    <glyph glyph-name="o" unicode="&#xf2;" horiz-adv-x="520" 
d="M160 -13q-36 0 -63 11.5t-45.5 31.5t-28 46t-9.5 56q0 68 29 137.5t77.5 125.5t111.5 91t131 35q36 0 63 -11.5t45.5 -31.5t28 -46t9.5 -56q0 -69 -29 -138.5t-77.5 -125t-111.5 -90.5t-131 -35zM217 29q19 0 42 25t42 72t31.5 114.5t12.5 152.5q0 86 -37 86
q-21 0 -43.5 -25t-42 -72t-32 -114.5t-12.5 -152.5q0 -42 9 -64t30 -22z" />
    <glyph glyph-name="p" unicode="p" horiz-adv-x="584" 
d="M163 444h-93l11 32l259 53l-29 -84q28 32 67.5 54t80.5 22q57 0 90 -34.5t33 -90.5q0 -73 -35 -146.5t-94.5 -132t-136.5 -94.5t-161 -33l-82 -238h-148zM356 437q-29 0 -55 -21l-136 -397q34 0 65.5 16t59.5 43t51.5 61.5t40 71.5t26 73.5t9.5 66.5q0 48 -18 67t-43 19z
" />
    <glyph glyph-name="p" unicode="&#xfe;" horiz-adv-x="584" 
d="M163 444h-93l11 32l259 53l-29 -84q28 32 67.5 54t80.5 22q57 0 90 -34.5t33 -90.5q0 -73 -35 -146.5t-94.5 -132t-136.5 -94.5t-161 -33l-82 -238h-148zM356 437q-29 0 -55 -21l-136 -397q34 0 65.5 16t59.5 43t51.5 61.5t40 71.5t26 73.5t9.5 66.5q0 48 -18 67t-43 19z
" />
    <glyph glyph-name="q" unicode="q" horiz-adv-x="551" 
d="M258 41l46 104h-2q-26 -42 -50 -71.5t-49 -49t-51.5 -28.5t-57.5 -9q-42 0 -67.5 30.5t-25.5 81.5q0 45 16 93.5t42.5 95.5t61.5 89t73.5 74t78 51t74.5 19q25 0 43 -12t25 -35h2l16 46h139l-264 -768h-148zM165 122q0 -31 5.5 -44t18.5 -13q16 0 39.5 25.5t48 63
t47 80.5t36.5 79q34 88 28.5 132.5t-38.5 44.5q-25 0 -48 -18.5t-43.5 -48.5t-37.5 -68.5t-29.5 -79.5t-19.5 -81t-7 -72z" />
    <glyph glyph-name="r" unicode="r" horiz-adv-x="483" 
d="M170 444h-93l11 32l261 53l-130 -330h1l102 182q20 35 37 61t34 43t36.5 25.5t44.5 8.5q29 0 48 -18t19 -50q0 -81 -101 -98q-12 25 -22.5 43t-25.5 41q-21 -32 -46 -73t-53.5 -89t-59.5 -101.5t-62 -109.5l-18 -51l-157 -23z" />
    <glyph glyph-name="r" unicode="&#x159;" horiz-adv-x="483" 
d="M170 444h-93l11 32l261 53l-130 -330h1l102 182q20 35 37 61t34 43t36.5 25.5t44.5 8.5q29 0 48 -18t19 -50q0 -81 -101 -98q-12 25 -22.5 43t-25.5 41q-21 -32 -46 -73t-53.5 -89t-59.5 -101.5t-62 -109.5l-18 -51l-157 -23z" />
    <glyph glyph-name="r" unicode="&#x157;" horiz-adv-x="483" 
d="M170 444h-93l11 32l261 53l-130 -330h1l102 182q20 35 37 61t34 43t36.5 25.5t44.5 8.5q29 0 48 -18t19 -50q0 -81 -101 -98q-12 25 -22.5 43t-25.5 41q-21 -32 -46 -73t-53.5 -89t-59.5 -101.5t-62 -109.5l-18 -51l-157 -23z" />
    <glyph glyph-name="r" unicode="&#x155;" horiz-adv-x="483" 
d="M170 444h-93l11 32l261 53l-130 -330h1l102 182q20 35 37 61t34 43t36.5 25.5t44.5 8.5q29 0 48 -18t19 -50q0 -81 -101 -98q-12 25 -22.5 43t-25.5 41q-21 -32 -46 -73t-53.5 -89t-59.5 -101.5t-62 -109.5l-18 -51l-157 -23z" />
    <glyph glyph-name="s" unicode="s" horiz-adv-x="408" 
d="M112 -13q-27 0 -50 7.5t-40 20t-26.5 29.5t-9.5 35q0 20 8 35.5t21.5 25t31 14.5t36.5 4q13 -43 21.5 -69.5t15 -40.5t12 -19t12.5 -5q15 0 30 5.5t27 14t19 19.5t7 23q0 20 -16 45t-42 57l-33 41q-49 61 -49 119q0 37 20 69t52 55t71.5 36t78.5 13q51 0 81.5 -21
t30.5 -58q0 -14 -6 -29t-17.5 -26.5t-28.5 -18t-40 -3.5q-13 38 -20.5 62t-13 37t-10.5 17.5t-12 4.5q-12 0 -26 -4t-25.5 -11.5t-19 -17.5t-7.5 -22q0 -16 12.5 -39.5t41.5 -58.5l36 -45q12 -16 21 -29.5t15 -27t8.5 -27.5t2.5 -32q0 -43 -20 -77.5t-52 -58.5t-71 -36.5
t-77 -12.5z" />
    <glyph glyph-name="s" unicode="&#x219;" horiz-adv-x="408" 
d="M112 -13q-27 0 -50 7.5t-40 20t-26.5 29.5t-9.5 35q0 20 8 35.5t21.5 25t31 14.5t36.5 4q13 -43 21.5 -69.5t15 -40.5t12 -19t12.5 -5q15 0 30 5.5t27 14t19 19.5t7 23q0 20 -16 45t-42 57l-33 41q-49 61 -49 119q0 37 20 69t52 55t71.5 36t78.5 13q51 0 81.5 -21
t30.5 -58q0 -14 -6 -29t-17.5 -26.5t-28.5 -18t-40 -3.5q-13 38 -20.5 62t-13 37t-10.5 17.5t-12 4.5q-12 0 -26 -4t-25.5 -11.5t-19 -17.5t-7.5 -22q0 -16 12.5 -39.5t41.5 -58.5l36 -45q12 -16 21 -29.5t15 -27t8.5 -27.5t2.5 -32q0 -43 -20 -77.5t-52 -58.5t-71 -36.5
t-77 -12.5z" />
    <glyph glyph-name="s" unicode="&#x161;" horiz-adv-x="408" 
d="M112 -13q-27 0 -50 7.5t-40 20t-26.5 29.5t-9.5 35q0 20 8 35.5t21.5 25t31 14.5t36.5 4q13 -43 21.5 -69.5t15 -40.5t12 -19t12.5 -5q15 0 30 5.5t27 14t19 19.5t7 23q0 20 -16 45t-42 57l-33 41q-49 61 -49 119q0 37 20 69t52 55t71.5 36t78.5 13q51 0 81.5 -21
t30.5 -58q0 -14 -6 -29t-17.5 -26.5t-28.5 -18t-40 -3.5q-13 38 -20.5 62t-13 37t-10.5 17.5t-12 4.5q-12 0 -26 -4t-25.5 -11.5t-19 -17.5t-7.5 -22q0 -16 12.5 -39.5t41.5 -58.5l36 -45q12 -16 21 -29.5t15 -27t8.5 -27.5t2.5 -32q0 -43 -20 -77.5t-52 -58.5t-71 -36.5
t-77 -12.5z" />
    <glyph glyph-name="s" unicode="&#x15f;" horiz-adv-x="408" 
d="M112 -13q-27 0 -50 7.5t-40 20t-26.5 29.5t-9.5 35q0 20 8 35.5t21.5 25t31 14.5t36.5 4q13 -43 21.5 -69.5t15 -40.5t12 -19t12.5 -5q15 0 30 5.5t27 14t19 19.5t7 23q0 20 -16 45t-42 57l-33 41q-49 61 -49 119q0 37 20 69t52 55t71.5 36t78.5 13q51 0 81.5 -21
t30.5 -58q0 -14 -6 -29t-17.5 -26.5t-28.5 -18t-40 -3.5q-13 38 -20.5 62t-13 37t-10.5 17.5t-12 4.5q-12 0 -26 -4t-25.5 -11.5t-19 -17.5t-7.5 -22q0 -16 12.5 -39.5t41.5 -58.5l36 -45q12 -16 21 -29.5t15 -27t8.5 -27.5t2.5 -32q0 -43 -20 -77.5t-52 -58.5t-71 -36.5
t-77 -12.5z" />
    <glyph glyph-name="s" unicode="&#x15d;" horiz-adv-x="408" 
d="M112 -13q-27 0 -50 7.5t-40 20t-26.5 29.5t-9.5 35q0 20 8 35.5t21.5 25t31 14.5t36.5 4q13 -43 21.5 -69.5t15 -40.5t12 -19t12.5 -5q15 0 30 5.5t27 14t19 19.5t7 23q0 20 -16 45t-42 57l-33 41q-49 61 -49 119q0 37 20 69t52 55t71.5 36t78.5 13q51 0 81.5 -21
t30.5 -58q0 -14 -6 -29t-17.5 -26.5t-28.5 -18t-40 -3.5q-13 38 -20.5 62t-13 37t-10.5 17.5t-12 4.5q-12 0 -26 -4t-25.5 -11.5t-19 -17.5t-7.5 -22q0 -16 12.5 -39.5t41.5 -58.5l36 -45q12 -16 21 -29.5t15 -27t8.5 -27.5t2.5 -32q0 -43 -20 -77.5t-52 -58.5t-71 -36.5
t-77 -12.5z" />
    <glyph glyph-name="s" unicode="&#x15b;" horiz-adv-x="408" 
d="M112 -13q-27 0 -50 7.5t-40 20t-26.5 29.5t-9.5 35q0 20 8 35.5t21.5 25t31 14.5t36.5 4q13 -43 21.5 -69.5t15 -40.5t12 -19t12.5 -5q15 0 30 5.5t27 14t19 19.5t7 23q0 20 -16 45t-42 57l-33 41q-49 61 -49 119q0 37 20 69t52 55t71.5 36t78.5 13q51 0 81.5 -21
t30.5 -58q0 -14 -6 -29t-17.5 -26.5t-28.5 -18t-40 -3.5q-13 38 -20.5 62t-13 37t-10.5 17.5t-12 4.5q-12 0 -26 -4t-25.5 -11.5t-19 -17.5t-7.5 -22q0 -16 12.5 -39.5t41.5 -58.5l36 -45q12 -16 21 -29.5t15 -27t8.5 -27.5t2.5 -32q0 -43 -20 -77.5t-52 -58.5t-71 -36.5
t-77 -12.5z" />
    <glyph glyph-name="s" unicode="&#xdf;" horiz-adv-x="408" 
d="M112 -13q-27 0 -50 7.5t-40 20t-26.5 29.5t-9.5 35q0 20 8 35.5t21.5 25t31 14.5t36.5 4q13 -43 21.5 -69.5t15 -40.5t12 -19t12.5 -5q15 0 30 5.5t27 14t19 19.5t7 23q0 20 -16 45t-42 57l-33 41q-49 61 -49 119q0 37 20 69t52 55t71.5 36t78.5 13q51 0 81.5 -21
t30.5 -58q0 -14 -6 -29t-17.5 -26.5t-28.5 -18t-40 -3.5q-13 38 -20.5 62t-13 37t-10.5 17.5t-12 4.5q-12 0 -26 -4t-25.5 -11.5t-19 -17.5t-7.5 -22q0 -16 12.5 -39.5t41.5 -58.5l36 -45q12 -16 21 -29.5t15 -27t8.5 -27.5t2.5 -32q0 -43 -20 -77.5t-52 -58.5t-71 -36.5
t-77 -12.5z" />
    <glyph glyph-name="t" unicode="t" horiz-adv-x="411" 
d="M105 -13q-32 0 -49.5 9t-24 25t-3.5 38t14 48l128 318h-109l30 77h110l47 116h147l-46 -116h129l-31 -77h-129l-124 -310q-16 -40 -17.5 -56t14.5 -16q9 0 24.5 8t34 25t38.5 45t40 67l29 -12q-21 -43 -46 -78t-55.5 -59.5t-68 -38t-82.5 -13.5z" />
    <glyph glyph-name="t" unicode="&#x21b;" horiz-adv-x="411" 
d="M105 -13q-32 0 -49.5 9t-24 25t-3.5 38t14 48l128 318h-109l30 77h110l47 116h147l-46 -116h129l-31 -77h-129l-124 -310q-16 -40 -17.5 -56t14.5 -16q9 0 24.5 8t34 25t38.5 45t40 67l29 -12q-21 -43 -46 -78t-55.5 -59.5t-68 -38t-82.5 -13.5z" />
    <glyph glyph-name="t" unicode="&#x167;" horiz-adv-x="411" 
d="M105 -13q-32 0 -49.5 9t-24 25t-3.5 38t14 48l128 318h-109l30 77h110l47 116h147l-46 -116h129l-31 -77h-129l-124 -310q-16 -40 -17.5 -56t14.5 -16q9 0 24.5 8t34 25t38.5 45t40 67l29 -12q-21 -43 -46 -78t-55.5 -59.5t-68 -38t-82.5 -13.5z" />
    <glyph glyph-name="t" unicode="&#x165;" horiz-adv-x="411" 
d="M105 -13q-32 0 -49.5 9t-24 25t-3.5 38t14 48l128 318h-109l30 77h110l47 116h147l-46 -116h129l-31 -77h-129l-124 -310q-16 -40 -17.5 -56t14.5 -16q9 0 24.5 8t34 25t38.5 45t40 67l29 -12q-21 -43 -46 -78t-55.5 -59.5t-68 -38t-82.5 -13.5z" />
    <glyph glyph-name="t" unicode="&#x163;" horiz-adv-x="411" 
d="M105 -13q-32 0 -49.5 9t-24 25t-3.5 38t14 48l128 318h-109l30 77h110l47 116h147l-46 -116h129l-31 -77h-129l-124 -310q-16 -40 -17.5 -56t14.5 -16q9 0 24.5 8t34 25t38.5 45t40 67l29 -12q-21 -43 -46 -78t-55.5 -59.5t-68 -38t-82.5 -13.5z" />
    <glyph glyph-name="u" unicode="u" horiz-adv-x="627" 
d="M205 177q-16 -36 -25 -58.5t-12 -35.5t-0.5 -18t9.5 -5q19 0 50 38t69 97q23 34 46 72.5t44.5 77.5t40.5 76.5t34 71.5l156 26l-156 -404q-15 -40 -16.5 -56t14.5 -16q9 0 24.5 8t34 25t38.5 45t40 67l29 -12q-21 -43 -46 -78t-55.5 -59.5t-68 -38t-82.5 -13.5
q-32 0 -50 9t-24.5 24.5t-3 37.5t14.5 49l77 189h-1q-24 -44 -47.5 -83t-43.5 -69q-27 -43 -51.5 -73t-47.5 -48.5t-47 -27t-51 -8.5q-59 0 -71 50t27 138l119 269h-93l11 32l272 53z" />
    <glyph glyph-name="u" unicode="&#x1ee5;" horiz-adv-x="627" 
d="M205 177q-16 -36 -25 -58.5t-12 -35.5t-0.5 -18t9.5 -5q19 0 50 38t69 97q23 34 46 72.5t44.5 77.5t40.5 76.5t34 71.5l156 26l-156 -404q-15 -40 -16.5 -56t14.5 -16q9 0 24.5 8t34 25t38.5 45t40 67l29 -12q-21 -43 -46 -78t-55.5 -59.5t-68 -38t-82.5 -13.5
q-32 0 -50 9t-24.5 24.5t-3 37.5t14.5 49l77 189h-1q-24 -44 -47.5 -83t-43.5 -69q-27 -43 -51.5 -73t-47.5 -48.5t-47 -27t-51 -8.5q-59 0 -71 50t27 138l119 269h-93l11 32l272 53z" />
    <glyph glyph-name="u" unicode="&#x173;" horiz-adv-x="627" 
d="M205 177q-16 -36 -25 -58.5t-12 -35.5t-0.5 -18t9.5 -5q19 0 50 38t69 97q23 34 46 72.5t44.5 77.5t40.5 76.5t34 71.5l156 26l-156 -404q-15 -40 -16.5 -56t14.5 -16q9 0 24.5 8t34 25t38.5 45t40 67l29 -12q-21 -43 -46 -78t-55.5 -59.5t-68 -38t-82.5 -13.5
q-32 0 -50 9t-24.5 24.5t-3 37.5t14.5 49l77 189h-1q-24 -44 -47.5 -83t-43.5 -69q-27 -43 -51.5 -73t-47.5 -48.5t-47 -27t-51 -8.5q-59 0 -71 50t27 138l119 269h-93l11 32l272 53z" />
    <glyph glyph-name="u" unicode="&#x171;" horiz-adv-x="627" 
d="M205 177q-16 -36 -25 -58.5t-12 -35.5t-0.5 -18t9.5 -5q19 0 50 38t69 97q23 34 46 72.5t44.5 77.5t40.5 76.5t34 71.5l156 26l-156 -404q-15 -40 -16.5 -56t14.5 -16q9 0 24.5 8t34 25t38.5 45t40 67l29 -12q-21 -43 -46 -78t-55.5 -59.5t-68 -38t-82.5 -13.5
q-32 0 -50 9t-24.5 24.5t-3 37.5t14.5 49l77 189h-1q-24 -44 -47.5 -83t-43.5 -69q-27 -43 -51.5 -73t-47.5 -48.5t-47 -27t-51 -8.5q-59 0 -71 50t27 138l119 269h-93l11 32l272 53z" />
    <glyph glyph-name="u" unicode="&#x16f;" horiz-adv-x="627" 
d="M205 177q-16 -36 -25 -58.5t-12 -35.5t-0.5 -18t9.5 -5q19 0 50 38t69 97q23 34 46 72.5t44.5 77.5t40.5 76.5t34 71.5l156 26l-156 -404q-15 -40 -16.5 -56t14.5 -16q9 0 24.5 8t34 25t38.5 45t40 67l29 -12q-21 -43 -46 -78t-55.5 -59.5t-68 -38t-82.5 -13.5
q-32 0 -50 9t-24.5 24.5t-3 37.5t14.5 49l77 189h-1q-24 -44 -47.5 -83t-43.5 -69q-27 -43 -51.5 -73t-47.5 -48.5t-47 -27t-51 -8.5q-59 0 -71 50t27 138l119 269h-93l11 32l272 53z" />
    <glyph glyph-name="u" unicode="&#x16d;" horiz-adv-x="627" 
d="M205 177q-16 -36 -25 -58.5t-12 -35.5t-0.5 -18t9.5 -5q19 0 50 38t69 97q23 34 46 72.5t44.5 77.5t40.5 76.5t34 71.5l156 26l-156 -404q-15 -40 -16.5 -56t14.5 -16q9 0 24.5 8t34 25t38.5 45t40 67l29 -12q-21 -43 -46 -78t-55.5 -59.5t-68 -38t-82.5 -13.5
q-32 0 -50 9t-24.5 24.5t-3 37.5t14.5 49l77 189h-1q-24 -44 -47.5 -83t-43.5 -69q-27 -43 -51.5 -73t-47.5 -48.5t-47 -27t-51 -8.5q-59 0 -71 50t27 138l119 269h-93l11 32l272 53z" />
    <glyph glyph-name="u" unicode="&#x16b;" horiz-adv-x="627" 
d="M205 177q-16 -36 -25 -58.5t-12 -35.5t-0.5 -18t9.5 -5q19 0 50 38t69 97q23 34 46 72.5t44.5 77.5t40.5 76.5t34 71.5l156 26l-156 -404q-15 -40 -16.5 -56t14.5 -16q9 0 24.5 8t34 25t38.5 45t40 67l29 -12q-21 -43 -46 -78t-55.5 -59.5t-68 -38t-82.5 -13.5
q-32 0 -50 9t-24.5 24.5t-3 37.5t14.5 49l77 189h-1q-24 -44 -47.5 -83t-43.5 -69q-27 -43 -51.5 -73t-47.5 -48.5t-47 -27t-51 -8.5q-59 0 -71 50t27 138l119 269h-93l11 32l272 53z" />
    <glyph glyph-name="u" unicode="&#x169;" horiz-adv-x="627" 
d="M205 177q-16 -36 -25 -58.5t-12 -35.5t-0.5 -18t9.5 -5q19 0 50 38t69 97q23 34 46 72.5t44.5 77.5t40.5 76.5t34 71.5l156 26l-156 -404q-15 -40 -16.5 -56t14.5 -16q9 0 24.5 8t34 25t38.5 45t40 67l29 -12q-21 -43 -46 -78t-55.5 -59.5t-68 -38t-82.5 -13.5
q-32 0 -50 9t-24.5 24.5t-3 37.5t14.5 49l77 189h-1q-24 -44 -47.5 -83t-43.5 -69q-27 -43 -51.5 -73t-47.5 -48.5t-47 -27t-51 -8.5q-59 0 -71 50t27 138l119 269h-93l11 32l272 53z" />
    <glyph glyph-name="u" unicode="&#xfc;" horiz-adv-x="627" 
d="M205 177q-16 -36 -25 -58.5t-12 -35.5t-0.5 -18t9.5 -5q19 0 50 38t69 97q23 34 46 72.5t44.5 77.5t40.5 76.5t34 71.5l156 26l-156 -404q-15 -40 -16.5 -56t14.5 -16q9 0 24.5 8t34 25t38.5 45t40 67l29 -12q-21 -43 -46 -78t-55.5 -59.5t-68 -38t-82.5 -13.5
q-32 0 -50 9t-24.5 24.5t-3 37.5t14.5 49l77 189h-1q-24 -44 -47.5 -83t-43.5 -69q-27 -43 -51.5 -73t-47.5 -48.5t-47 -27t-51 -8.5q-59 0 -71 50t27 138l119 269h-93l11 32l272 53z" />
    <glyph glyph-name="u" unicode="&#xfb;" horiz-adv-x="627" 
d="M205 177q-16 -36 -25 -58.5t-12 -35.5t-0.5 -18t9.5 -5q19 0 50 38t69 97q23 34 46 72.5t44.5 77.5t40.5 76.5t34 71.5l156 26l-156 -404q-15 -40 -16.5 -56t14.5 -16q9 0 24.5 8t34 25t38.5 45t40 67l29 -12q-21 -43 -46 -78t-55.5 -59.5t-68 -38t-82.5 -13.5
q-32 0 -50 9t-24.5 24.5t-3 37.5t14.5 49l77 189h-1q-24 -44 -47.5 -83t-43.5 -69q-27 -43 -51.5 -73t-47.5 -48.5t-47 -27t-51 -8.5q-59 0 -71 50t27 138l119 269h-93l11 32l272 53z" />
    <glyph glyph-name="u" unicode="&#xfa;" horiz-adv-x="627" 
d="M205 177q-16 -36 -25 -58.5t-12 -35.5t-0.5 -18t9.5 -5q19 0 50 38t69 97q23 34 46 72.5t44.5 77.5t40.5 76.5t34 71.5l156 26l-156 -404q-15 -40 -16.5 -56t14.5 -16q9 0 24.5 8t34 25t38.5 45t40 67l29 -12q-21 -43 -46 -78t-55.5 -59.5t-68 -38t-82.5 -13.5
q-32 0 -50 9t-24.5 24.5t-3 37.5t14.5 49l77 189h-1q-24 -44 -47.5 -83t-43.5 -69q-27 -43 -51.5 -73t-47.5 -48.5t-47 -27t-51 -8.5q-59 0 -71 50t27 138l119 269h-93l11 32l272 53z" />
    <glyph glyph-name="u" unicode="&#xf9;" horiz-adv-x="627" 
d="M205 177q-16 -36 -25 -58.5t-12 -35.5t-0.5 -18t9.5 -5q19 0 50 38t69 97q23 34 46 72.5t44.5 77.5t40.5 76.5t34 71.5l156 26l-156 -404q-15 -40 -16.5 -56t14.5 -16q9 0 24.5 8t34 25t38.5 45t40 67l29 -12q-21 -43 -46 -78t-55.5 -59.5t-68 -38t-82.5 -13.5
q-32 0 -50 9t-24.5 24.5t-3 37.5t14.5 49l77 189h-1q-24 -44 -47.5 -83t-43.5 -69q-27 -43 -51.5 -73t-47.5 -48.5t-47 -27t-51 -8.5q-59 0 -71 50t27 138l119 269h-93l11 32l272 53z" />
    <glyph glyph-name="v" unicode="v" horiz-adv-x="559" 
d="M554 421q0 -81 -30 -158.5t-81.5 -139t-120.5 -99t-146 -37.5q-53 0 -79 28t-26 74q0 39 14 77t39 74.5t60 72.5t76 70h-181l-43 -81h-32l90 200h292q-33 -37 -66.5 -74t-61 -74t-44.5 -73.5t-17 -73.5q0 -48 24.5 -65.5t62.5 -17.5q29 0 61 10.5t63 32.5t58 56t46 81
l-100 124q-4 21 0 38t14 29t24.5 19t31.5 7q14 0 27 -4.5t23 -16t16 -31t6 -48.5z" />
    <glyph glyph-name="w" unicode="w" horiz-adv-x="787" 
d="M154 -13q-45 0 -66.5 25.5t-21.5 72.5q0 38 15.5 75.5t42 75t62.5 74.5t78 73h-183l-43 -81h-32l90 200h292q-33 -38 -67 -75t-61.5 -73.5t-45 -73t-17.5 -73.5q0 -41 18 -62.5t52 -21.5q20 0 37.5 3.5t36.5 12.5q-2 14 -3.5 28.5t-1.5 30.5q0 54 16.5 111t43.5 104.5
t61 77.5t69 30q26 0 40 -16t14 -45q0 -22 -5.5 -51.5t-19.5 -64t-37 -72.5t-57 -77l-30 -33q22 -20 50 -29.5t59 -9.5q28 0 56 10t53 31.5t44.5 56t30.5 83.5l-100 124q-4 21 0 38t14 29t24.5 19t31.5 7q14 0 27 -4.5t23 -16t16 -31t6 -48.5q0 -42 -8 -91t-23.5 -97
t-39 -92.5t-54.5 -78.5t-70 -54.5t-85 -20.5q-48 0 -81 28t-50 73q-51 -44 -102 -72.5t-99 -28.5zM381 285q0 -30 7.5 -54t20.5 -44l20 19q26 26 42.5 47t26.5 38.5t13.5 32.5t3.5 28q0 23 -13.5 36t-36.5 13q-15 0 -30 -7t-27 -21t-19.5 -36t-7.5 -52z" />
    <glyph glyph-name="w" unicode="&#x1e85;" horiz-adv-x="787" 
d="M154 -13q-45 0 -66.5 25.5t-21.5 72.5q0 38 15.5 75.5t42 75t62.5 74.5t78 73h-183l-43 -81h-32l90 200h292q-33 -38 -67 -75t-61.5 -73.5t-45 -73t-17.5 -73.5q0 -41 18 -62.5t52 -21.5q20 0 37.5 3.5t36.5 12.5q-2 14 -3.5 28.5t-1.5 30.5q0 54 16.5 111t43.5 104.5
t61 77.5t69 30q26 0 40 -16t14 -45q0 -22 -5.5 -51.5t-19.5 -64t-37 -72.5t-57 -77l-30 -33q22 -20 50 -29.5t59 -9.5q28 0 56 10t53 31.5t44.5 56t30.5 83.5l-100 124q-4 21 0 38t14 29t24.5 19t31.5 7q14 0 27 -4.5t23 -16t16 -31t6 -48.5q0 -42 -8 -91t-23.5 -97
t-39 -92.5t-54.5 -78.5t-70 -54.5t-85 -20.5q-48 0 -81 28t-50 73q-51 -44 -102 -72.5t-99 -28.5zM381 285q0 -30 7.5 -54t20.5 -44l20 19q26 26 42.5 47t26.5 38.5t13.5 32.5t3.5 28q0 23 -13.5 36t-36.5 13q-15 0 -30 -7t-27 -21t-19.5 -36t-7.5 -52z" />
    <glyph glyph-name="w" unicode="&#x1e83;" horiz-adv-x="787" 
d="M154 -13q-45 0 -66.5 25.5t-21.5 72.5q0 38 15.5 75.5t42 75t62.5 74.5t78 73h-183l-43 -81h-32l90 200h292q-33 -38 -67 -75t-61.5 -73.5t-45 -73t-17.5 -73.5q0 -41 18 -62.5t52 -21.5q20 0 37.5 3.5t36.5 12.5q-2 14 -3.5 28.5t-1.5 30.5q0 54 16.5 111t43.5 104.5
t61 77.5t69 30q26 0 40 -16t14 -45q0 -22 -5.5 -51.5t-19.5 -64t-37 -72.5t-57 -77l-30 -33q22 -20 50 -29.5t59 -9.5q28 0 56 10t53 31.5t44.5 56t30.5 83.5l-100 124q-4 21 0 38t14 29t24.5 19t31.5 7q14 0 27 -4.5t23 -16t16 -31t6 -48.5q0 -42 -8 -91t-23.5 -97
t-39 -92.5t-54.5 -78.5t-70 -54.5t-85 -20.5q-48 0 -81 28t-50 73q-51 -44 -102 -72.5t-99 -28.5zM381 285q0 -30 7.5 -54t20.5 -44l20 19q26 26 42.5 47t26.5 38.5t13.5 32.5t3.5 28q0 23 -13.5 36t-36.5 13q-15 0 -30 -7t-27 -21t-19.5 -36t-7.5 -52z" />
    <glyph glyph-name="w" unicode="&#x1e81;" horiz-adv-x="787" 
d="M154 -13q-45 0 -66.5 25.5t-21.5 72.5q0 38 15.5 75.5t42 75t62.5 74.5t78 73h-183l-43 -81h-32l90 200h292q-33 -38 -67 -75t-61.5 -73.5t-45 -73t-17.5 -73.5q0 -41 18 -62.5t52 -21.5q20 0 37.5 3.5t36.5 12.5q-2 14 -3.5 28.5t-1.5 30.5q0 54 16.5 111t43.5 104.5
t61 77.5t69 30q26 0 40 -16t14 -45q0 -22 -5.5 -51.5t-19.5 -64t-37 -72.5t-57 -77l-30 -33q22 -20 50 -29.5t59 -9.5q28 0 56 10t53 31.5t44.5 56t30.5 83.5l-100 124q-4 21 0 38t14 29t24.5 19t31.5 7q14 0 27 -4.5t23 -16t16 -31t6 -48.5q0 -42 -8 -91t-23.5 -97
t-39 -92.5t-54.5 -78.5t-70 -54.5t-85 -20.5q-48 0 -81 28t-50 73q-51 -44 -102 -72.5t-99 -28.5zM381 285q0 -30 7.5 -54t20.5 -44l20 19q26 26 42.5 47t26.5 38.5t13.5 32.5t3.5 28q0 23 -13.5 36t-36.5 13q-15 0 -30 -7t-27 -21t-19.5 -36t-7.5 -52z" />
    <glyph glyph-name="w" unicode="&#x175;" horiz-adv-x="787" 
d="M154 -13q-45 0 -66.5 25.5t-21.5 72.5q0 38 15.5 75.5t42 75t62.5 74.5t78 73h-183l-43 -81h-32l90 200h292q-33 -38 -67 -75t-61.5 -73.5t-45 -73t-17.5 -73.5q0 -41 18 -62.5t52 -21.5q20 0 37.5 3.5t36.5 12.5q-2 14 -3.5 28.5t-1.5 30.5q0 54 16.5 111t43.5 104.5
t61 77.5t69 30q26 0 40 -16t14 -45q0 -22 -5.5 -51.5t-19.5 -64t-37 -72.5t-57 -77l-30 -33q22 -20 50 -29.5t59 -9.5q28 0 56 10t53 31.5t44.5 56t30.5 83.5l-100 124q-4 21 0 38t14 29t24.5 19t31.5 7q14 0 27 -4.5t23 -16t16 -31t6 -48.5q0 -42 -8 -91t-23.5 -97
t-39 -92.5t-54.5 -78.5t-70 -54.5t-85 -20.5q-48 0 -81 28t-50 73q-51 -44 -102 -72.5t-99 -28.5zM381 285q0 -30 7.5 -54t20.5 -44l20 19q26 26 42.5 47t26.5 38.5t13.5 32.5t3.5 28q0 23 -13.5 36t-36.5 13q-15 0 -30 -7t-27 -21t-19.5 -36t-7.5 -52z" />
    <glyph glyph-name="x" unicode="x" horiz-adv-x="628" 
d="M28 -13q-31 0 -47.5 20.5t-16.5 47.5q0 40 28.5 71t75.5 34q14 -55 21.5 -77.5t19.5 -22.5q8 0 22 11.5t31.5 31t38 46.5t42.5 59l-19 171q-4 33 -10 56.5t-24 23.5q-24 0 -56.5 -33t-65.5 -81l-24 18q23 33 46 62t49 50.5t55 33.5t64 12q19 0 38 -4t34.5 -17.5t27.5 -40
t17 -72.5l5 -47q40 58 73.5 94t61.5 55t51 25.5t42 6.5q31 0 47.5 -20.5t16.5 -47.5q0 -40 -28.5 -71t-75.5 -34q-14 55 -21.5 77.5t-19.5 22.5q-9 0 -23.5 -12t-33 -33.5t-40 -50.5t-44.5 -62l18 -161q4 -33 10 -56.5t24 -23.5q24 0 56.5 33t65.5 81l24 -18
q-23 -33 -46 -62t-49 -50.5t-55 -33.5t-64 -12q-19 0 -38 4t-34.5 17.5t-27.5 40t-17 72.5l-4 37q-39 -55 -71 -88.5t-59 -52t-49.5 -24.5t-41.5 -6z" />
    <glyph glyph-name="y" unicode="y" horiz-adv-x="564" 
d="M-91 -261q-34 0 -53.5 18.5t-19.5 47.5q0 18 10 38t28 28q25 -13 47 -20.5t50 -7.5q15 0 32.5 4t37.5 15.5t44 33t53 56.5l2 485l-83 -5l-1 31l232 66l-6 -377l119 171q36 51 62 88.5t47 61.5t40 36t41 12q29 0 42.5 -15.5t13.5 -38.5q0 -26 -10.5 -41.5t-22.5 -23.5
q-35 -9 -61 -16t-45 -14.5t-31.5 -16.5t-21.5 -22l-225 -323q-32 -45 -72 -93t-83 -87.5t-86 -65t-80 -25.5z" />
    <glyph glyph-name="y" unicode="&#x1ef3;" horiz-adv-x="564" 
d="M-91 -261q-34 0 -53.5 18.5t-19.5 47.5q0 18 10 38t28 28q25 -13 47 -20.5t50 -7.5q15 0 32.5 4t37.5 15.5t44 33t53 56.5l2 485l-83 -5l-1 31l232 66l-6 -377l119 171q36 51 62 88.5t47 61.5t40 36t41 12q29 0 42.5 -15.5t13.5 -38.5q0 -26 -10.5 -41.5t-22.5 -23.5
q-35 -9 -61 -16t-45 -14.5t-31.5 -16.5t-21.5 -22l-225 -323q-32 -45 -72 -93t-83 -87.5t-86 -65t-80 -25.5z" />
    <glyph glyph-name="y" unicode="&#x233;" horiz-adv-x="564" 
d="M-91 -261q-34 0 -53.5 18.5t-19.5 47.5q0 18 10 38t28 28q25 -13 47 -20.5t50 -7.5q15 0 32.5 4t37.5 15.5t44 33t53 56.5l2 485l-83 -5l-1 31l232 66l-6 -377l119 171q36 51 62 88.5t47 61.5t40 36t41 12q29 0 42.5 -15.5t13.5 -38.5q0 -26 -10.5 -41.5t-22.5 -23.5
q-35 -9 -61 -16t-45 -14.5t-31.5 -16.5t-21.5 -22l-225 -323q-32 -45 -72 -93t-83 -87.5t-86 -65t-80 -25.5z" />
    <glyph glyph-name="y" unicode="&#x177;" horiz-adv-x="564" 
d="M-91 -261q-34 0 -53.5 18.5t-19.5 47.5q0 18 10 38t28 28q25 -13 47 -20.5t50 -7.5q15 0 32.5 4t37.5 15.5t44 33t53 56.5l2 485l-83 -5l-1 31l232 66l-6 -377l119 171q36 51 62 88.5t47 61.5t40 36t41 12q29 0 42.5 -15.5t13.5 -38.5q0 -26 -10.5 -41.5t-22.5 -23.5
q-35 -9 -61 -16t-45 -14.5t-31.5 -16.5t-21.5 -22l-225 -323q-32 -45 -72 -93t-83 -87.5t-86 -65t-80 -25.5z" />
    <glyph glyph-name="y" unicode="&#xff;" horiz-adv-x="564" 
d="M-91 -261q-34 0 -53.5 18.5t-19.5 47.5q0 18 10 38t28 28q25 -13 47 -20.5t50 -7.5q15 0 32.5 4t37.5 15.5t44 33t53 56.5l2 485l-83 -5l-1 31l232 66l-6 -377l119 171q36 51 62 88.5t47 61.5t40 36t41 12q29 0 42.5 -15.5t13.5 -38.5q0 -26 -10.5 -41.5t-22.5 -23.5
q-35 -9 -61 -16t-45 -14.5t-31.5 -16.5t-21.5 -22l-225 -323q-32 -45 -72 -93t-83 -87.5t-86 -65t-80 -25.5z" />
    <glyph glyph-name="y" unicode="&#xfd;" horiz-adv-x="564" 
d="M-91 -261q-34 0 -53.5 18.5t-19.5 47.5q0 18 10 38t28 28q25 -13 47 -20.5t50 -7.5q15 0 32.5 4t37.5 15.5t44 33t53 56.5l2 485l-83 -5l-1 31l232 66l-6 -377l119 171q36 51 62 88.5t47 61.5t40 36t41 12q29 0 42.5 -15.5t13.5 -38.5q0 -26 -10.5 -41.5t-22.5 -23.5
q-35 -9 -61 -16t-45 -14.5t-31.5 -16.5t-21.5 -22l-225 -323q-32 -45 -72 -93t-83 -87.5t-86 -65t-80 -25.5z" />
    <glyph glyph-name="z" unicode="z" horiz-adv-x="528" 
d="M157 502h452l-334 -254l51 -131q12 -32 21.5 -51.5t18 -30.5t16.5 -15t17 -4q13 0 25 8t17.5 25.5t3 46t-17.5 70.5l31 12q36 -100 8 -153t-109 -53q-32 0 -59 7.5t-51.5 25.5t-47.5 48t-48 75l-10 18l-41 -32q-15 -12 -23.5 -21.5t-11 -21t-1 -27t6.5 -40.5
q-22 -12 -42 -15t-35 1t-24 14.5t-9 26.5q0 7 2.5 14t10 15.5t20 19.5t32.5 26l364 277h-248l-43 -81h-32z" />
    <glyph glyph-name="z" unicode="&#x17e;" horiz-adv-x="528" 
d="M157 502h452l-334 -254l51 -131q12 -32 21.5 -51.5t18 -30.5t16.5 -15t17 -4q13 0 25 8t17.5 25.5t3 46t-17.5 70.5l31 12q36 -100 8 -153t-109 -53q-32 0 -59 7.5t-51.5 25.5t-47.5 48t-48 75l-10 18l-41 -32q-15 -12 -23.5 -21.5t-11 -21t-1 -27t6.5 -40.5
q-22 -12 -42 -15t-35 1t-24 14.5t-9 26.5q0 7 2.5 14t10 15.5t20 19.5t32.5 26l364 277h-248l-43 -81h-32z" />
    <glyph glyph-name="z" unicode="&#x17c;" horiz-adv-x="528" 
d="M157 502h452l-334 -254l51 -131q12 -32 21.5 -51.5t18 -30.5t16.5 -15t17 -4q13 0 25 8t17.5 25.5t3 46t-17.5 70.5l31 12q36 -100 8 -153t-109 -53q-32 0 -59 7.5t-51.5 25.5t-47.5 48t-48 75l-10 18l-41 -32q-15 -12 -23.5 -21.5t-11 -21t-1 -27t6.5 -40.5
q-22 -12 -42 -15t-35 1t-24 14.5t-9 26.5q0 7 2.5 14t10 15.5t20 19.5t32.5 26l364 277h-248l-43 -81h-32z" />
    <glyph glyph-name="z" unicode="&#x17a;" horiz-adv-x="528" 
d="M157 502h452l-334 -254l51 -131q12 -32 21.5 -51.5t18 -30.5t16.5 -15t17 -4q13 0 25 8t17.5 25.5t3 46t-17.5 70.5l31 12q36 -100 8 -153t-109 -53q-32 0 -59 7.5t-51.5 25.5t-47.5 48t-48 75l-10 18l-41 -32q-15 -12 -23.5 -21.5t-11 -21t-1 -27t6.5 -40.5
q-22 -12 -42 -15t-35 1t-24 14.5t-9 26.5q0 7 2.5 14t10 15.5t20 19.5t32.5 26l364 277h-248l-43 -81h-32z" />
    <glyph glyph-name="uni00A0" unicode="&#xa0;" horiz-adv-x="220" 
 />
    <glyph glyph-name="uni00AD" unicode="&#xad;" horiz-adv-x="418" 
d="M80 303h294l-28 -81h-294z" />
    <glyph glyph-name="paragraph" unicode="&#xb6;" horiz-adv-x="585" 
d="M285 286h-10q-40 0 -73.5 10t-57.5 29.5t-37 47.5t-13 65q0 63 30.5 121t87.5 102t138.5 70.5t183.5 26.5h170l-11 -36l-37 -4q-27 -3 -44.5 -11.5t-26.5 -37.5l-227 -744l-128 -78l137 456q-8 -3 -16.5 -5.5t-16.5 -4.5l-142 -469l-59 -37z" />
    <glyph glyph-name="periodcentered" unicode="&#xb7;" horiz-adv-x="301" 
d="M152 165q-20 0 -37 7.5t-30 21t-20.5 31.5t-7.5 39q0 19 7.5 36.5t20.5 30.5t30 20.5t37 7.5q21 0 39 -7.5t31.5 -20.5t21 -30.5t7.5 -36.5q0 -42 -28.5 -70.5t-70.5 -28.5z" />
    <glyph glyph-name="glyph65" horiz-adv-x="816" 
d="M367 -12q-81 0 -139.5 24.5t-93.5 67t-47.5 100.5t-1.5 126h570q5 26 8 52t3 55q0 68 -18.5 117.5t-52 82t-79.5 48.5t-100 16q-103 0 -174.5 -61t-112.5 -167h-34q22 88 64 150.5t96 102.5t115.5 59t123.5 19q73 0 133.5 -21.5t104.5 -61t68.5 -96.5t24.5 -129
q0 -59 -15.5 -118t-44.5 -112.5t-70 -100t-91.5 -80.5t-110.5 -53.5t-126 -19.5zM385 30q39 0 76.5 15t70.5 43t60 67.5t45 87.5h-394q-16 -106 17.5 -159.5t124.5 -53.5z" />
    <glyph glyph-name="glyph66" horiz-adv-x="357" 
d="M102 -13q-32 0 -49.5 9t-24 24.5t-3 37.5t13.5 49l130 337h-93l11 32l262 53l-159 -414q-15 -40 -16.5 -56t14.5 -16q9 0 24.5 8t34 25t38.5 45t40 67l29 -12q-21 -43 -46 -78t-55.5 -59.5t-68 -38t-82.5 -13.5z" />
    <glyph glyph-name="glyph67" horiz-adv-x="316" 
d="M-242 -235q47 30 83.5 55.5t66.5 55.5t55 69.5t48 96.5l163 402h-93l11 32l264 53l-207 -511q-13 -32 -24 -54.5t-26.5 -41.5t-38.5 -35t-59 -34l-230 -115z" />
    <glyph glyph-name="uni0410" unicode="&#x410;" horiz-adv-x="823" 
d="M-132 36l34 4q27 3 53 12.5t52 32.5l773 703h20l-145 -699q-6 -29 3.5 -37.5t35.5 -11.5l34 -4l-11 -36h-338l11 36l36 4q27 3 44.5 11.5t24.5 37.5l35 158h-271l-177 -162q-23 -21 -26 -32t23 -13l60 -4l-11 -36h-271zM543 306l55 251l-274 -251h219z" />
    <glyph glyph-name="uni0411" unicode="&#x411;" horiz-adv-x="764" 
d="M264 669q8 29 2.5 38t-31.5 11l-44 4l11 36h580l-45 -256h-22l-81 192q-5 12 -10 15t-21 3h-166l-82 -267h67q155 0 234 -44t79 -139q0 -65 -38 -114t-101 -82t-144 -49.5t-166 -16.5h-316l11 36l46 4q27 2 38.5 11t20.5 38zM268 46q137 0 213.5 53.5t76.5 162.5
q0 74 -43 105.5t-127 31.5h-47l-108 -353h35z" />
    <glyph glyph-name="uni0412" unicode="&#x412;" horiz-adv-x="770" 
d="M-19 36l36 4q27 3 43.5 11.5t25.5 37.5l178 580q9 29 -2.5 37.5t-36.5 11.5l-34 4l11 36h298q146 0 214.5 -32t66.5 -100q-1 -43 -22 -79t-59 -64t-90 -46.5t-115 -25.5v-2q48 -2 90.5 -12t75 -29.5t51.5 -48t19 -67.5q0 -49 -28.5 -94.5t-81.5 -80.5t-128 -56t-168 -21
h-355zM418 424q49 0 85.5 20t61 50.5t36.5 66t12 67.5q0 43 -24.5 64.5t-81.5 21.5h-70l-88 -290h69zM320 44q63 0 107 21t72.5 54t41.5 73t13 78q0 63 -38 86.5t-106 23.5h-75l-103 -336h88z" />
    <glyph glyph-name="uni0403" unicode="&#x403;" horiz-adv-x="723" 
d="M-19 36l36 4q27 3 43.5 11.5t25.5 37.5l178 580q9 29 -2.5 37.5t-36.5 11.5l-34 4l11 36h618l-46 -271h-22l-70 207q-4 12 -9.5 15t-21.5 3h-214l-191 -623q-9 -29 2.5 -37.5t37.5 -9.5l69 -4l-12 -38h-373z" />
    <glyph glyph-name="uni0403" unicode="&#x492;" horiz-adv-x="723" 
d="M-19 36l36 4q27 3 43.5 11.5t25.5 37.5l178 580q9 29 -2.5 37.5t-36.5 11.5l-34 4l11 36h618l-46 -271h-22l-70 207q-4 12 -9.5 15t-21.5 3h-214l-191 -623q-9 -29 2.5 -37.5t37.5 -9.5l69 -4l-12 -38h-373z" />
    <glyph glyph-name="uni0403" unicode="&#x413;" horiz-adv-x="723" 
d="M-19 36l36 4q27 3 43.5 11.5t25.5 37.5l178 580q9 29 -2.5 37.5t-36.5 11.5l-34 4l11 36h618l-46 -271h-22l-70 207q-4 12 -9.5 15t-21.5 3h-214l-191 -623q-9 -29 2.5 -37.5t37.5 -9.5l69 -4l-12 -38h-373z" />
    <glyph glyph-name="uni0414" unicode="&#x414;" horiz-adv-x="798" 
d="M-73 -179h-22l77 225h85q49 69 94 153t82 168.5t66 163t47 138.5q9 29 3 38t-32 11l-44 4l11 36h617l-11 -36l-46 -4q-27 -2 -38.5 -11t-20.5 -38l-190 -623h104l-61 -225h-22l-59 167q-2 7 -6.5 9.5t-15.5 2.5h-427q-12 0 -17.5 -2.5t-12.5 -9.5zM648 712h-222
q-22 -72 -53 -158.5t-69.5 -175.5t-83.5 -175t-94 -157h319z" />
    <glyph glyph-name="uni0401" unicode="&#x401;" horiz-adv-x="774" 
d="M-19 36l36 4q27 3 43.5 11.5t25.5 37.5l178 580q9 29 -2.5 37.5t-36.5 11.5l-34 4l11 36h576l-46 -271h-22l-70 207q-4 12 -9.5 15t-21.5 3h-172l-90 -293h116q12 0 20 11l89 131h22l-103 -336h-22l-8 131q0 11 -14 11h-116l-98 -321h225q13 0 18.5 3t16.5 11l251 211h22
l-151 -271h-645z" />
    <glyph glyph-name="uni0401" unicode="&#x415;" horiz-adv-x="774" 
d="M-19 36l36 4q27 3 43.5 11.5t25.5 37.5l178 580q9 29 -2.5 37.5t-36.5 11.5l-34 4l11 36h576l-46 -271h-22l-70 207q-4 12 -9.5 15t-21.5 3h-172l-90 -293h116q12 0 20 11l89 131h22l-103 -336h-22l-8 131q0 11 -14 11h-116l-98 -321h225q13 0 18.5 3t16.5 11l251 211h22
l-151 -271h-645z" />
    <glyph glyph-name="uni0416" unicode="&#x416;" horiz-adv-x="1195" 
d="M-50 0l508 458l-138 225q-11 19 -28.5 26.5t-55.5 9.5l-50 3l11 36h288l-11 -36l-64 -4q-23 -2 -30 -10.5t-1 -19.5l191 -313l90 294q8 29 2.5 38t-31.5 11l-44 4l11 36h338l-11 -36l-46 -4q-27 -2 -39 -11t-20 -38l-90 -294l381 313q14 11 12.5 19.5t-23.5 10.5l-62 4
l11 36h288l-11 -36l-52 -3q-34 -2 -54 -10.5t-42 -25.5l-297 -244l219 -439h-191l-182 366l-85 -277q-9 -29 -3 -38t32 -11l44 -4l-11 -36h-338l11 36l46 4q27 2 38.5 11t20.5 38l85 278l-406 -367h-211z" />
    <glyph glyph-name="uni0416" unicode="&#x496;" horiz-adv-x="1195" 
d="M-50 0l508 458l-138 225q-11 19 -28.5 26.5t-55.5 9.5l-50 3l11 36h288l-11 -36l-64 -4q-23 -2 -30 -10.5t-1 -19.5l191 -313l90 294q8 29 2.5 38t-31.5 11l-44 4l11 36h338l-11 -36l-46 -4q-27 -2 -39 -11t-20 -38l-90 -294l381 313q14 11 12.5 19.5t-23.5 10.5l-62 4
l11 36h288l-11 -36l-52 -3q-34 -2 -54 -10.5t-42 -25.5l-297 -244l219 -439h-191l-182 366l-85 -277q-9 -29 -3 -38t32 -11l44 -4l-11 -36h-338l11 36l46 4q27 2 38.5 11t20.5 38l85 278l-406 -367h-211z" />
    <glyph glyph-name="uni0417" unicode="&#x417;" horiz-adv-x="698" 
d="M283 33q49 0 86.5 19t63 48.5t38.5 66.5t13 73q0 28 -9.5 53t-28 44.5t-47 31t-66.5 11.5h-73l14 44h67q51 0 88.5 19.5t63 49.5t38 66t12.5 69q0 43 -20 73.5t-61 30.5q-18 0 -33 -3q-11 -2 -18 -6t-24 -20l-197 -186h-22l120 235q39 14 83.5 20.5t98.5 6.5
q123 0 181 -43.5t58 -111.5q0 -38 -18 -74t-54.5 -65.5t-91 -50t-127.5 -28.5l-1 -2q126 0 185 -42.5t59 -115.5q0 -60 -30 -107.5t-82 -81.5t-120.5 -52t-144.5 -18q-67 0 -123 8t-101 29l29 246h22l80 -196q8 -19 16.5 -25.5t19.5 -9.5q25 -6 56 -6z" />
    <glyph glyph-name="uni0418" unicode="&#x418;" horiz-adv-x="921" 
d="M-19 36l46 4q27 2 38.5 11t20.5 38l178 580q8 29 2.5 38t-31.5 11l-44 4l11 36h338l-11 -36l-46 -4q-27 -2 -38.5 -11t-20.5 -38l-140 -457l464 435l7 22q8 29 2.5 38t-31.5 11l-44 4l11 36h338l-11 -36l-46 -4q-27 -2 -39 -11t-20 -38l-178 -580q-9 -29 -3 -38t32 -11
l44 -4l-11 -36h-338l11 36l46 4q27 2 38.5 11t20.5 38l142 464l-464 -435l-9 -29q-9 -29 -3 -38t32 -11l44 -4l-11 -36h-338z" />
    <glyph glyph-name="uni0418" unicode="&#x4e2;" horiz-adv-x="921" 
d="M-19 36l46 4q27 2 38.5 11t20.5 38l178 580q8 29 2.5 38t-31.5 11l-44 4l11 36h338l-11 -36l-46 -4q-27 -2 -38.5 -11t-20.5 -38l-140 -457l464 435l7 22q8 29 2.5 38t-31.5 11l-44 4l11 36h338l-11 -36l-46 -4q-27 -2 -39 -11t-20 -38l-178 -580q-9 -29 -3 -38t32 -11
l44 -4l-11 -36h-338l11 36l46 4q27 2 38.5 11t20.5 38l142 464l-464 -435l-9 -29q-9 -29 -3 -38t32 -11l44 -4l-11 -36h-338z" />
    <glyph glyph-name="uni0418" unicode="&#x419;" horiz-adv-x="921" 
d="M-19 36l46 4q27 2 38.5 11t20.5 38l178 580q8 29 2.5 38t-31.5 11l-44 4l11 36h338l-11 -36l-46 -4q-27 -2 -38.5 -11t-20.5 -38l-140 -457l464 435l7 22q8 29 2.5 38t-31.5 11l-44 4l11 36h338l-11 -36l-46 -4q-27 -2 -39 -11t-20 -38l-178 -580q-9 -29 -3 -38t32 -11
l44 -4l-11 -36h-338l11 36l46 4q27 2 38.5 11t20.5 38l142 464l-464 -435l-9 -29q-9 -29 -3 -38t32 -11l44 -4l-11 -36h-338z" />
    <glyph glyph-name="uni040C" unicode="&#x40c;" horiz-adv-x="859" 
d="M-19 36l36 4q27 3 43.5 11.5t25.5 37.5l178 580q9 29 -2.5 37.5t-36.5 11.5l-34 4l11 36h338l-11 -36l-36 -4q-28 -3 -44 -11.5t-25 -37.5l-91 -295l433 314q14 11 13 19.5t-23 10.5l-72 4l11 36h306l-11 -36l-52 -3q-33 -2 -55 -10.5t-45 -25.5l-354 -256l321 -427h-195
l-279 366l-85 -277q-9 -29 2 -37.5t37 -11.5l34 -4l-11 -36h-338z" />
    <glyph glyph-name="uni040C" unicode="&#x49a;" horiz-adv-x="859" 
d="M-19 36l36 4q27 3 43.5 11.5t25.5 37.5l178 580q9 29 -2.5 37.5t-36.5 11.5l-34 4l11 36h338l-11 -36l-36 -4q-28 -3 -44 -11.5t-25 -37.5l-91 -295l433 314q14 11 13 19.5t-23 10.5l-72 4l11 36h306l-11 -36l-52 -3q-33 -2 -55 -10.5t-45 -25.5l-354 -256l321 -427h-195
l-279 366l-85 -277q-9 -29 2 -37.5t37 -11.5l34 -4l-11 -36h-338z" />
    <glyph glyph-name="uni040C" unicode="&#x41a;" horiz-adv-x="859" 
d="M-19 36l36 4q27 3 43.5 11.5t25.5 37.5l178 580q9 29 -2.5 37.5t-36.5 11.5l-34 4l11 36h338l-11 -36l-36 -4q-28 -3 -44 -11.5t-25 -37.5l-91 -295l433 314q14 11 13 19.5t-23 10.5l-72 4l11 36h306l-11 -36l-52 -3q-33 -2 -55 -10.5t-45 -25.5l-354 -256l321 -427h-195
l-279 366l-85 -277q-9 -29 2 -37.5t37 -11.5l34 -4l-11 -36h-338z" />
    <glyph glyph-name="uni041B" unicode="&#x41b;" horiz-adv-x="800" 
d="M148 83q-38 -51 -72.5 -73t-71.5 -22q-28 0 -40 13t-12 31q0 25 11.5 47.5t35 39.5t58 27.5t79.5 12.5q33 48 60.5 102t53 116.5t50 134.5t50.5 157q9 29 3 38t-32 11l-44 4l11 36h622l-11 -36l-46 -4q-27 -2 -38.5 -11t-20.5 -38l-177 -580q-9 -29 -3 -38t32 -11l44 -4
l-11 -36h-338l11 36l46 4q27 2 38.5 11t20.5 38l190 623h-227q-33 -110 -65.5 -202.5t-65.5 -170t-67.5 -141.5t-73.5 -115z" />
    <glyph glyph-name="uni041C" unicode="&#x41c;" horiz-adv-x="1043" 
d="M-19 36l36 4q27 3 43.5 11.5t25.5 37.5l178 580q9 29 -2.5 37.5t-36.5 11.5l-34 4l11 36h274l71 -416l319 416h287l-11 -36l-36 -4q-28 -3 -44 -11.5t-25 -37.5l-178 -580q-9 -29 2 -37.5t37 -11.5l34 -4l-11 -36h-338l11 36l36 4q27 3 43.5 11.5t25.5 37.5l186 609
l-452 -589h-6l-100 586l-185 -606q-9 -29 2 -37.5t37 -11.5l34 -4l-11 -36h-234z" />
    <glyph glyph-name="uni041D" unicode="&#x41d;" horiz-adv-x="911" 
d="M-19 36l36 4q27 3 43.5 11.5t25.5 37.5l178 580q9 29 -2.5 37.5t-36.5 11.5l-34 4l11 36h338l-11 -36l-36 -4q-28 -3 -44 -11.5t-25 -37.5l-74 -242h321l74 242q9 29 -2.5 37.5t-36.5 11.5l-34 4l11 36h338l-11 -36l-36 -4q-28 -3 -44 -11.5t-25 -37.5l-178 -580
q-9 -29 2 -37.5t37 -11.5l34 -4l-11 -36h-338l11 36l36 4q27 3 43.5 11.5t25.5 37.5l86 279h-321l-86 -279q-9 -29 2 -37.5t37 -11.5l34 -4l-11 -36h-338z" />
    <glyph glyph-name="uni041D" unicode="&#x4a2;" horiz-adv-x="911" 
d="M-19 36l36 4q27 3 43.5 11.5t25.5 37.5l178 580q9 29 -2.5 37.5t-36.5 11.5l-34 4l11 36h338l-11 -36l-36 -4q-28 -3 -44 -11.5t-25 -37.5l-74 -242h321l74 242q9 29 -2.5 37.5t-36.5 11.5l-34 4l11 36h338l-11 -36l-36 -4q-28 -3 -44 -11.5t-25 -37.5l-178 -580
q-9 -29 2 -37.5t37 -11.5l34 -4l-11 -36h-338l11 36l36 4q27 3 43.5 11.5t25.5 37.5l86 279h-321l-86 -279q-9 -29 2 -37.5t37 -11.5l34 -4l-11 -36h-338z" />
    <glyph glyph-name="uni041E" unicode="&#x41e;" horiz-adv-x="882" 
d="M370 -13q-64 0 -119.5 18t-97 53.5t-65.5 87.5t-24 120q0 56 17.5 115.5t50.5 116.5t80 108t106.5 89.5t129 61t148.5 22.5q64 0 119.5 -18t96.5 -53.5t65 -87.5t24 -120q0 -56 -17.5 -115.5t-50.5 -116.5t-80 -108t-106 -89.5t-129 -61t-148 -22.5zM400 29
q60 0 117 35.5t101.5 97.5t71 147.5t26.5 184.5q0 52 -7.5 96.5t-24.5 77t-46 51t-72 18.5q-60 0 -117 -35.5t-101.5 -97.5t-71 -147.5t-26.5 -184.5q0 -52 7.5 -96.5t24.5 -77t46 -51t72 -18.5z" />
    <glyph glyph-name="uni041F" unicode="&#x41f;" horiz-adv-x="901" 
d="M1011 758l-11 -36l-46 -4q-27 -2 -39 -11t-20 -38l-178 -580q-9 -29 -3 -38t32 -11l44 -4l-11 -36h-338l11 36l46 4q27 2 38.5 11t20.5 38l191 623h-311l-191 -623q-9 -29 -3 -38t32 -11l44 -4l-11 -36h-338l11 36l46 4q27 2 38.5 11t20.5 38l178 580q8 29 2.5 38
t-31.5 11l-44 4l11 36h809z" />
    <glyph glyph-name="uni0420" unicode="&#x420;" horiz-adv-x="740" 
d="M-19 36l36 4q27 3 43.5 11.5t25.5 37.5l178 580q9 29 -2.5 37.5t-36.5 11.5l-34 4l11 36h318q65 0 119.5 -7t94 -25t61.5 -48t22 -76q0 -53 -25.5 -100.5t-77 -83.5t-129 -57t-181.5 -21h-56l14 45h49q63 0 106.5 20.5t71 52.5t39.5 71.5t12 77.5q0 55 -31 81t-98 26h-74
l-191 -625q-9 -29 2.5 -37.5t37.5 -9.5l69 -4l-12 -38h-373z" />
    <glyph glyph-name="uni0421" unicode="&#x421;" horiz-adv-x="815" 
d="M435 -13q-73 0 -138.5 21.5t-114.5 62.5t-78 101t-29 137q0 99 45.5 184.5t120 149t170 100t194.5 36.5q73 0 140.5 -16.5t110.5 -45.5l-29 -235h-22l-62 177q-14 40 -40 57q-15 10 -37.5 13.5t-54.5 3.5q-70 0 -134 -33t-113.5 -93.5t-79 -145t-29.5 -186.5
q0 -54 10.5 -98.5t33.5 -76.5t59.5 -49.5t88.5 -17.5q25 0 45 2.5t40 12.5q9 5 19 12t20 18l199 203h22l-137 -263q-21 -5 -47.5 -10.5t-55 -10t-59 -7.5t-58.5 -3z" />
    <glyph glyph-name="uni0422" unicode="&#x422;" horiz-adv-x="786" 
d="M135 38l61 4q26 2 42.5 10t25.5 37l192 628h-100q-16 0 -23 -3t-19 -15l-200 -212h-22l105 271h704l-61 -271h-22l-56 212q-3 12 -9.5 15t-22.5 3h-114l-192 -628q-9 -29 2.5 -37.5t37.5 -9.5l59 -4l-12 -38h-388z" />
    <glyph glyph-name="uni040E" unicode="&#x40e;" horiz-adv-x="784" 
d="M327 84q-43 -52 -78 -74t-73 -22q-29 0 -41 12.5t-12 34.5q0 27 14.5 48t40.5 35t61.5 21t77.5 7l36 43l-128 484q-7 25 -16 33.5t-34 11.5l-32 4l11 36h335l-11 -36l-44 -4q-27 -2 -40.5 -10.5t-7.5 -34.5l88 -335l276 335q22 25 13.5 34t-33.5 11l-42 4l11 36h242
l-11 -36l-34 -4q-18 -2 -29.5 -5t-20.5 -8t-16.5 -13t-17.5 -20z" />
    <glyph glyph-name="uni040E" unicode="&#x4ee;" horiz-adv-x="784" 
d="M327 84q-43 -52 -78 -74t-73 -22q-29 0 -41 12.5t-12 34.5q0 27 14.5 48t40.5 35t61.5 21t77.5 7l36 43l-128 484q-7 25 -16 33.5t-34 11.5l-32 4l11 36h335l-11 -36l-44 -4q-27 -2 -40.5 -10.5t-7.5 -34.5l88 -335l276 335q22 25 13.5 34t-33.5 11l-42 4l11 36h242
l-11 -36l-34 -4q-18 -2 -29.5 -5t-20.5 -8t-16.5 -13t-17.5 -20z" />
    <glyph glyph-name="uni040E" unicode="&#x423;" horiz-adv-x="784" 
d="M327 84q-43 -52 -78 -74t-73 -22q-29 0 -41 12.5t-12 34.5q0 27 14.5 48t40.5 35t61.5 21t77.5 7l36 43l-128 484q-7 25 -16 33.5t-34 11.5l-32 4l11 36h335l-11 -36l-44 -4q-27 -2 -40.5 -10.5t-7.5 -34.5l88 -335l276 335q22 25 13.5 34t-33.5 11l-42 4l11 36h242
l-11 -36l-34 -4q-18 -2 -29.5 -5t-20.5 -8t-16.5 -13t-17.5 -20z" />
    <glyph glyph-name="uni0424" unicode="&#x424;" horiz-adv-x="1010" 
d="M262 16l46 4q27 2 38.5 11t20.5 38l10 34q-72 6 -132 23t-102.5 44.5t-66 65t-23.5 84.5q0 73 37.5 132.5t104 103t157 70t196.5 34.5l9 29q9 29 3 38t-32 11l-44 4l11 36h338l-11 -36l-46 -4q-27 -2 -38.5 -11t-20.5 -38l-9 -29q73 -6 133.5 -23t103.5 -44.5t66.5 -65
t23.5 -84.5q0 -74 -38 -133.5t-104.5 -103t-158 -70t-197.5 -33.5l-10 -34q-9 -29 -3 -38t32 -11l44 -4l-11 -36h-338zM861 441q0 78 -41 119t-126 52l-142 -460q74 10 131.5 37.5t97 66.5t60 86.5t20.5 98.5zM227 322q0 -78 40.5 -119t124.5 -52l141 460
q-73 -10 -130 -37.5t-96 -66.5t-59.5 -86.5t-20.5 -98.5z" />
    <glyph glyph-name="uni0425" unicode="&#x425;" horiz-adv-x="846" 
d="M-93 36l34 4q28 3 53.5 13t53.5 32l354 283l-79 305q-5 23 -17 32.5t-36 12.5l-32 4l16 36h337l-16 -36l-44 -4q-28 -2 -39.5 -12t-5.5 -33l51 -198l248 198q29 23 31.5 33t-22.5 12l-42 4l16 36h257l-16 -36l-34 -4q-29 -3 -54 -13t-53 -32l-316 -252l87 -336
q6 -23 17 -32.5t36 -12.5l32 -4l-16 -36h-337l16 36l44 4q28 2 39 12t6 33l-59 228l-286 -228q-29 -23 -31.5 -33t22.5 -12l42 -4l-16 -36h-257z" />
    <glyph glyph-name="uni0425" unicode="&#x4b2;" horiz-adv-x="846" 
d="M-93 36l34 4q28 3 53.5 13t53.5 32l354 283l-79 305q-5 23 -17 32.5t-36 12.5l-32 4l16 36h337l-16 -36l-44 -4q-28 -2 -39.5 -12t-5.5 -33l51 -198l248 198q29 23 31.5 33t-22.5 12l-42 4l16 36h257l-16 -36l-34 -4q-29 -3 -54 -13t-53 -32l-316 -252l87 -336
q6 -23 17 -32.5t36 -12.5l32 -4l-16 -36h-337l16 36l44 4q28 2 39 12t6 33l-59 228l-286 -228q-29 -23 -31.5 -33t22.5 -12l42 -4l-16 -36h-257z" />
    <glyph glyph-name="uni0426" unicode="&#x426;" horiz-adv-x="918" 
d="M-30 0l11 36l46 4q27 2 38.5 11t20.5 38l177 580q9 29 3 38t-32 11l-44 4l11 36h338l-11 -36l-46 -4q-27 -2 -38.5 -11t-20.5 -38l-190 -623h311l190 623q9 29 3 38t-32 11l-44 4l11 36h338l-11 -36l-46 -4q-27 -2 -38.5 -11t-20.5 -38l-190 -623h104l-61 -225h-22
l-59 167q-2 7 -6.5 9.5t-15.5 2.5h-674z" />
    <glyph glyph-name="uni0427" unicode="&#x427;" horiz-adv-x="891" 
d="M244 669q8 29 2.5 38t-31.5 11l-44 4l11 36h338l-11 -36l-46 -4q-27 -2 -39 -11t-20 -38l-33 -107q-18 -57 -17.5 -94.5t17 -59.5t49 -31t79.5 -9q35 0 68.5 4t70.5 14l87 283q8 29 2.5 38t-31.5 11l-44 4l11 36h338l-11 -36l-46 -4q-27 -2 -39 -11t-20 -38l-178 -580
q-9 -29 -3 -38t32 -11l44 -4l-11 -36h-338l11 36l46 4q27 2 38.5 11t20.5 38l73 238q-58 -12 -104 -15.5t-73 -3.5q-76 0 -129 15.5t-82 48t-33 83t17 121.5z" />
    <glyph glyph-name="uni0427" unicode="&#x4b6;" horiz-adv-x="891" 
d="M244 669q8 29 2.5 38t-31.5 11l-44 4l11 36h338l-11 -36l-46 -4q-27 -2 -39 -11t-20 -38l-33 -107q-18 -57 -17.5 -94.5t17 -59.5t49 -31t79.5 -9q35 0 68.5 4t70.5 14l87 283q8 29 2.5 38t-31.5 11l-44 4l11 36h338l-11 -36l-46 -4q-27 -2 -39 -11t-20 -38l-178 -580
q-9 -29 -3 -38t32 -11l44 -4l-11 -36h-338l11 36l46 4q27 2 38.5 11t20.5 38l73 238q-58 -12 -104 -15.5t-73 -3.5q-76 0 -129 15.5t-82 48t-33 83t17 121.5z" />
    <glyph glyph-name="uni0428" unicode="&#x428;" horiz-adv-x="1270" 
d="M-30 0l11 36l46 4q27 2 38.5 11t20.5 38l178 580q8 29 2.5 38t-31.5 11l-44 4l11 36h338l-11 -36l-46 -4q-27 -2 -39 -11t-20 -38l-191 -623h260l191 623q8 29 2.5 38t-31.5 11l-44 4l11 36h338l-11 -36l-46 -4q-27 -2 -39 -11t-20 -38l-191 -623h260l191 623
q8 29 2.5 38t-31.5 11l-44 4l11 36h338l-11 -36l-46 -4q-27 -2 -39 -11t-20 -38l-178 -580q-9 -29 -3 -38t32 -11l44 -4l-11 -36h-1178z" />
    <glyph glyph-name="uni0428" unicode="&#x429;" horiz-adv-x="1270" 
d="M-30 0l11 36l46 4q27 2 38.5 11t20.5 38l178 580q8 29 2.5 38t-31.5 11l-44 4l11 36h338l-11 -36l-46 -4q-27 -2 -39 -11t-20 -38l-191 -623h260l191 623q8 29 2.5 38t-31.5 11l-44 4l11 36h338l-11 -36l-46 -4q-27 -2 -39 -11t-20 -38l-191 -623h260l191 623
q8 29 2.5 38t-31.5 11l-44 4l11 36h338l-11 -36l-46 -4q-27 -2 -39 -11t-20 -38l-178 -580q-9 -29 -3 -38t32 -11l44 -4l-11 -36h-1178z" />
    <glyph glyph-name="uni042A" unicode="&#x42a;" horiz-adv-x="863" 
d="M545 445q155 0 234 -44t79 -139q0 -65 -38 -114t-101 -82t-144 -49.5t-166 -16.5h-316l11 36l46 4q27 2 38.5 11t20.5 38l192 628h-52q-16 0 -23.5 -2.5t-18.5 -15.5l-193 -212h-22l105 271h486l-11 -36l-66 -4q-14 -1 -23 -3t-16 -7.5t-11.5 -14.5t-8.5 -24l-69 -224h67
zM391 46q137 0 213.5 53.5t76.5 162.5q0 74 -43 105.5t-127 31.5h-47l-108 -353h35z" />
    <glyph glyph-name="uni042B" unicode="&#x42b;" horiz-adv-x="1103" 
d="M422 445q155 0 234 -44t79 -139q0 -65 -38 -114t-101 -82t-144 -49.5t-166 -16.5h-316l11 36l46 4q27 2 38.5 11t20.5 38l178 580q8 29 2.5 38t-31.5 11l-44 4l11 36h358l-11 -36l-66 -4q-14 -1 -23 -3t-16 -7.5t-11.5 -14.5t-8.5 -24l-69 -224h67zM268 46
q137 0 213.5 53.5t76.5 162.5q0 74 -43 105.5t-127 31.5h-47l-108 -353h35zM674 36l36 4q27 3 43.5 11.5t25.5 37.5l178 580q9 29 -2.5 37.5t-36.5 11.5l-34 4l11 36h338l-11 -36l-36 -4q-28 -3 -44 -11.5t-25 -37.5l-178 -580q-9 -29 2 -37.5t37 -11.5l34 -4l-11 -36h-338z
" />
    <glyph glyph-name="uni042C" unicode="&#x42c;" horiz-adv-x="740" 
d="M422 445q155 0 234 -44t79 -139q0 -65 -38 -114t-101 -82t-144 -49.5t-166 -16.5h-316l11 36l46 4q27 2 38.5 11t20.5 38l178 580q8 29 2.5 38t-31.5 11l-44 4l11 36h358l-11 -36l-66 -4q-14 -1 -23 -3t-16 -7.5t-11.5 -14.5t-8.5 -24l-69 -224h67zM268 46
q137 0 213.5 53.5t76.5 162.5q0 74 -43 105.5t-127 31.5h-47l-108 -353h35z" />
    <glyph glyph-name="uni042D" unicode="&#x42d;" horiz-adv-x="807" 
d="M526 779q63 0 118 -18t95.5 -53.5t63.5 -87.5t23 -120q0 -56 -17 -115.5t-49.5 -116.5t-78.5 -108t-104 -89.5t-126.5 -61t-145.5 -22.5q-33 0 -68 2.5t-67.5 7t-61 11t-48.5 14.5l27 262h22l73 -192q9 -25 21 -35t23 -15q9 -4 28 -6.5t41 -2.5q60 0 114 24.5t97.5 68.5
t75 105.5t46.5 135.5h-182q-12 0 -20 -11l-88 -131h-22l102 336h22l8 -131q0 -11 14 -11h175q2 18 3 36.5t1 38.5q0 51 -5.5 94.5t-19.5 76t-37.5 50.5t-59.5 18q-17 0 -37 -2.5t-32 -6.5q-14 -5 -31.5 -15t-42.5 -35l-191 -192h-22l126 262q50 16 114.5 25.5t122.5 9.5z
" />
    <glyph glyph-name="uni042E" unicode="&#x42e;" horiz-adv-x="1232" 
d="M-19 36l36 4q27 3 43.5 11.5t25.5 37.5l178 580q9 29 -2.5 37.5t-36.5 11.5l-34 4l11 36h338l-11 -36l-36 -4q-28 -3 -44 -11.5t-25 -37.5l-74 -242h117q27 68 73 131.5t109 112.5t140.5 78.5t166.5 29.5q61 0 115 -18t94 -53.5t63 -87.5t23 -120q0 -56 -17 -115.5
t-49.5 -116.5t-78.5 -108t-104 -89.5t-126.5 -61t-145.5 -22.5q-62 0 -115.5 18t-94 53.5t-63.5 87.5t-23 120q0 48 14 102h-116l-86 -279q-9 -29 2 -37.5t37 -11.5l34 -4l-11 -36h-338zM760 29q58 0 113.5 35.5t98 97.5t68.5 147.5t26 184.5q0 52 -7 96.5t-23 77t-43 51
t-67 18.5q-59 0 -114 -35.5t-97.5 -97.5t-68.5 -147.5t-26 -184.5q0 -52 7 -96.5t23 -77t43 -51t67 -18.5z" />
    <glyph glyph-name="uni042F" unicode="&#x42f;" horiz-adv-x="837" 
d="M-61 0l416 354q-81 14 -125 52.5t-44 96.5q0 60 30.5 107.5t84.5 80t128.5 50t162.5 17.5h355l-11 -36l-46 -4q-27 -2 -39 -11t-20 -38l-178 -580q-9 -29 -3 -38t32 -11l44 -4l-11 -36h-338l11 36l46 4q27 2 38.5 11t20.5 38l76 247h-40l-395 -336h-195zM684 714h-54
q-58 0 -107 -12.5t-85 -38.5t-56 -65.5t-20 -93.5q0 -61 43 -92.5t124 -31.5h53z" />
    <glyph glyph-name="uni0402" unicode="&#x402;" horiz-adv-x="902" 
d="M104 38l71 4q27 1 38 9.5t20 37.5l192 628h-111q-13 0 -18 -2.5t-16 -13.5l-159 -169h-22l87 226h694l-51 -226h-22l-54 169q-4 11 -7.5 13.5t-15.5 2.5h-145l-97 -317q46 27 104.5 42t124.5 15q48 0 84.5 -15t59 -44.5t29.5 -73.5t-6 -101l-2 -9q-9 -42 -26.5 -71
t-41.5 -51.5t-53.5 -41t-62.5 -39.5q-16 -11 -40.5 -25t-51.5 -30t-55 -32t-52 -29l-14 30q56 37 93 63t62 51.5t40.5 57t29.5 79.5l8 29q24 88 0.5 136t-105.5 48q-78 0 -138 -31l-82 -269q-9 -29 -2.5 -37.5t32.5 -9.5l69 -4l-12 -38h-388z" />
    <glyph glyph-name="uni0404" unicode="&#x404;" horiz-adv-x="815" 
d="M435 -13q-73 0 -138.5 21.5t-114.5 62.5t-78 101t-29 137q0 99 45.5 184.5t120 149t170 100t194.5 36.5q73 0 140.5 -16.5t110.5 -45.5l-29 -235h-22l-62 177q-14 40 -40 57q-15 10 -37.5 13.5t-54.5 3.5q-57 0 -110.5 -22t-98.5 -63t-78.5 -99t-51.5 -130h240
q7 0 11.5 2t9.5 9l88 131h22l-103 -336h-22l-8 131q-1 11 -14 11h-235q-6 -45 -6 -92q0 -54 10.5 -98.5t33.5 -76.5t59.5 -49.5t88.5 -17.5q25 0 45 2.5t40 12.5q9 5 19 12t20 18l199 203h22l-137 -263q-21 -5 -47.5 -10.5t-55 -10t-59 -7.5t-58.5 -3z" />
    <glyph glyph-name="uni0405" unicode="&#x405;" horiz-adv-x="626" 
d="M217 -13q-25 0 -53.5 3t-57 9t-56.5 15.5t-52 23.5l60 241h22l31 -179q3 -18 7 -28.5t14 -18.5q11 -10 36.5 -15.5t59.5 -5.5q37 0 71.5 8.5t61.5 24.5t43 40t16 54q0 35 -23 74.5t-77 95.5l-52 54q-31 32 -53 73t-22 90q0 45 24 87.5t66 74.5t99.5 51.5t124.5 19.5
q46 0 92.5 -10.5t81.5 -33.5l-41 -225h-22l-52 163q-5 17 -9.5 27.5t-11.5 17.5q-8 8 -23.5 11.5t-29.5 3.5q-35 0 -64.5 -8t-52 -22.5t-35 -35.5t-12.5 -46q0 -32 18.5 -63t48.5 -63l55 -57q31 -33 52 -59t33 -49t17 -44.5t5 -45.5q0 -57 -28 -103.5t-74.5 -79.5
t-108.5 -51.5t-129 -18.5z" />
    <glyph glyph-name="uni0406" unicode="&#x406;" horiz-adv-x="430" 
d="M-19 36l36 4q27 3 43.5 11.5t25.5 37.5l178 580q9 29 -2.5 37.5t-36.5 11.5l-34 4l11 36h338l-11 -36l-36 -4q-28 -3 -44 -11.5t-25 -37.5l-178 -580q-9 -29 2 -37.5t37 -11.5l34 -4l-11 -36h-338z" />
    <glyph glyph-name="uni0406" unicode="&#x407;" horiz-adv-x="430" 
d="M-19 36l36 4q27 3 43.5 11.5t25.5 37.5l178 580q9 29 -2.5 37.5t-36.5 11.5l-34 4l11 36h338l-11 -36l-36 -4q-28 -3 -44 -11.5t-25 -37.5l-178 -580q-9 -29 2 -37.5t37 -11.5l34 -4l-11 -36h-338z" />
    <glyph glyph-name="uni0408" unicode="&#x408;" horiz-adv-x="428" 
d="M-105 -68q59 36 96.5 60.5t61.5 49.5t39 55.5t30 78.5l152 497q8 28 -2.5 34t-36.5 8l-43 2l13 41h350l-13 -41l-43 -2q-27 -2 -42 -8t-23 -34l-141 -459q-12 -41 -25.5 -70t-31.5 -52t-43.5 -42.5t-61.5 -40.5q-17 -10 -44 -23.5l-58 -29t-61.5 -30.5t-54.5 -28z" />
    <glyph glyph-name="uni0409" unicode="&#x409;" horiz-adv-x="1110" 
d="M148 83q-38 -51 -72.5 -73t-71.5 -22q-28 0 -40 13t-12 31q0 25 10.5 47.5t33 39.5t57.5 27.5t83 12.5q33 48 60.5 102t53 116.5t50 134.5t50.5 157q9 29 3 38t-32 11l-44 4l11 36h642l-11 -36l-66 -4q-14 -1 -23 -3t-16 -7.5t-11.5 -14.5t-8.5 -24l-69 -224h67
q155 0 234 -44t79 -139q0 -65 -38 -114t-101 -82t-144 -49.5t-166 -16.5h-316l11 36l46 4q27 2 38.5 11t20.5 38l191 623h-227q-33 -110 -65.5 -202.5t-65.5 -170t-67.5 -141.5t-73.5 -115zM638 46q137 0 213.5 53.5t76.5 162.5q0 74 -43 105.5t-127 31.5h-47l-108 -353h35z
" />
    <glyph glyph-name="uni040A" unicode="&#x40a;" horiz-adv-x="1201" 
d="M-19 36l46 4q27 2 38.5 11t20.5 38l178 580q8 29 2.5 38t-31.5 11l-44 4l11 36h338l-11 -36l-46 -4q-27 -2 -39 -11t-20 -38l-72 -233h300l72 233q8 29 2.5 38t-31.5 11l-44 4l11 36h358l-11 -36l-66 -4q-14 -1 -23 -3t-15.5 -7.5t-11.5 -14.5t-9 -24l-72 -232h67
q156 0 236 -43t80 -137q0 -64 -38 -112t-101 -80.5t-144 -48.5t-166 -16h-316l11 36l46 4q27 2 38.5 11t20.5 38l88 288h-300l-88 -288q-9 -29 -3 -38t32 -11l44 -4l-11 -36h-338zM728 46q137 0 213.5 52.5t76.5 158.5q0 72 -44 103t-129 31h-47l-105 -345h35z" />
    <glyph glyph-name="uni040B" unicode="&#x40b;" horiz-adv-x="1011" 
d="M104 38l71 4q26 1 37.5 9.5t20.5 37.5l192 628h-111q-13 0 -18 -2.5t-16 -13.5l-159 -169h-22l87 226h694l-51 -226h-22l-54 169q-4 11 -7.5 13.5t-15.5 2.5h-145l-97 -316q45 26 100.5 41t116.5 15q53 0 93 -14t62.5 -45t25.5 -80t-19 -119l-34 -110q-9 -29 -3 -38
t32 -11l44 -4l-11 -36h-249l63 205q27 89 3 136.5t-104 47.5q-38 0 -71 -8t-61 -22l-83 -270q-9 -29 -2.5 -37t32.5 -10l69 -4l-12 -38h-388z" />
    <glyph glyph-name="uni040F" unicode="&#x40f;" horiz-adv-x="900" 
d="M295 -12q-1 8 -6 10t-16 2h-303l11 36l46 4q27 2 38.5 11t20.5 38l177 580q9 29 3 38t-32 11l-44 4l11 36h338l-11 -36l-46 -4q-27 -2 -38.5 -11t-20.5 -38l-190 -623h311l190 623q9 29 3 38t-32 11l-44 4l11 36h338l-11 -36l-46 -4q-27 -2 -38.5 -11t-20.5 -38
l-177 -580q-9 -29 -3 -38t32 -11l44 -4l-11 -36h-302q-11 0 -17.5 -2t-12.5 -10l-116 -167h-22z" />
    <glyph glyph-name="uni0490" unicode="&#x490;" horiz-adv-x="660" 
d="M437 712l-191 -623q-9 -29 -2.5 -37t32.5 -10l79 -4l-12 -38h-373l11 36l46 4q27 2 38.5 11t20.5 38l178 580q8 29 2.5 38t-31.5 11l-44 4l11 36h446q11 0 17 2.5t12 9.5l161 167h22l-76 -225h-347z" />
    <glyph glyph-name="uni0462" unicode="&#x462;" horiz-adv-x="825" 
d="M517 363q150 0 226.5 -37t76.5 -116q0 -45 -30 -83t-85 -66.5t-131 -44.5t-168 -16h-336l11 36l46 4q27 2 38.5 11t20.5 38l153 498h-67q-16 0 -22.5 -3t-20.5 -15l-177 -162h-22l89 221h232l13 41q9 29 3 38t-32 11l-44 4l11 36h338l-11 -36l-46 -4q-27 -2 -38.5 -11
t-20.5 -38l-13 -41h232l-45 -221h-22l-79 162q-6 12 -10.5 15t-20.5 3h-67l-69 -224h87zM388 46q121 0 187 44t66 116q0 61 -40 86t-118 25h-67l-83 -271h55z" />
    <glyph glyph-name="uni0472" unicode="&#x472;" horiz-adv-x="882" 
d="M370 -13q-64 0 -119.5 18t-97 53.5t-65.5 87.5t-24 120q0 56 17.5 115.5t50.5 116.5t80 108t106.5 89.5t129 61t148.5 22.5q64 0 119.5 -18t96.5 -53.5t65 -87.5t24 -120q0 -56 -17.5 -115.5t-50.5 -116.5t-80 -108t-106 -89.5t-129 -61t-148 -22.5zM262 397
q74 28 128 37t94 7t70 -12t55 -20t48 -16.5t51 -2.5q4 25 6 51t2 53q0 52 -7.5 96.5t-24.5 77t-46 51t-72 18.5q-51 0 -99 -25t-89 -70t-71 -107.5t-45 -137.5zM400 29q49 0 95.5 23.5t86.5 66t70.5 101.5t47.5 131q-66 -23 -113 -27.5t-82 1t-62.5 16.5t-54.5 19.5
t-58.5 10.5t-73.5 -11q-6 -42 -6 -88q0 -52 7.5 -96.5t24.5 -77t46 -51t72 -18.5z" />
    <glyph glyph-name="uni0474" unicode="&#x474;" horiz-adv-x="895" 
d="M102 -30l145 699q6 29 -3.5 37.5t-35.5 11.5l-34 4l11 36h338l-11 -36l-36 -4q-27 -3 -44.5 -11.5t-24.5 -37.5l-103 -466l515 470q56 51 93 78.5t75 27.5q29 0 44 -13t15 -32q0 -22 -11.5 -43t-36.5 -37t-64.5 -25.5t-94.5 -7.5l-717 -651h-20z" />
    <glyph glyph-name="uni04AE" unicode="&#x4ae;" horiz-adv-x="784" 
d="M134 38l61 4q26 2 42.5 10t25.5 37l78 253l-119 331q-9 25 -17 33.5t-33 11.5l-32 4l11 36h339l-11 -36l-44 -4q-27 -2 -41.5 -11.5t-6.5 -33.5l94 -272l265 272q24 25 21.5 34t-28.5 11l-62 4l11 36h270l-11 -36l-34 -4q-28 -3 -47.5 -11.5t-43.5 -33.5l-322 -332
l-77 -252q-9 -29 2.5 -37.5t37.5 -9.5l59 -4l-12 -38h-388z" />
    <glyph glyph-name="uni04AE" unicode="&#x4b0;" horiz-adv-x="784" 
d="M134 38l61 4q26 2 42.5 10t25.5 37l78 253l-119 331q-9 25 -17 33.5t-33 11.5l-32 4l11 36h339l-11 -36l-44 -4q-27 -2 -41.5 -11.5t-6.5 -33.5l94 -272l265 272q24 25 21.5 34t-28.5 11l-62 4l11 36h270l-11 -36l-34 -4q-28 -3 -47.5 -11.5t-43.5 -33.5l-322 -332
l-77 -252q-9 -29 2.5 -37.5t37.5 -9.5l59 -4l-12 -38h-388z" />
    <glyph glyph-name="uni04BA" unicode="&#x4ba;" horiz-adv-x="890" 
d="M726.956 88.9941q-8 -28.998 -2.5 -37.9971q5.49902 -9 31.498 -10.999l43.9971 -4l-10.999 -35.998h-337.979l10.999 35.998l45.9971 4q26.999 1.99902 38.998 10.999q11.999 8.99902 19.999 37.9971l32.9971 106.994q17.999 56.9961 17.499 94.4941t-16.999 59.4961
q-16.498 21.999 -48.9961 30.998q-32.498 9 -79.4961 9q-34.9971 0 -68.4951 -4t-70.4961 -13.999l-86.9941 -282.983q-8 -28.998 -2.5 -37.9971q5.49902 -9 31.498 -10.999l43.9971 -4l-10.999 -35.998h-337.979l10.999 35.998l45.9971 4q26.999 1.99902 38.998 10.999
q11.999 8.99902 19.999 37.9971l177.989 579.965q8.99902 28.998 2.99902 37.998q-5.99902 8.99902 -31.998 10.999l-43.9971 4l10.999 35.998h337.979l-10.999 -35.998l-45.9971 -4q-26.998 -2 -38.498 -10.999q-11.499 -9 -20.498 -37.998l-72.9961 -237.985
q57.9961 11.999 103.994 15.499q45.9971 3.5 72.9951 3.5q75.9951 0 128.992 -15.499t81.9951 -47.9971t32.998 -82.9951t-16.999 -121.492z" />
    <glyph glyph-name="uni04C0" unicode="&#x4c0;" horiz-adv-x="430" 
d="M-19 36l36 4q27 3 43.5 11.5t25.5 37.5l178 580q9 29 -2.5 37.5t-36.5 11.5l-34 4l11 36h338l-11 -36l-36 -4q-28 -3 -44 -11.5t-25 -37.5l-178 -580q-9 -29 2 -37.5t37 -11.5l34 -4l-11 -36h-338z" />
    <glyph glyph-name="uni04D8" unicode="&#x4d8;" horiz-adv-x="808" 
d="M367 -12q-81 0 -139.5 24.5t-93.5 67t-47.5 100.5t-1.5 126h570q5 26 8 52t3 55q0 68 -18.5 117.5t-52 82t-79.5 48.5t-100 16q-103 0 -174.5 -61t-112.5 -167h-34q22 88 64 150.5t96 102.5t115.5 59t123.5 19q73 0 133.5 -21.5t104.5 -61t68.5 -96.5t24.5 -129
q0 -59 -15.5 -118t-44.5 -112.5t-70 -100t-91.5 -80.5t-110.5 -53.5t-126 -19.5zM385 30q39 0 76.5 15t70.5 43t60 67.5t45 87.5h-394q-16 -106 17.5 -159.5t124.5 -53.5z" />
    <glyph glyph-name="uni04E8" unicode="&#x4e8;" horiz-adv-x="882" 
d="M370 -13q-64 0 -119.5 18t-97 53.5t-65.5 87.5t-24 120q0 56 17.5 115.5t50.5 116.5t80 108t106.5 89.5t129 61t148.5 22.5q64 0 119.5 -18t96.5 -53.5t65 -87.5t24 -120q0 -56 -17.5 -115.5t-50.5 -116.5t-80 -108t-106 -89.5t-129 -61t-148 -22.5zM400 29q49 0 96.5 24
t88 67.5t71 104.5t46.5 134h-446q-6 -42 -6 -87q0 -52 7.5 -96.5t24.5 -77t46 -51t72 -18.5zM566 737q-49 0 -95.5 -23.5t-86.5 -65.5t-71 -100.5t-47 -129.5h445q2 18 3.5 37t1.5 39q0 52 -7.5 96.5t-24.5 77t-46 51t-72 18.5z" />
    <glyph glyph-name="uni0430" unicode="&#x430;" horiz-adv-x="586" 
d="M91 -13q-44 0 -67 30.5t-23 75.5t16 94t43 96.5t63 90.5t75 75.5t79 52t76 19.5q26 0 41.5 -15t18.5 -32h1l17 46h140l-149 -405q-15 -40 -16 -56t15 -16q9 0 24.5 8t34 25t38.5 45t40 67l29 -12q-21 -43 -46 -78t-55.5 -59.5t-68 -38t-82.5 -13.5q-32 0 -47.5 9.5
t-19.5 26t1.5 39.5t16.5 50l25 65h-2q-30 -50 -55 -86t-49.5 -59t-52 -34t-61.5 -11zM181 65q14 0 38 25.5t49.5 64.5t49.5 84.5t39 84.5q34 91 30.5 128.5t-33.5 37.5q-24 0 -47.5 -19.5t-45 -51t-40 -72t-32 -82.5t-21 -82t-7.5 -71q0 -47 20 -47z" />
    <glyph glyph-name="uni0431" unicode="&#x431;" horiz-adv-x="533" 
d="M521 377q0 -71 -28.5 -140.5t-76.5 -125t-110.5 -90t-130.5 -34.5q-71 0 -110.5 39.5t-39.5 108.5q0 97 35 198t103 189t166.5 154.5t226.5 94.5q39 8 67.5 18.5t47.5 39.5h32q-17 -41 -34.5 -75.5t-41.5 -59t-57.5 -38.5t-82.5 -14q-32 0 -53.5 2.5t-37 4t-27 1
t-23.5 -6.5q-18 -9 -34 -29.5t-30.5 -49.5t-27.5 -65t-23 -76q12 17 28.5 34t36.5 30.5t43.5 22t49.5 8.5q32 0 57 -11.5t41.5 -30.5t25 -45t8.5 -54zM224 29q27 0 51 31t42.5 80.5t29 112t10.5 126.5q0 39 -9.5 56.5t-25.5 17.5q-40 0 -101 -73q-15 -68 -23.5 -136.5
t-8.5 -126.5q0 -88 35 -88z" />
    <glyph glyph-name="uni0432" unicode="&#x432;" horiz-adv-x="524" 
d="M463 173q0 -34 -21.5 -67t-56.5 -59.5t-81.5 -43t-95.5 -16.5q-91 0 -141.5 37.5t-50.5 106.5q0 76 36 147t92.5 125.5t125 87t133.5 32.5q66 0 97 -21t31 -56q0 -54 -59.5 -98.5t-174.5 -69.5q87 3 126.5 -25.5t39.5 -79.5zM343 481q-29 0 -52 -18t-41.5 -47t-32.5 -67
t-23 -78q16 4 29.5 8t26.5 9q65 25 95 64t30 83q0 21 -8 33.5t-24 12.5zM175 113q0 -43 11.5 -67.5t37.5 -24.5q18 0 33.5 11t27 30t17.5 44t6 54q0 41 -12.5 65t-52.5 24q-14 0 -28 -3.5t-28 -8.5q-12 -69 -12 -124z" />
    <glyph glyph-name="uni0433" unicode="&#x433;" horiz-adv-x="504" 
d="M203 -13q-90 0 -136.5 34t-46.5 97t47.5 107t147.5 71l33 9q66 18 100 44t34 72q0 35 -18 49.5t-41 14.5q-19 0 -34 -8q-14 -7 -33 -23l-130 -113h-22l77 160q41 11 73 15.5t71 4.5q37 0 68 -8.5t53.5 -26t35 -42.5t12.5 -58q0 -38 -14 -65.5t-40 -48.5t-64.5 -36.5
t-86.5 -29.5l-42 -12q-48 -14 -77 -41t-29 -69q0 -32 21.5 -45.5t44.5 -13.5q14 0 25 2.5t21 7.5t19 12.5t20 17.5l134 124h22l-91 -178q-35 -10 -75 -17t-79 -7z" />
    <glyph glyph-name="uni0433" unicode="&#x493;" horiz-adv-x="504" 
d="M203 -13q-90 0 -136.5 34t-46.5 97t47.5 107t147.5 71l33 9q66 18 100 44t34 72q0 35 -18 49.5t-41 14.5q-19 0 -34 -8q-14 -7 -33 -23l-130 -113h-22l77 160q41 11 73 15.5t71 4.5q37 0 68 -8.5t53.5 -26t35 -42.5t12.5 -58q0 -38 -14 -65.5t-40 -48.5t-64.5 -36.5
t-86.5 -29.5l-42 -12q-48 -14 -77 -41t-29 -69q0 -32 21.5 -45.5t44.5 -13.5q14 0 25 2.5t21 7.5t19 12.5t20 17.5l134 124h22l-91 -178q-35 -10 -75 -17t-79 -7z" />
    <glyph glyph-name="uni0433" unicode="&#x453;" horiz-adv-x="504" 
d="M203 -13q-90 0 -136.5 34t-46.5 97t47.5 107t147.5 71l33 9q66 18 100 44t34 72q0 35 -18 49.5t-41 14.5q-19 0 -34 -8q-14 -7 -33 -23l-130 -113h-22l77 160q41 11 73 15.5t71 4.5q37 0 68 -8.5t53.5 -26t35 -42.5t12.5 -58q0 -38 -14 -65.5t-40 -48.5t-64.5 -36.5
t-86.5 -29.5l-42 -12q-48 -14 -77 -41t-29 -69q0 -32 21.5 -45.5t44.5 -13.5q14 0 25 2.5t21 7.5t19 12.5t20 17.5l134 124h22l-91 -178q-35 -10 -75 -17t-79 -7z" />
    <glyph glyph-name="uni0434" unicode="&#x434;" horiz-adv-x="527" 
d="M156 -13q-63 0 -101.5 35.5t-38.5 111.5q0 67 28.5 135.5t75 124.5t106.5 91.5t123 35.5q16 0 30 -3q0 54 -7 99t-20.5 77t-34.5 50t-51 18q-40 0 -76 -32l-15 20q31 31 63.5 44.5t80.5 13.5q50 0 90 -21.5t68 -59t43 -89.5t15 -113q0 -128 -33 -228t-86.5 -169
t-121.5 -105t-138 -36zM175 111q0 -33 7 -58t27 -25q26 0 55 28t53.5 83t41 137.5t19.5 191.5q-6 8 -16.5 13.5t-24.5 5.5q-35 0 -64.5 -36t-51.5 -91.5t-34 -122t-12 -126.5z" />
    <glyph glyph-name="uni0435" unicode="&#x435;" horiz-adv-x="481" 
d="M172 -13q-72 0 -114.5 39t-42.5 112t34.5 142t87 122.5t114.5 86t118 32.5q60 0 89.5 -29t29.5 -70q0 -28 -13.5 -57t-37.5 -53l-236 -2q-11 -32 -17.5 -66.5t-6.5 -71.5q0 -63 18.5 -89.5t53.5 -26.5q78 0 151 143l30 -10q-48 -102 -109 -152t-149 -50zM374 490
q-22 0 -44.5 -11.5t-44.5 -32t-41 -49.5t-34 -63h25q40 0 72.5 12.5t55.5 31t35.5 39.5t12.5 39q0 34 -37 34z" />
    <glyph glyph-name="uni0435" unicode="&#x451;" horiz-adv-x="481" 
d="M172 -13q-72 0 -114.5 39t-42.5 112t34.5 142t87 122.5t114.5 86t118 32.5q60 0 89.5 -29t29.5 -70q0 -28 -13.5 -57t-37.5 -53l-236 -2q-11 -32 -17.5 -66.5t-6.5 -71.5q0 -63 18.5 -89.5t53.5 -26.5q78 0 151 143l30 -10q-48 -102 -109 -152t-149 -50zM374 490
q-22 0 -44.5 -11.5t-44.5 -32t-41 -49.5t-34 -63h25q40 0 72.5 12.5t55.5 31t35.5 39.5t12.5 39q0 34 -37 34z" />
    <glyph glyph-name="uni0436" unicode="&#x436;" horiz-adv-x="1053" 
d="M357 -13l92 240l-95 -15q-27 -48 -62 -89t-72.5 -71t-75.5 -47.5t-70 -17.5q-35 0 -61.5 20.5t-26.5 66.5q0 24 11 41.5t30.5 28.5t45 14t54.5 -1q-15 -48 -11 -74t26 -26q19 0 38 23.5t34 61t25.5 84t14.5 93.5q7 67 -3.5 92.5t-30.5 25.5q-21 0 -48.5 -27.5
t-55.5 -93.5l-29 11q16 42 39 78t51.5 62.5t62.5 41t73 14.5q55 0 78.5 -37.5t17.5 -106.5q-3 -32 -11.5 -62.5t-21.5 -60.5l90 14l87 229l160 24l-87 -226l100 16q27 45 61 83t70.5 66.5t72.5 44.5t67 16q35 0 61.5 -20.5t26.5 -66.5q0 -24 -11 -41.5t-30.5 -28.5
t-45 -14.5t-54.5 1.5q15 48 11 74t-26 26q-20 0 -38.5 -23.5t-33.5 -61t-25.5 -84.5t-14.5 -93q-3 -34 -2 -56.5t5.5 -36t12.5 -19.5t18 -6q21 0 48.5 27.5t55.5 93.5l29 -11q-17 -42 -39.5 -78t-51 -62.5t-62.5 -41t-73 -14.5q-55 0 -78.5 37.5t-17.5 106.5q3 35 13.5 69.5
t26.5 68.5l-92 -15l-93 -243z" />
    <glyph glyph-name="uni0436" unicode="&#x497;" horiz-adv-x="1053" 
d="M357 -13l92 240l-95 -15q-27 -48 -62 -89t-72.5 -71t-75.5 -47.5t-70 -17.5q-35 0 -61.5 20.5t-26.5 66.5q0 24 11 41.5t30.5 28.5t45 14t54.5 -1q-15 -48 -11 -74t26 -26q19 0 38 23.5t34 61t25.5 84t14.5 93.5q7 67 -3.5 92.5t-30.5 25.5q-21 0 -48.5 -27.5
t-55.5 -93.5l-29 11q16 42 39 78t51.5 62.5t62.5 41t73 14.5q55 0 78.5 -37.5t17.5 -106.5q-3 -32 -11.5 -62.5t-21.5 -60.5l90 14l87 229l160 24l-87 -226l100 16q27 45 61 83t70.5 66.5t72.5 44.5t67 16q35 0 61.5 -20.5t26.5 -66.5q0 -24 -11 -41.5t-30.5 -28.5
t-45 -14.5t-54.5 1.5q15 48 11 74t-26 26q-20 0 -38.5 -23.5t-33.5 -61t-25.5 -84.5t-14.5 -93q-3 -34 -2 -56.5t5.5 -36t12.5 -19.5t18 -6q21 0 48.5 27.5t55.5 93.5l29 -11q-17 -42 -39.5 -78t-51 -62.5t-62.5 -41t-73 -14.5q-55 0 -78.5 37.5t-17.5 106.5q3 35 13.5 69.5
t26.5 68.5l-92 -15l-93 -243z" />
    <glyph glyph-name="uni0437" unicode="&#x437;" horiz-adv-x="488" 
d="M158 -13q-78 0 -118 23t-40 65q0 40 36 61t102 13q-20 -71 -14 -100.5t38 -29.5q25 0 45 13t33 34t20 49t7 58q0 31 -11.5 50t-48.5 19q-17 0 -33.5 -5t-31.5 -11l10 37q23 6 41 13q42 15 70 34t45 40t24 43t7 42q0 42 -38 42q-37 0 -84.5 -34t-95.5 -103l-25 17
q58 85 124 124.5t153 39.5q58 0 90 -25.5t32 -68.5q0 -50 -56 -90t-177 -66q87 4 126 -21.5t39 -76.5q0 -34 -21.5 -67t-58.5 -59.5t-85.5 -43t-103.5 -16.5z" />
    <glyph glyph-name="uni0438" unicode="&#x438;" 
d="M207 177q-16 -36 -25 -58.5t-12 -35.5t-0.5 -18t9.5 -5q19 0 50 38t69 97q23 34 46 72.5t44.5 77.5t40.5 76.5t34 71.5l156 26l-156 -404q-15 -40 -16.5 -56t14.5 -16q9 0 24.5 8t34 25t38.5 45t40 67l29 -12q-21 -43 -46 -78t-55.5 -59.5t-68 -38t-82.5 -13.5
q-32 0 -50 9t-24.5 24.5t-3 37.5t14.5 49l77 189h-1q-24 -44 -47.5 -83t-43.5 -69q-27 -43 -51.5 -73t-47.5 -48.5t-47 -27t-51 -8.5q-59 0 -71 50t27 138l119 269h-93l11 32l272 53z" />
    <glyph glyph-name="uni0438" unicode="&#x4e3;" 
d="M207 177q-16 -36 -25 -58.5t-12 -35.5t-0.5 -18t9.5 -5q19 0 50 38t69 97q23 34 46 72.5t44.5 77.5t40.5 76.5t34 71.5l156 26l-156 -404q-15 -40 -16.5 -56t14.5 -16q9 0 24.5 8t34 25t38.5 45t40 67l29 -12q-21 -43 -46 -78t-55.5 -59.5t-68 -38t-82.5 -13.5
q-32 0 -50 9t-24.5 24.5t-3 37.5t14.5 49l77 189h-1q-24 -44 -47.5 -83t-43.5 -69q-27 -43 -51.5 -73t-47.5 -48.5t-47 -27t-51 -8.5q-59 0 -71 50t27 138l119 269h-93l11 32l272 53z" />
    <glyph glyph-name="uni0438" unicode="&#x439;" 
d="M207 177q-16 -36 -25 -58.5t-12 -35.5t-0.5 -18t9.5 -5q19 0 50 38t69 97q23 34 46 72.5t44.5 77.5t40.5 76.5t34 71.5l156 26l-156 -404q-15 -40 -16.5 -56t14.5 -16q9 0 24.5 8t34 25t38.5 45t40 67l29 -12q-21 -43 -46 -78t-55.5 -59.5t-68 -38t-82.5 -13.5
q-32 0 -50 9t-24.5 24.5t-3 37.5t14.5 49l77 189h-1q-24 -44 -47.5 -83t-43.5 -69q-27 -43 -51.5 -73t-47.5 -48.5t-47 -27t-51 -8.5q-59 0 -71 50t27 138l119 269h-93l11 32l272 53z" />
    <glyph glyph-name="uni043A" unicode="&#x43a;" horiz-adv-x="616" 
d="M-2 -10l175 454h-93l11 32l261 53l-197 -516zM430 -28q-34 0 -58 9.5t-40.5 26t-27 39.5t-19.5 50l-42 132l123 144q38 45 68 73.5t54.5 45t44 23t37.5 6.5q31 0 47.5 -20.5t16.5 -47.5q0 -40 -28.5 -71t-75.5 -34q-14 55 -21.5 77.5t-19.5 22.5q-13 0 -36 -25.5
t-56 -64.5l-24 -28l69 -245q6 -23 12.5 -36t12.5 -19.5t11.5 -8t10.5 -1.5q6 0 15 3.5t19.5 15.5t21.5 33.5t23 57.5l29 -9q-15 -45 -31.5 -74t-36.5 -45.5t-44.5 -23t-54.5 -6.5z" />
    <glyph glyph-name="uni043A" unicode="&#x49b;" horiz-adv-x="616" 
d="M-2 -10l175 454h-93l11 32l261 53l-197 -516zM430 -28q-34 0 -58 9.5t-40.5 26t-27 39.5t-19.5 50l-42 132l123 144q38 45 68 73.5t54.5 45t44 23t37.5 6.5q31 0 47.5 -20.5t16.5 -47.5q0 -40 -28.5 -71t-75.5 -34q-14 55 -21.5 77.5t-19.5 22.5q-13 0 -36 -25.5
t-56 -64.5l-24 -28l69 -245q6 -23 12.5 -36t12.5 -19.5t11.5 -8t10.5 -1.5q6 0 15 3.5t19.5 15.5t21.5 33.5t23 57.5l29 -9q-15 -45 -31.5 -74t-36.5 -45.5t-44.5 -23t-54.5 -6.5z" />
    <glyph glyph-name="uni043A" unicode="&#x45c;" horiz-adv-x="616" 
d="M-2 -10l175 454h-93l11 32l261 53l-197 -516zM430 -28q-34 0 -58 9.5t-40.5 26t-27 39.5t-19.5 50l-42 132l123 144q38 45 68 73.5t54.5 45t44 23t37.5 6.5q31 0 47.5 -20.5t16.5 -47.5q0 -40 -28.5 -71t-75.5 -34q-14 55 -21.5 77.5t-19.5 22.5q-13 0 -36 -25.5
t-56 -64.5l-24 -28l69 -245q6 -23 12.5 -36t12.5 -19.5t11.5 -8t10.5 -1.5q6 0 15 3.5t19.5 15.5t21.5 33.5t23 57.5l29 -9q-15 -45 -31.5 -74t-36.5 -45.5t-44.5 -23t-54.5 -6.5z" />
    <glyph glyph-name="uni043B" unicode="&#x43b;" horiz-adv-x="600" 
d="M87 11q-17 -13 -35 -18.5t-37 -5.5q-25 0 -40 14.5t-15 37.5q-2 21 14 49l150 25q22 33 42.5 72.5t39 81.5t36 85.5t33.5 84.5h-97l26 65h377l-149 -387q-15 -40 -16.5 -56t14.5 -16q9 0 24.5 8t34 25t38.5 45t40 67l29 -12q-21 -43 -46 -78t-55.5 -59.5t-68 -38
t-82.5 -13.5q-59 0 -70.5 35.5t12.5 96.5l124 318h-93q-38 -95 -69.5 -167t-59 -123.5t-52.5 -84.5t-49 -51z" />
    <glyph glyph-name="uni043C" unicode="&#x43c;" horiz-adv-x="805" 
d="M18 -13q-29 0 -46 15t-17 39q0 23 14 47l146 24q26 47 56.5 128.5t72.5 203.5h-86l11 32l221 53l20 -314l226 277l157 27l-156 -404q-15 -40 -16.5 -56t14.5 -16q9 0 24.5 8t34 25t38.5 45t40 67l29 -12q-21 -43 -46 -78t-55.5 -59.5t-68 -38t-82.5 -13.5
q-59 0 -70.5 35.5t12.5 96.5l107 274l-306 -372h-6l-26 353q-31 -89 -55.5 -157t-49.5 -116q-29 -57 -61 -85.5t-76 -28.5z" />
    <glyph glyph-name="uni043D" unicode="&#x43d;" 
d="M-2 -10l175 454h-93l11 32l261 53l-98 -258l131 23l78 199l156 26l-156 -404q-15 -40 -16.5 -56t14.5 -16q9 0 24.5 8t34 25t38.5 45t40 67l29 -12q-21 -43 -46 -78t-55.5 -59.5t-68 -38t-82.5 -13.5q-59 0 -70.5 35.5t12.5 96.5l54 137l-132 -22l-84 -221z" />
    <glyph glyph-name="uni043D" unicode="&#x4a3;" 
d="M-2 -10l175 454h-93l11 32l261 53l-98 -258l131 23l78 199l156 26l-156 -404q-15 -40 -16.5 -56t14.5 -16q9 0 24.5 8t34 25t38.5 45t40 67l29 -12q-21 -43 -46 -78t-55.5 -59.5t-68 -38t-82.5 -13.5q-59 0 -70.5 35.5t12.5 96.5l54 137l-132 -22l-84 -221z" />
    <glyph glyph-name="uni043E" unicode="&#x43e;" horiz-adv-x="524" 
d="M162 -13q-36 0 -63 11.5t-45.5 31.5t-28 46t-9.5 56q0 68 29 137.5t77.5 125.5t111.5 91t131 35q36 0 63 -11.5t45.5 -31.5t28 -46t9.5 -56q0 -69 -29 -138.5t-77.5 -125t-111.5 -90.5t-131 -35zM219 29q19 0 42 25t42 72t31.5 114.5t12.5 152.5q0 86 -37 86
q-21 0 -43.5 -25t-42 -72t-32 -114.5t-12.5 -152.5q0 -42 9 -64t30 -22z" />
    <glyph glyph-name="uni043F" unicode="&#x43f;" horiz-adv-x="635" 
d="M369 -13q-32 0 -51 9t-26.5 25t-4 38t15.5 48l108 224q17 35 26 57.5t12 36t0 18.5t-10 5q-19 0 -50 -38t-69 -97q-23 -35 -47 -73.5t-46 -78t-41 -77.5t-31 -71l-157 -23l175 454h-93l11 32l261 53l-136 -336h1q29 54 54.5 96.5t47.5 76.5q28 43 52.5 72.5t48.5 48
t48 26.5t50 8q29 0 47.5 -13.5t24.5 -38t-0.5 -59t-27.5 -77.5l-105 -218q-18 -38 -18 -55t16 -17q9 0 24.5 8t34 25t38.5 45t40 67l29 -12q-21 -43 -46 -78t-55.5 -59.5t-68 -38t-82.5 -13.5z" />
    <glyph glyph-name="uni0440" unicode="&#x440;" horiz-adv-x="588" 
d="M165 444h-93l11 32l259 53l-29 -84q28 32 67.5 54t80.5 22q57 0 90 -34.5t33 -90.5q0 -73 -35 -146.5t-94.5 -132t-136.5 -94.5t-161 -33l-82 -238h-148zM358 437q-29 0 -55 -21l-136 -397q34 0 65.5 16t59.5 43t51.5 61.5t40 71.5t26 73.5t9.5 66.5q0 48 -18 67t-43 19z
" />
    <glyph glyph-name="uni0441" unicode="&#x441;" horiz-adv-x="465" 
d="M164 -13q-72 0 -110 39t-38 112q0 45 14 91t38.5 88.5t57.5 79.5t71.5 64.5t80 43.5t83.5 16q49 0 82.5 -21.5t33.5 -66.5q0 -40 -37.5 -64.5t-103.5 -16.5q20 77 20 107t-22 30q-23 0 -50.5 -27.5t-51 -72t-39 -101.5t-15.5 -116q0 -63 17 -89.5t52 -26.5
q33 0 69.5 30.5t70.5 107.5l29 -11q-44 -108 -108.5 -152t-143.5 -44z" />
    <glyph glyph-name="uni0442" unicode="&#x442;" horiz-adv-x="910" 
d="M644 -13q-32 0 -51 9t-26.5 25t-4 38t15.5 48l108 224q17 35 26 57.5t12 36t0 18.5t-10 5q-19 0 -50 -38t-69 -97q-23 -35 -47 -73.5t-46 -78t-41 -77.5t-31 -71l-153 -23l134 341q14 36 22.5 58.5t12.5 35.5t2 18t-9 5q-19 0 -50 -38t-69 -97q-23 -35 -47 -73.5t-46 -78
t-41 -77.5t-31 -71l-157 -23l175 454h-93l11 32l261 53l-136 -336h1q29 54 54.5 96.5t47.5 76.5q28 43 52.5 72.5t48.5 48t48 26.5t50 8q59 0 66 -51t-31 -137l-62 -140h1q29 54 54.5 96.5t47.5 76.5q28 43 52.5 72.5t48.5 48t48 26.5t50 8q29 0 47.5 -13.5t24.5 -38
t-0.5 -59t-27.5 -77.5l-105 -218q-18 -38 -18 -55t16 -17q9 0 24.5 8t34 25t38.5 45t40 67l29 -12q-21 -43 -46 -78t-55.5 -59.5t-68 -38t-82.5 -13.5z" />
    <glyph glyph-name="uni0443" unicode="&#x443;" horiz-adv-x="568" 
d="M-89 -261q-34 0 -53.5 18.5t-19.5 47.5q0 18 10 38t28 28q25 -13 47 -20.5t50 -7.5q15 0 32.5 4t37.5 15.5t44 33t53 56.5l2 485l-83 -5l-1 31l232 66l-6 -377l119 171q36 51 62 88.5t47 61.5t40 36t41 12q29 0 42.5 -15.5t13.5 -38.5q0 -26 -10.5 -41.5t-22.5 -23.5
q-35 -9 -61 -16t-45 -14.5t-31.5 -16.5t-21.5 -22l-225 -323q-32 -45 -72 -93t-83 -87.5t-86 -65t-80 -25.5z" />
    <glyph glyph-name="uni0443" unicode="&#x4ef;" horiz-adv-x="568" 
d="M-89 -261q-34 0 -53.5 18.5t-19.5 47.5q0 18 10 38t28 28q25 -13 47 -20.5t50 -7.5q15 0 32.5 4t37.5 15.5t44 33t53 56.5l2 485l-83 -5l-1 31l232 66l-6 -377l119 171q36 51 62 88.5t47 61.5t40 36t41 12q29 0 42.5 -15.5t13.5 -38.5q0 -26 -10.5 -41.5t-22.5 -23.5
q-35 -9 -61 -16t-45 -14.5t-31.5 -16.5t-21.5 -22l-225 -323q-32 -45 -72 -93t-83 -87.5t-86 -65t-80 -25.5z" />
    <glyph glyph-name="uni0443" unicode="&#x45e;" horiz-adv-x="568" 
d="M-89 -261q-34 0 -53.5 18.5t-19.5 47.5q0 18 10 38t28 28q25 -13 47 -20.5t50 -7.5q15 0 32.5 4t37.5 15.5t44 33t53 56.5l2 485l-83 -5l-1 31l232 66l-6 -377l119 171q36 51 62 88.5t47 61.5t40 36t41 12q29 0 42.5 -15.5t13.5 -38.5q0 -26 -10.5 -41.5t-22.5 -23.5
q-35 -9 -61 -16t-45 -14.5t-31.5 -16.5t-21.5 -22l-225 -323q-32 -45 -72 -93t-83 -87.5t-86 -65t-80 -25.5z" />
    <glyph glyph-name="uni0444" unicode="&#x444;" horiz-adv-x="793" 
d="M563 521q104 -8 160.5 -56.5t56.5 -141.5q0 -71 -33 -131t-88.5 -104t-127.5 -70.5t-150 -30.5l-80 -235h-148l80 235q-104 8 -160.5 56.5t-56.5 141.5q0 71 33 131t88.5 104t127 70.5t149.5 30.5l49 143l-70 59l2 6l264 73zM174 177q0 -51 17.5 -91t55.5 -57l154 453
q-52 -5 -94 -34.5t-71.5 -73.5t-45.5 -96t-16 -101zM622 331q0 51 -17.5 91t-55.5 57l-155 -453q52 4 94 34t72 74t46 96t16 101z" />
    <glyph glyph-name="uni0445" unicode="&#x445;" horiz-adv-x="632" 
d="M30 -13q-31 0 -47.5 20.5t-16.5 47.5q0 40 28.5 71t75.5 34q14 -55 21.5 -77.5t19.5 -22.5q8 0 22 11.5t31.5 31t38 46.5t42.5 59l-19 171q-4 33 -10 56.5t-24 23.5q-24 0 -56.5 -33t-65.5 -81l-24 18q23 33 46 62t49 50.5t55 33.5t64 12q19 0 38 -4t34.5 -17.5t27.5 -40
t17 -72.5l5 -47q40 58 73.5 94t61.5 55t51 25.5t42 6.5q31 0 47.5 -20.5t16.5 -47.5q0 -40 -28.5 -71t-75.5 -34q-14 55 -21.5 77.5t-19.5 22.5q-9 0 -23.5 -12t-33 -33.5t-40 -50.5t-44.5 -62l18 -161q4 -33 10 -56.5t24 -23.5q24 0 56.5 33t65.5 81l24 -18
q-23 -33 -46 -62t-49 -50.5t-55 -33.5t-64 -12q-19 0 -38 4t-34.5 17.5t-27.5 40t-17 72.5l-4 37q-39 -55 -71 -88.5t-59 -52t-49.5 -24.5t-41.5 -6z" />
    <glyph glyph-name="uni0445" unicode="&#x4b3;" horiz-adv-x="632" 
d="M30 -13q-31 0 -47.5 20.5t-16.5 47.5q0 40 28.5 71t75.5 34q14 -55 21.5 -77.5t19.5 -22.5q8 0 22 11.5t31.5 31t38 46.5t42.5 59l-19 171q-4 33 -10 56.5t-24 23.5q-24 0 -56.5 -33t-65.5 -81l-24 18q23 33 46 62t49 50.5t55 33.5t64 12q19 0 38 -4t34.5 -17.5t27.5 -40
t17 -72.5l5 -47q40 58 73.5 94t61.5 55t51 25.5t42 6.5q31 0 47.5 -20.5t16.5 -47.5q0 -40 -28.5 -71t-75.5 -34q-14 55 -21.5 77.5t-19.5 22.5q-9 0 -23.5 -12t-33 -33.5t-40 -50.5t-44.5 -62l18 -161q4 -33 10 -56.5t24 -23.5q24 0 56.5 33t65.5 81l24 -18
q-23 -33 -46 -62t-49 -50.5t-55 -33.5t-64 -12q-19 0 -38 4t-34.5 17.5t-27.5 40t-17 72.5l-4 37q-39 -55 -71 -88.5t-59 -52t-49.5 -24.5t-41.5 -6z" />
    <glyph glyph-name="uni0446" unicode="&#x446;" horiz-adv-x="633" 
d="M207 177q-16 -36 -25 -58.5t-12 -35.5t-0.5 -18t9.5 -5q19 0 50 38t69 97q23 34 46 72.5t44.5 77.5t40.5 76.5t34 71.5l156 26l-156 -404q-15 -40 -16.5 -56t14.5 -16q9 0 24.5 8t34 25t38.5 45t40 67l29 -12h2q-18 -35 -27 -56t-12.5 -35.5t-3 -26t3 -26t5 -36
t2.5 -56.5q0 -39 -14 -65t-38.5 -43.5t-59 -27t-75.5 -14.5l3 20q29 5 42.5 28t13.5 49q0 49 13 81.5t36 64.5q-61 -46 -143 -46q-32 0 -50 9t-24.5 24.5t-3 37.5t14.5 49l77 189h-1q-24 -44 -47.5 -83t-43.5 -69q-27 -43 -51.5 -73t-47.5 -48.5t-47 -27t-51 -8.5
q-59 0 -71 50t27 138l119 269h-93l11 32l272 53z" />
    <glyph glyph-name="uni0447" unicode="&#x447;" horiz-adv-x="621" 
d="M280 344q-26 -57 -29.5 -77t10.5 -20t39.5 24.5t53.5 61.5t55 80t44 80l156 26l-156 -404q-15 -40 -16.5 -56t14.5 -16q9 0 24.5 8t34 25t38.5 45t40 67l29 -12q-21 -43 -46 -78t-55.5 -59.5t-68 -38t-82.5 -13.5q-32 0 -49.5 9t-24 25t-3.5 38t14 48l96 237h-1
q-51 -83 -106 -126.5t-109 -43.5q-57 0 -72 46.5t23 130.5l42 93h-93l11 32l272 53z" />
    <glyph glyph-name="uni0447" unicode="&#x4b7;" horiz-adv-x="621" 
d="M280 344q-26 -57 -29.5 -77t10.5 -20t39.5 24.5t53.5 61.5t55 80t44 80l156 26l-156 -404q-15 -40 -16.5 -56t14.5 -16q9 0 24.5 8t34 25t38.5 45t40 67l29 -12q-21 -43 -46 -78t-55.5 -59.5t-68 -38t-82.5 -13.5q-32 0 -49.5 9t-24 25t-3.5 38t14 48l96 237h-1
q-51 -83 -106 -126.5t-109 -43.5q-57 0 -72 46.5t23 130.5l42 93h-93l11 32l272 53z" />
    <glyph glyph-name="uni0448" unicode="&#x448;" horiz-adv-x="899" 
d="M389 296h-1q-24 -44 -47.5 -83t-43.5 -69q-27 -43 -51.5 -73t-47.5 -48.5t-47 -27t-51 -8.5q-59 0 -71 50t27 138l119 269h-93l11 32l272 53l-158 -352q-16 -36 -25 -58.5t-12 -35.5t-0.5 -18t9.5 -5q19 0 50 38t69 97q23 34 46 72.5t44.5 77.5t40.5 76.5t34 71.5l156 26
l-135 -342q-14 -36 -21.5 -58.5t-10 -35.5t-0.5 -18t8 -5q17 0 44 39t65 96q23 34 45.5 72t43.5 77t39.5 77t33.5 72l156 26l-156 -404q-15 -40 -16.5 -56t14.5 -16q9 0 24.5 8t34 25t38.5 45t40 67l29 -12q-21 -43 -46 -78t-55.5 -59.5t-68 -38t-82.5 -13.5q-32 0 -50 9
t-24.5 24.5t-3 37.5t14.5 49l77 189h-1q-24 -44 -46 -83t-42 -69q-27 -42 -50 -72t-45 -49t-44.5 -27.5t-47.5 -8.5q-59 0 -70.5 50t26.5 138z" />
    <glyph glyph-name="uni0448" unicode="&#x449;" horiz-adv-x="899" 
d="M389 296h-1q-24 -44 -47.5 -83t-43.5 -69q-27 -43 -51.5 -73t-47.5 -48.5t-47 -27t-51 -8.5q-59 0 -71 50t27 138l119 269h-93l11 32l272 53l-158 -352q-16 -36 -25 -58.5t-12 -35.5t-0.5 -18t9.5 -5q19 0 50 38t69 97q23 34 46 72.5t44.5 77.5t40.5 76.5t34 71.5l156 26
l-135 -342q-14 -36 -21.5 -58.5t-10 -35.5t-0.5 -18t8 -5q17 0 44 39t65 96q23 34 45.5 72t43.5 77t39.5 77t33.5 72l156 26l-156 -404q-15 -40 -16.5 -56t14.5 -16q9 0 24.5 8t34 25t38.5 45t40 67l29 -12q-21 -43 -46 -78t-55.5 -59.5t-68 -38t-82.5 -13.5q-32 0 -50 9
t-24.5 24.5t-3 37.5t14.5 49l77 189h-1q-24 -44 -46 -83t-42 -69q-27 -42 -50 -72t-45 -49t-44.5 -27.5t-47.5 -8.5q-59 0 -70.5 50t26.5 138z" />
    <glyph glyph-name="uni044A" unicode="&#x44a;" horiz-adv-x="523" 
d="M217 -13q-79 0 -121.5 32.5t-42.5 91.5q0 42 17 78t49.5 69t78.5 63.5t104 61.5h-211l-43 -81h-32l90 200h322q-42 -47 -82 -94t-72 -96q12 4 29.5 7.5t38.5 3.5q75 0 108 -31.5t33 -86.5q0 -35 -17.5 -73t-51.5 -70.5t-83.5 -53.5t-113.5 -21zM199 90q0 -65 38 -65
q21 0 39 16t30.5 42.5t19.5 60.5t7 71q0 32 -9 50t-32 18q-13 0 -23 -2.5t-17 -6.5q-25 -44 -39 -89t-14 -95z" />
    <glyph glyph-name="uni044B" unicode="&#x44b;" horiz-adv-x="781" 
d="M769 519l-156 -404q-15 -40 -16.5 -56t14.5 -16q9 0 24.5 8t34 25t38.5 45t40 67l29 -12q-21 -43 -46 -78t-55.5 -59.5t-68 -38t-82.5 -13.5q-59 0 -70.5 35.5t12.5 96.5l146 374zM443 205q0 -35 -17.5 -73t-51 -70.5t-82 -53.5t-110.5 -21q-57 0 -92.5 16.5t-51 45.5
t-12.5 69t24 87l105 239h-93l11 32l272 53l-96 -213q12 3 28 5t35 2q67 0 99 -31.5t32 -86.5zM174 148q-28 -62 -22.5 -92.5t36.5 -30.5q22 0 41 15t33.5 41t22.5 60.5t8 73.5q0 32 -9 50t-32 18q-8 0 -18 -2z" />
    <glyph glyph-name="uni044C" unicode="&#x44c;" horiz-adv-x="483" 
d="M443 205q0 -35 -17.5 -73t-51 -70.5t-82 -53.5t-110.5 -21q-57 0 -92.5 16.5t-51 45.5t-12.5 69t24 87l105 239h-93l11 32l272 53l-96 -213q12 3 28 5t35 2q67 0 99 -31.5t32 -86.5zM174 148q-28 -62 -22.5 -92.5t36.5 -30.5q22 0 41 15t33.5 41t22.5 60.5t8 73.5
q0 32 -9 50t-32 18q-8 0 -18 -2z" />
    <glyph glyph-name="uni044D" unicode="&#x44d;" horiz-adv-x="474" 
d="M313 521q72 0 110 -39t38 -112q0 -45 -14 -91t-38.5 -88.5t-57.5 -79.5t-71.5 -64.5t-80 -43.5t-83.5 -16q-49 0 -82.5 21.5t-33.5 66.5q0 40 37.5 64.5t103.5 16.5q-20 -77 -20 -107t22 -30q19 0 40.5 18t42 49t37.5 72t26 87l-160 -27l16 38l150 25q2 14 3 27.5t1 27.5
q0 63 -17 89.5t-52 26.5q-33 0 -69.5 -30.5t-70.5 -107.5l-29 11q44 108 108.5 152t143.5 44z" />
    <glyph glyph-name="uni044E" unicode="&#x44e;" horiz-adv-x="794" 
d="M-2 -10l175 454h-93l11 32l261 53l-98 -258l67 12q22 48 55 91.5t74 76t88 51.5t97 19q36 0 63 -11.5t45.5 -31.5t28 -46t9.5 -56q0 -69 -29 -138.5t-77.5 -125t-111.5 -90.5t-131 -35q-36 0 -63 11.5t-45.5 31.5t-28 46t-9.5 56q0 56 20 113l-67 -11l-84 -221zM489 29
q19 0 42 25t42 72t31.5 114.5t12.5 152.5q0 86 -37 86q-21 0 -43.5 -25t-42 -72t-32 -114.5t-12.5 -152.5q0 -42 9 -64t30 -22z" />
    <glyph glyph-name="uni044F" unicode="&#x44f;" horiz-adv-x="604" 
d="M578 519l-155 -404q-15 -40 -16.5 -56t14.5 -16q9 0 24.5 8t34 25t38.5 45t40 67l29 -12q-21 -43 -46 -78t-55.5 -59.5t-68 -38t-82.5 -13.5q-59 0 -70.5 35.5t12.5 96.5l55 142h-2l-151 -170q-25 -28 -43.5 -48t-34.5 -33.5t-31.5 -20t-33.5 -6.5q-36 0 -51 18t-15 41
q0 18 8.5 35t23.5 28h140l103 111q-14 -7 -36.5 -14.5t-49.5 -7.5q-35 0 -56.5 20t-21.5 57q0 40 23.5 84t61 81t84 61t91.5 24q29 0 47 -10.5t26 -36.5h2l16 45h146zM224 290q0 -14 7 -24t22 -10q21 0 40 10.5t34.5 27t27.5 37t20 40.5l5 13q12 30 13.5 50.5t-3 33
t-12.5 17.5t-17 5q-24 0 -48.5 -20t-44 -50t-32 -65t-12.5 -65z" />
    <glyph glyph-name="uni0452" unicode="&#x452;" horiz-adv-x="566" 
d="M184 565h-79l18 51h78l17 48l-70 59l2 6l263 73l-64 -186h90l-18 -51h-89l-42 -121l-96 -251h1q29 54 54.5 96.5t47.5 76.5q28 43 52.5 72.5t48.5 48t48 26.5t50 8q29 0 47.5 -13.5t24.5 -38t-0.5 -59t-27.5 -77.5l-150 -315q-15 -31 -26.5 -54t-26.5 -41.5t-37.5 -35
t-58.5 -34.5l-230 -115l-13 27q47 30 82 56t64 56.5t54.5 69.5t52.5 95l138 289q17 35 26 57.5t12 36t0 18.5t-10 5q-19 0 -50 -38t-69 -97q-23 -35 -47.5 -74t-46.5 -79t-41 -78t-31 -71l-147 -21z" />
    <glyph glyph-name="uni0454" unicode="&#x454;" horiz-adv-x="465" 
d="M164 -13q-72 0 -110 39t-38 112q0 45 14 91t38.5 88.5t57.5 79.5t71.5 64.5t80 43.5t83.5 16q49 0 82.5 -21.5t33.5 -66.5q0 -40 -37.5 -64.5t-103.5 -16.5q20 77 20 107t-22 30q-18 0 -38.5 -17t-40.5 -45.5t-37 -67.5t-27 -82l158 27l-19 -48l-148 -25q-2 -15 -3 -29.5
t-1 -29.5q0 -63 17 -89.5t52 -26.5q33 0 69.5 30.5t70.5 107.5l29 -11q-44 -108 -108.5 -152t-143.5 -44z" />
    <glyph glyph-name="uni0455" unicode="&#x455;" horiz-adv-x="412" 
d="M114 -13q-27 0 -50 7.5t-40 20t-26.5 29.5t-9.5 35q0 20 8 35.5t21.5 25t31 14.5t36.5 4q13 -43 21.5 -69.5t15 -40.5t12 -19t12.5 -5q15 0 30 5.5t27 14t19 19.5t7 23q0 20 -16 45t-42 57l-33 41q-49 61 -49 119q0 37 20 69t52 55t71.5 36t78.5 13q51 0 81.5 -21
t30.5 -58q0 -14 -6 -29t-17.5 -26.5t-28.5 -18t-40 -3.5q-13 38 -20.5 62t-13 37t-10.5 17.5t-12 4.5q-12 0 -26 -4t-25.5 -11.5t-19 -17.5t-7.5 -22q0 -16 12.5 -39.5t41.5 -58.5l36 -45q12 -16 21 -29.5t15 -27t8.5 -27.5t2.5 -32q0 -43 -20 -77.5t-52 -58.5t-71 -36.5
t-77 -12.5z" />
    <glyph glyph-name="uni0456" unicode="&#x456;" horiz-adv-x="361" 
d="M104 -13q-32 0 -49.5 9t-24 24.5t-3 37.5t13.5 49l130 337h-93l11 32l262 53l-159 -414q-15 -40 -16.5 -56t14.5 -16q9 0 24.5 8t34 25t38.5 45t40 67l29 -12q-21 -43 -46 -78t-55.5 -59.5t-68 -38t-82.5 -13.5zM240 710q0 18 7.5 35t20.5 30t30 20.5t35 7.5
q19 0 36 -7.5t30 -20.5t20.5 -30t7.5 -35q0 -19 -7.5 -36t-20.5 -30t-30 -20.5t-36 -7.5q-18 0 -35 7.5t-30 20.5t-20.5 30t-7.5 36z" />
    <glyph glyph-name="uni0456" unicode="&#x457;" horiz-adv-x="361" 
d="M104 -13q-32 0 -49.5 9t-24 24.5t-3 37.5t13.5 49l130 337h-93l11 32l262 53l-159 -414q-15 -40 -16.5 -56t14.5 -16q9 0 24.5 8t34 25t38.5 45t40 67l29 -12q-21 -43 -46 -78t-55.5 -59.5t-68 -38t-82.5 -13.5zM240 710q0 18 7.5 35t20.5 30t30 20.5t35 7.5
q19 0 36 -7.5t30 -20.5t20.5 -30t7.5 -35q0 -19 -7.5 -36t-20.5 -30t-30 -20.5t-36 -7.5q-18 0 -35 7.5t-30 20.5t-20.5 30t-7.5 36z" />
    <glyph glyph-name="uni0458" unicode="&#x458;" horiz-adv-x="320" 
d="M-240 -235q47 30 83.5 55.5t66.5 55.5t55 69.5t48 96.5l163 402h-93l11 32l264 53l-207 -511q-13 -32 -24 -54.5t-26.5 -41.5t-38.5 -35t-59 -34l-230 -115zM253 710q0 18 7.5 35t20.5 30t30 20.5t35 7.5q19 0 36 -7.5t30 -20.5t20.5 -30t7.5 -35q0 -19 -7.5 -36
t-20.5 -30t-30 -20.5t-36 -7.5q-18 0 -35 7.5t-30 20.5t-20.5 30t-7.5 36z" />
    <glyph glyph-name="uni0459" unicode="&#x459;" horiz-adv-x="744" 
d="M317 437q-48 -120 -85.5 -202t-69.5 -136q-38 -62 -73 -87t-74 -25q-25 0 -40 14.5t-15 38.5q0 11 3 23t11 25l150 25q22 33 42.5 72.5t39 81.5t36 85.5t33.5 84.5h-97l26 65h367l-73 -189q13 4 32 7t43 3q67 0 99 -31.5t32 -86.5q0 -35 -17.5 -73t-51 -70.5t-82 -53.5
t-110.5 -21q-57 0 -91.5 16t-49.5 44.5t-12 69t21 88.5l89 232h-83zM435 148q-24 -63 -20.5 -93t34.5 -30q22 0 41 15t33.5 41t22.5 60.5t8 73.5q0 32 -9 50t-32 18q-8 0 -15 -1t-13 -3z" />
    <glyph glyph-name="uni045A" unicode="&#x45a;" horiz-adv-x="775" 
d="M-2 -10l175 454h-93l11 32l261 53l-98 -258l121 21l78 201l156 26l-80 -206q13 4 32 7t43 3q67 0 99 -31.5t32 -86.5q0 -35 -17.5 -73t-51 -70.5t-82 -53.5t-110.5 -21q-57 0 -91.5 16t-50 44.5t-12.5 69t22 88.5l19 50l-122 -21l-84 -221zM466 148q-24 -63 -20.5 -93
t34.5 -30q22 0 41 15t33.5 41t22.5 60.5t8 73.5q0 32 -9 50t-32 18q-8 0 -15 -1t-13 -3z" />
    <glyph glyph-name="uni045B" unicode="&#x45b;" horiz-adv-x="616" 
d="M204 193q29 54 54.5 96.5t47.5 76.5q28 43 52.5 72.5t48.5 48t48 26.5t50 8q29 0 47.5 -13.5t24.5 -38t-0.5 -59t-27.5 -77.5l-105 -218q-18 -38 -18 -55t16 -17q9 0 24.5 8t34 25t38.5 45t40 67l29 -12q-21 -43 -46 -78t-55.5 -59.5t-68 -38t-82.5 -13.5q-32 0 -51 9
t-26.5 25t-4 38t15.5 48l108 224q17 35 26 57.5t12 36t0 18.5t-10 5q-19 0 -50 -38t-69 -97q-23 -35 -47 -73.5t-46 -78t-41 -77.5t-31 -71l-157 -23l199 575h-79l18 51h78l17 48l-70 59l2 6l263 73l-64 -186h90l-18 -51h-89l-42 -121l-87 -251h1z" />
    <glyph glyph-name="uni045F" unicode="&#x45f;" 
d="M270 0q-10 -21 -17 -38t-12 -33t-7.5 -32t-2.5 -34q0 -50 42 -53l-4 -20q-68 0 -105.5 14t-37.5 57q0 23 8 40.5t23 33t36 30.5t47 35h30zM207 177q-16 -36 -25 -58.5t-12 -35.5t-0.5 -18t9.5 -5q19 0 50 38t69 97q23 34 46 72.5t44.5 77.5t40.5 76.5t34 71.5l156 26
l-156 -404q-15 -40 -16.5 -56t14.5 -16q9 0 24.5 8t34 25t38.5 45t40 67l29 -12q-21 -43 -46 -78t-55.5 -59.5t-68 -38t-82.5 -13.5q-32 0 -50 9t-24.5 24.5t-3 37.5t14.5 49l77 189h-1q-24 -44 -47.5 -83t-43.5 -69q-27 -43 -51.5 -73t-47.5 -48.5t-47 -27t-51 -8.5
q-59 0 -71 50t27 138l119 269h-93l11 32l272 53z" />
    <glyph glyph-name="uni0491" unicode="&#x491;" horiz-adv-x="471" 
d="M327 461l-177 -461h-148l164 428q11 27 6 32.5t-30 7.5l-27 2l13 32h271q9 0 14 2.5t12 10.5l143 144h22l-84 -198h-179z" />
    <glyph glyph-name="uni0463" unicode="&#x463;" horiz-adv-x="784" 
d="M-2 -10l175 454h-93l11 32l261 53l-136 -336h1q29 54 54.5 96.5t47.5 76.5q28 43 52.5 72.5t48.5 48t48 26.5t50 8q59 0 71.5 -50.5t-27.5 -137.5l-8 -16q12 2 27 4t32 2q67 0 99 -31.5t32 -86.5q0 -35 -17.5 -73t-51 -70.5t-82 -53.5t-110.5 -21q-57 0 -93 16.5t-52 46
t-12.5 69t25.5 86.5l60 126q16 35 25 58t12 36t0.5 18t-9.5 5q-19 0 -50 -38t-69 -97q-23 -35 -47 -73.5t-46 -78t-41 -77.5t-31 -71zM475 148q-29 -61 -23 -92t37 -31q22 0 41 15t33.5 41t22.5 60.5t8 73.5q0 32 -9 50t-32 18q-10 0 -15 -1z" />
    <glyph glyph-name="uni0473" unicode="&#x473;" horiz-adv-x="524" 
d="M162 -13q-36 0 -63 11.5t-45.5 31.5t-28 46t-9.5 56q0 68 29 137.5t77.5 125.5t111.5 91t131 35q36 0 63 -11.5t45.5 -31.5t28 -46t9.5 -56q0 -69 -29 -138.5t-77.5 -125t-111.5 -90.5t-131 -35zM191 262q25 21 44 29t32.5 8t23.5 -6t17.5 -13t14.5 -13t15 -6q9 60 9 132
q0 86 -37 86q-16 0 -33 -14.5t-33.5 -42.5t-30 -68.5t-22.5 -91.5zM219 29q29 0 62 52.5t52 149.5q-22 -19 -38.5 -25t-29 -4t-22.5 9t-18.5 14.5t-17.5 12t-19 2.5q-5 -29 -6.5 -60t-1.5 -65q0 -42 9 -64t30 -22z" />
    <glyph glyph-name="uni0475" unicode="&#x475;" horiz-adv-x="591" 
d="M458 417q38 52 74 78t76 26q27 0 40.5 -12t13.5 -30q0 -21 -13.5 -42.5t-39 -39.5t-63 -30t-86.5 -13l-279 -366h-40l1 448l-83 -4l-1 31l232 66l-12 -357z" />
    <glyph glyph-name="uni04AF" unicode="&#x4af;" horiz-adv-x="562" 
d="M17 -248l91 235l34 450l-83 -5l-1 31l232 66l-40 -472l153 266q30 53 55.5 90.5t48 61.5t43.5 35t43 11q29 0 42.5 -15.5t13.5 -38.5q0 -26 -10.5 -41.5t-22.5 -23.5q-35 -9 -62 -16.5t-48 -17.5t-37.5 -25t-30.5 -39l-183 -318l-90 -234h-148z" />
    <glyph glyph-name="uni04AF" unicode="&#x4b1;" horiz-adv-x="562" 
d="M17 -248l91 235l34 450l-83 -5l-1 31l232 66l-40 -472l153 266q30 53 55.5 90.5t48 61.5t43.5 35t43 11q29 0 42.5 -15.5t13.5 -38.5q0 -26 -10.5 -41.5t-22.5 -23.5q-35 -9 -62 -16.5t-48 -17.5t-37.5 -25t-30.5 -39l-183 -318l-90 -234h-148z" />
    <glyph glyph-name="uni04BB" unicode="&#x4bb;" horiz-adv-x="616" 
d="M204 193q29 54 54.5 96.5t47.5 76.5q28 43 52.5 72.5t48.5 48t48 26.5t50 8q29 0 47.5 -13.5t24.5 -38t-0.5 -59t-27.5 -77.5l-105 -218q-18 -38 -18 -55t16 -17q9 0 24.5 8t34 25t38.5 45t40 67l29 -12q-21 -43 -46 -78t-55.5 -59.5t-68 -38t-82.5 -13.5q-32 0 -51 9
t-26.5 25t-4 38t15.5 48l108 224q17 35 26 57.5t12 36t0 18.5t-10 5q-19 0 -50 -38t-69 -97q-23 -35 -47 -73.5t-46 -78t-41 -77.5t-31 -71l-157 -23l233 674l-70 59l2 6l263 73l-123 -358l-87 -251h1z" />
    <glyph glyph-name="uni04CF" unicode="&#x4cf;" horiz-adv-x="332" 
d="M255 684q10 27 5.5 32.5t-30.5 7.5l-26 2l12 32h282l-12 -32l-28 -2q-14 -1 -22 -2.5t-14 -5t-10 -11.5t-9 -21l-215 -610q-10 -27 -5.5 -32.5t30.5 -7.5l26 -2l-12 -32h-282l12 32l28 2q13 1 21.5 2.5t14.5 5t10 11t9 21.5z" />
    <glyph glyph-name="uni04D9" unicode="&#x4d9;" horiz-adv-x="502" 
d="M333.979 521.968q71.9961 0 114.493 -38.9971q42.4971 -38.998 42.4971 -111.993q0 -72.9961 -34.498 -141.991q-34.4971 -68.9961 -86.9941 -122.493q-52.4971 -53.4961 -114.493 -85.9941t-117.993 -32.498q-59.9961 0 -89.4941 28.998t-29.498 69.9961
q0 27.998 13.499 56.9961t37.498 52.9971l235.985 2q10.999 31.998 17.499 66.4951q6.49902 34.498 6.49902 71.4961q0 62.9961 -18.498 89.4941q-18.499 26.499 -53.4971 26.499q-77.9951 0 -150.991 -142.991l-29.998 9.99902q47.9971 101.994 108.993 151.99
q60.9971 49.9971 148.991 49.9971zM131.992 18.999q21.998 0 44.4971 11.499t44.4971 31.998q21.999 20.499 40.998 49.4971q18.998 28.998 33.998 62.9961h-24.999q-39.9971 0 -72.4951 -12.499t-55.4971 -30.998t-35.498 -39.498q-12.499 -20.998 -12.499 -38.9971
q0 -33.998 36.998 -33.998z" />
    <glyph glyph-name="uni04E9" unicode="&#x4e9;" horiz-adv-x="524" 
d="M162 -13q-36 0 -63 11.5t-45.5 31.5t-28 46t-9.5 56q0 68 29 137.5t77.5 125.5t111.5 91t131 35q36 0 63 -11.5t45.5 -31.5t28 -46t9.5 -56q0 -69 -29 -138.5t-77.5 -125t-111.5 -90.5t-131 -35zM310 479q-32 0 -66 -55.5t-52 -157.5l148 13q4 26 5.5 54.5t1.5 59.5
q0 86 -37 86zM219 29q15 0 31 14t32 41t29.5 66t22.5 89l-148 -13q-6 -51 -6 -111q0 -42 9 -64t30 -22z" />
    <glyph glyph-name="quoteright" unicode="&#x2019;" horiz-adv-x="288" 
d="M127 462q28 14 52 33t41 40t27 42t10 41q0 62 -84 78q4 27 15 45.5t26.5 30.5t34 17.5t37.5 5.5q41 0 70 -26.5t29 -74.5q0 -32 -16.5 -68t-48 -72t-76.5 -68.5t-103 -56.5z" />
    <glyph glyph-name="bullet" unicode="&#x2022;" horiz-adv-x="395" 
d="M235 258q-26 0 -49 10t-40 27t-27 40.5t-10 49.5t10 49t27 40t40 27t49 10t49 -10t40.5 -27t27.5 -40t10 -49t-10 -49.5t-27.5 -40.5t-40.5 -27t-49 -10z" />
    <glyph glyph-name="glyph166" horiz-adv-x="686" 
d="M458 425h-185l-54 -244q-27 -120 -69 -204t-89.5 -137t-96 -77t-87.5 -24q-42 0 -63.5 22t-21.5 52q0 25 19.5 46.5t48.5 23.5q13 -14 26 -28.5t26 -26t25 -19t23 -7.5q9 0 17 4.5t16 19.5t16.5 43t18.5 75l103 481h-83l10 32q29 3 50.5 8.5t39 18t32.5 33.5t32 55
q29 60 59.5 97.5t60 58.5t57 28.5t50.5 7.5q35 0 52.5 -16t17.5 -43q0 -22 -10 -44.5t-28 -33.5q-25 8 -48.5 11.5t-44.5 3.5q-66 0 -99 -26t-33 -63q0 -28 16 -39.5t52 -11.5h122q28 0 45 7.5t27.5 19t17 25.5t13.5 28q29 60 59.5 99t60 62t57 32t50.5 9q35 0 52.5 -16
t17.5 -43q0 -22 -10 -44.5t-28 -33.5q-25 8 -48.5 11.5t-44.5 3.5q-33 0 -58 -8.5t-41.5 -22.5t-24.5 -32t-8 -36q0 -28 16 -44.5t52 -16.5h135l-50 -77h-126l-45 -205q-26 -120 -68 -204t-90 -137t-96.5 -77t-87.5 -24q-42 0 -63.5 22t-21.5 52q0 25 19.5 46.5t48.5 23.5
q13 -14 26 -28.5t26 -26t25 -19t23 -7.5q9 0 17 4.5t16 19.5t16.5 43t18.5 75z" />
    <glyph glyph-name="glyph168" horiz-adv-x="644" 
d="M525 710q0 18 7.5 35t20.5 30t30 20.5t35 7.5q19 0 36 -7.5t30 -20.5t20.5 -30t7.5 -35q0 -19 -7.5 -36t-20.5 -30t-30 -20.5t-36 -7.5q-18 0 -35 7.5t-30 20.5t-20.5 30t-7.5 36zM-123 -261q-42 0 -63.5 22t-21.5 52q0 25 19.5 46.5t48.5 23.5q13 -14 26 -28.5t26 -26
t25 -19t23 -7.5q9 0 17 4.5t16 19.5t16.5 43t18.5 75l103 481h-83l10 32q29 2 50.5 9t39 21.5t32.5 37.5t32 57q29 60 57.5 99t56 62t52.5 32t46 9q35 0 52.5 -16t17.5 -43q0 -22 -10 -44.5t-28 -33.5q-25 8 -48.5 11.5t-44.5 3.5q-31 0 -53 -8.5t-36.5 -22.5t-21 -32
t-6.5 -36q0 -28 16 -44.5t52 -16.5h312l-149 -387q-15 -40 -16.5 -56t14.5 -16q9 0 24.5 8t34 25t38.5 45t40 67l29 -12q-21 -43 -46 -78t-55.5 -59.5t-68 -38t-82.5 -13.5q-32 0 -49.5 9t-24 24.5t-3 37.5t13.5 49l123 318h-176l-54 -244q-27 -120 -69 -204t-89.5 -137
t-96 -77t-87.5 -24z" />
    <glyph glyph-name="glyph170" horiz-adv-x="969" 
d="M850 710q0 18 7.5 35t20.5 30t30 20.5t35 7.5q19 0 36 -7.5t30 -20.5t20.5 -30t7.5 -35q0 -19 -7.5 -36t-20.5 -30t-30 -20.5t-36 -7.5q-18 0 -35 7.5t-30 20.5t-20.5 30t-7.5 36zM-123 -261q-42 0 -63.5 22t-21.5 52q0 25 19.5 46.5t48.5 23.5q13 -14 26 -28.5t26 -26
t25 -19t23 -7.5q9 0 17 4.5t16 19.5t16.5 43t18.5 75l103 481h-83l10 32q29 4 50.5 9.5t39 18t32.5 33t32 54.5q29 60 59.5 97.5t60 58.5t57 28.5t50.5 7.5q35 0 52.5 -16t17.5 -43q0 -22 -10 -44.5t-28 -33.5q-25 8 -48.5 11.5t-44.5 3.5q-66 0 -99 -26t-33 -63
q0 -28 16 -39.5t52 -11.5h120q28 0 45 7.5t27.5 19t17 25.5t13.5 28q29 60 57.5 99t55.5 62t52 32t47 9q35 0 52.5 -16t17.5 -43q0 -22 -10 -44.5t-28 -33.5q-25 8 -48.5 11.5t-44.5 3.5q-31 0 -53 -8.5t-36.5 -22.5t-21 -32t-6.5 -36q0 -28 16 -44.5t52 -16.5h312
l-149 -387q-15 -40 -16.5 -56t14.5 -16q9 0 24.5 8t34 25t38.5 45t40 67l29 -12q-21 -43 -46 -78t-55.5 -59.5t-68 -38t-82.5 -13.5q-32 0 -49.5 9t-24 24.5t-3 37.5t13.5 49l123 318h-176l-45 -205q-26 -120 -68 -204t-90 -137t-96.5 -77t-87.5 -24q-42 0 -63.5 22
t-21.5 52q0 25 19.5 46.5t48.5 23.5q13 -14 26 -28.5t26 -26t25 -19t23 -7.5q9 0 17 4.5t16 19.5t16.5 43t18.5 75l94 442h-183l-54 -244q-27 -120 -69 -204t-89.5 -137t-96 -77t-87.5 -24z" />
    <glyph glyph-name="glyph172" horiz-adv-x="667" 
d="M-123 -261q-42 0 -63.5 22t-21.5 52q0 25 19.5 46.5t48.5 23.5q13 -14 26 -28.5t26 -26t25 -19t23 -7.5q9 0 17 4.5t16 19.5t16.5 43t18.5 75l103 481h-83l10 32q29 2 50.5 9t39 21.5t32.5 37.5t32 57q29 60 59.5 99t60 62t57 32t50.5 9q31 0 48 -12.5t21 -33.5l232 64
l-236 -687q-14 -41 -16 -56.5t14 -15.5q9 0 24.5 8t34 25t38.5 45t40 67l29 -12q-21 -43 -46 -78t-55.5 -59.5t-68 -38t-82.5 -13.5q-32 0 -49.5 8.5t-23.5 24.5t-2.5 38t12.5 49l191 557l-39 33q-5 -16 -13.5 -29t-20.5 -21q-25 8 -48.5 11.5t-44.5 3.5q-33 0 -58 -8.5
t-41.5 -22.5t-24.5 -32t-8 -36q0 -28 16 -44.5t52 -16.5h125l-50 -77h-116l-54 -244q-27 -120 -69 -204t-89.5 -137t-96 -77t-87.5 -24z" />
    <glyph glyph-name="glyph174" horiz-adv-x="1000" 
d="M-123 -261q-42 0 -63.5 22t-21.5 52q0 25 19.5 46.5t48.5 23.5q13 -14 26 -28.5t26 -26t25 -19t23 -7.5q9 0 17 4.5t16 19.5t16.5 43t18.5 75l103 481h-83l10 32q29 4 50.5 9.5t39 18t32.5 33t32 54.5q29 60 59.5 97.5t60 58.5t57 28.5t50.5 7.5q35 0 52.5 -16t17.5 -43
q0 -22 -10 -44.5t-28 -33.5q-25 8 -48.5 11.5t-44.5 3.5q-66 0 -99 -26t-33 -63q0 -28 16 -39.5t52 -11.5h124q28 0 45 7.5t27.5 19t17 25.5t13.5 28q29 60 59.5 99t60 62t57 32t50.5 9q32 0 48.5 -12.5t20.5 -34.5l236 65l-236 -687q-14 -41 -16 -56.5t14 -15.5q9 0 24.5 8
t34 25t38.5 45t40 67l29 -12q-21 -43 -46 -78t-55.5 -59.5t-68 -38t-82.5 -13.5q-32 0 -49.5 8.5t-23.5 24.5t-2.5 38t12.5 49l191 557l-42 36q-5 -17 -13.5 -31t-21.5 -22q-25 8 -48.5 11.5t-44.5 3.5q-33 0 -58 -8.5t-41.5 -22.5t-24.5 -32t-8 -36q0 -28 16 -44.5
t52 -16.5h135l-50 -77h-126l-45 -205q-26 -120 -68 -204t-90 -137t-96.5 -77t-87.5 -24q-42 0 -63.5 22t-21.5 52q0 25 19.5 46.5t48.5 23.5q13 -14 26 -28.5t26 -26t25 -19t23 -7.5q9 0 17 4.5t16 19.5t16.5 43t18.5 75l94 442h-187l-54 -244q-27 -120 -69 -204t-89.5 -137
t-96 -77t-87.5 -24z" />
    <glyph glyph-name="glyph176" horiz-adv-x="0" 
d="M-93 710q0 18 7.5 35t20.5 30t30 20.5t35 7.5q19 0 36 -7.5t30 -20.5t20.5 -30t7.5 -35q0 -19 -7.5 -36t-20.5 -30t-30 -20.5t-36 -7.5q-18 0 -35 7.5t-30 20.5t-20.5 30t-7.5 36z" />
    </font>
</defs>
</svg>
